<?xml version="1.0" encoding="utf-8"?>
<!-- Generator: Adobe Illustrator 18.0.0, SVG Export Plug-In . SVG Version: 6.00 Build 0)  -->
<!DOCTYPE svg PUBLIC "-//W3C//DTD SVG 1.1//EN" "http://www.w3.org/Graphics/SVG/1.1/DTD/svg11.dtd">
<svg version="1.1" id="Lag_1" xmlns="http://www.w3.org/2000/svg" xmlns:xlink="http://www.w3.org/1999/xlink" x="0px" y="0px"
	 viewBox="0 0 283.5 283.5" enable-background="new 0 0 283.5 283.5" xml:space="preserve">
<path fill="#2E3B43" d="M169.6,104.1c1.2-1.7,2.2-4,1.9-6.2c-1.2-1.7-3.3-0.7-5-0.7c-1.7,0.5-3.4,1.4-5.2,2.2
	c-4.8,3.1-9.3,6.9-12.4,11.7c-1,1.6-2.4,3.8-1.4,5.5c0.9,0.9,2.4,0.9,3.4,0.7C158.6,115.3,165.3,110.3,169.6,104.1z M169.5,98.6
	l0.3,0.7c0,0.2,0.2,0.5,0.2,0.7c-0.3-0.3-0.9-0.9-1-1.6C169.1,98.4,169.3,98.4,169.5,98.6z M167.9,98.4l0.3,0.2l1.6,2.4
	c-0.2,0,0,0.3-0.2,0.3c-0.5-0.2-0.5-1.2-1.2-1c0.2,0.7,0.7,1,1,1.6l-0.2,0.2c-0.9-1-1.7-2.2-2.4-3.3
	C167.1,98.4,167.6,98.4,167.9,98.4z M165.9,98.9c1,1.2,2.1,2.6,2.9,3.8c0,0.2-0.2,0.5-0.3,0.5c-0.5-0.3-0.5-1.2-1.2-1.4l-0.2,0.2
	c0.2,0.7,0.7,1.2,1,1.7l-0.2,0.3c-1.4-1.4-2.2-3.1-3.3-4.7C164.8,98.9,165.3,99.1,165.9,98.9z M164,99.9c1.4,1.4,2.4,3.1,3.8,4.7
	c-0.2,0.2-0.2,0.5-0.5,0.3l-1-1.4c-0.2-0.2-0.2,0-0.3,0.2c0.2,0.7,0.9,1.2,1.2,1.9l-0.2,0.3c-1.4-1.9-2.8-3.6-4-5.5L164,99.9z
	 M149.1,115.3c0,0.3,0.3,0.5,0.5,0.9c-0.5,0-0.9-0.5-0.9-1c0-0.2-0.2-0.3,0-0.3c0.2,0,0.3,0,0.5,0c0.2-0.2-0.2-0.2-0.2-0.3l-0.2-0.2
	c0-0.2,0-0.3,0.2-0.3l1.7,2.2C150,117,150,115.1,149.1,115.3z M152.6,115.8c-0.5-0.3-0.7-0.9-1-1.4c-0.2,0-0.3,0-0.3,0.2
	c0.2,0.5,0.5,0.9,0.9,1.4c-0.2,0.2-0.5,0.3-0.7,0l-2.1-2.8c0.2-0.5,0.3-1,0.9-1.4l2.9,3.6C152.9,115.6,152.8,115.6,152.6,115.8z
	 M154.5,114.6c-0.3-0.5-0.5-1.2-1.2-1.4c-0.2,0-0.2,0.3-0.2,0.3l0.9,1.4c-0.2,0.2-0.3,0.3-0.5,0c-0.9-1.6-2.2-2.8-2.9-4.3l0.9-1
	l0.5,0.2c1.2,1.6,2.4,3.1,3.4,4.7C155.2,114.6,154.7,114.9,154.5,114.6z M157.2,113.7c-0.5-0.5-0.9-1.4-1.6-1.7
	c-0.2,0-0.2,0.2-0.2,0.3l1.2,1.6c0,0.2-0.3,0.2-0.3,0.3c-1.2-1.9-2.8-3.4-4-5.3c0.3-0.3,0.5-0.9,1-1.2c1.4,1.9,2.6,4,4.1,5.7
	C157.6,113.6,157.2,113.6,157.2,113.7z M159.1,112.5l-1.2-1.7c-0.2-0.2-0.3-0.2-0.5,0.2c0.2,0.7,0.9,1.2,1.2,1.9
	c0,0.2-0.3,0.3-0.3,0.3c-1.4-1.9-2.9-4-4.3-5.9c0.3-0.3,0.7-0.7,1-1c1.6,1.7,2.9,3.8,4.5,5.9C159.5,112.5,159.1,112.4,159.1,112.5z
	 M161,111.1c-0.5-0.5-0.9-1.4-1.4-1.9c-0.2,0-0.5,0-0.5,0.2c0.3,0.9,1,1.2,1.4,2.1c0,0.2-0.2,0.2-0.2,0.3h-0.2
	c-1.4-2.2-2.9-4.1-4.5-6.2c0.2-0.5,0.7-0.7,1-1c1.4,2.2,3.1,4.1,4.5,6.2C161.2,111,161,111,161,111.1z M162.9,109.6l-1.4-1.7
	c-0.2-0.2-0.3,0-0.5,0c0.3,0.9,0.9,1.4,1.4,2.1c-0.2,0.2-0.3,0.2-0.3,0.3c-1.6-2.1-3.3-4.3-4.7-6.4l1.2-1c1,1.7,2.2,3.3,3.4,4.8
	l1,1.6C163.1,109.4,162.9,109.4,162.9,109.6z M164.3,108.2l-1.2-1.7c-0.2-0.2-0.3,0.2-0.3,0.2c0.2,0.7,0.9,1.2,1.2,1.9
	c0,0.2-0.2,0.2-0.3,0.2l-0.2-0.2l-4.3-6c0.3-0.3,0.7-0.7,1.2-0.9l4.7,6.2C164.8,108,164.6,108.6,164.3,108.2z M165.5,107.4
	c-1.6-2.1-3.1-4-4.3-6.2c0.3-0.3,0.7-0.5,1-0.7l4,5.9c0,0.2-0.2,0.2-0.2,0.3l-1.2-1.7c-0.2,0-0.3-0.2-0.5,0l1.4,2.1L165.5,107.4z"/>
<path fill="#2E3B43" d="M168.1,99.4c-0.2,0-0.3,0.2-0.2,0.3c0,0,0.3,0,0.3-0.2S168.1,99.4,168.1,99.4z"/>
<path fill="#2E3B43" d="M166.7,101.1c-0.2,0.2,0,0.3,0.2,0.3c0-0.2,0.2-0.2,0.2-0.3C166.9,101,166.5,100.8,166.7,101.1z"/>
<path fill="#2E3B43" d="M165,102.5c0,0,0,0.3,0.2,0.3s0.3,0,0.3-0.2S165.2,102.2,165,102.5z"/>
<path fill="#2E3B43" d="M163.8,103.9c0,0.2-0.2,0.3,0,0.5c0,0.2,0.3,0.2,0.3,0S164,103.9,163.8,103.9z"/>
<path fill="#2E3B43" d="M162.2,105.8c0.2,0.2,0.3,0,0.3-0.2s-0.3-0.5-0.5-0.3C161.9,105.6,162.1,105.8,162.2,105.8z"/>
<path fill="#2E3B43" d="M160.2,106.8c0,0.3,0.2,0.5,0.3,0.5c0.2,0.2,0.2,0,0.3-0.2C160.9,107,160.3,106.5,160.2,106.8z"/>
<path fill="#2E3B43" d="M158.4,108.7c0.2,0,0.3,0,0.3-0.2c0.3-0.3-0.3-0.5-0.5-0.2C158.1,108.6,158.3,108.7,158.4,108.7z"/>
<path fill="#2E3B43" d="M157.1,109.9c0-0.2-0.2-0.3-0.3-0.3c-0.3,0-0.3,0.2-0.2,0.3C156.7,110.1,157.1,110.1,157.1,109.9z"/>
<path fill="#2E3B43" d="M155,111.5c0.2,0.2,0.3,0,0.3-0.2s-0.2-0.3-0.3-0.3s-0.3,0-0.3,0.2S154.8,111.5,155,111.5z"/>
<path fill="#2E3B43" d="M152.8,112.9c0.2,0,0.3-0.2,0.3-0.3c-0.2-0.2-0.5-0.3-0.5,0C152.4,112.7,152.6,112.9,152.8,112.9z"/>
<path fill="#2E3B43" d="M150.7,113.9c0.2,0,0.3,0,0.3-0.2c0-0.3-0.5-0.3-0.5,0C150.5,113.9,150.5,113.9,150.7,113.9z"/>
<path fill="#2E3B43" d="M249.9,104.3l-2.8-2.4h-0.3c-1.2,0.7-2.1,1.6-3.3,2.1c-0.9,0.7-2.2,0.5-2.8,1.6c-0.2,1.4-0.3,2.8-0.9,4
	c-0.7,0-1.6-0.2-2.2,0c-0.5,0.3-1,0.7-1.4,1.2c-0.2,0.7-0.5,1.7,0.2,2.4c-2.4,2.6-4.8,5-7.8,7.1c-0.9,0.5-1.7,1.4-2.8,1.7
	c-0.3-0.3,0.2-0.9,0.2-1.4c0-1.4-0.9-2.8-2.2-3.3c-0.2-0.2-0.7,0-0.9-0.3c-0.3-1.2-0.7-2.4-1.2-3.6c-0.2-1.4-0.5-2.8-1.2-4.1
	c-0.2-1.6-0.5-3.1-1.4-4.5c-0.2-1.7-0.7-3.4-1.6-5c-0.2-1.7-0.5-3.4-1.4-5c-0.3-1.7-0.9-3.4-1.7-5c-0.2-1.4-0.5-2.9-1.4-4.3
	c-0.3-2.1-1-4-2.1-6c-0.2-1.4-0.7-2.6-1-4v-0.5c0.9-0.9,1-2.1,0.9-3.3c-0.2-1.9-1.9-3.1-3.6-4c-1.6-0.2-3.3,0.5-4,1.7
	c-0.5,0.9-0.7,2.1-0.3,2.9c-0.9,1.2-1.7,2.4-2.4,3.8c-1.2,1.2-2.4,2.8-3.1,4.3c-1.4,1-2.2,2.6-3.1,4.3c-1.2,1.2-2.4,2.6-3.1,4.3
	c-1.4,1-2.2,2.6-3.1,4c-0.9,0.9-1.6,1.7-2.2,2.8c-0.3,1.2-1.4,2.1-2.1,3.1c-0.3,0.7-0.9,1.2-1.2,1.9c-1.6,1.2-2.2,3.1-3.6,4.5
	c-1.6,0-2.9,1-3.6,2.1c-1-1.7-1.2-3.6-1.6-5.5c0.2-1.2,0.7-2.4,0.7-3.8c0.2-0.3-0.2-0.7,0-1.2c-0.5-1.2-1.6-2.4-2.9-2.6
	c-4.1-1-8.1,1.4-11.7,3.1c-2.9,1.7-5.5,3.6-7.8,5.9c-0.7,0.5-1.2,1.2-1.9,1.7c-0.9,0.9-1.6,1.7-2.2,2.6c-2.1,2.9-4.8,7.1-3.3,10.9
	c0.9,1.4,3.1,1.9,4.7,1.7c2.1,0.9,4,2.1,5.5,3.6c0.5,0.3-0.2,0.9,0,1.2c0,0.7,0.3,1.4,0.9,1.7c1,0.7,2.6,1,3.8,0.7
	c1.6,0.9,2.9,2.1,4.3,3.3c0.3,0.3-0.2,0.5,0,0.9c-0.2,0.7,0.5,1.2,0.9,1.7c0.9,1,2.4,1,3.6,0.9c3.1,3.4,7.2,5.9,11.7,7.8
	c6,2.2,12.4,3.4,18.6,3.1c6-0.2,12.1-1.7,17.7-4.1c0.9,0.5,2.1,0.9,2.9,0.3c0.5-0.5,1.4-1.2,1.2-2.2c1.2-0.9,2.8-1.4,4-2.4
	c0.3-0.3,0.9-0.7,1.2-0.2c1,0.3,2.2-0.2,2.9-1c0.5-0.9,0.9-1.9,0.7-2.9c4.5-4.7,8.4-9.6,12.2-14.8h1.4c0.7-0.3,1.4-1,1.7-1.7
	c0.2-0.7,0.3-1.4-0.2-2.1c-0.2-0.2-0.3-0.2-0.3-0.5c1-0.9,2.4-1.7,4-2.1c0-1.4,0.5-2.9,0.9-4.1C249.3,105.8,250.1,105.3,249.9,104.3
	z M224.4,118.2c0.3,0.5,0.7,1.2,0.9,1.9c0,0.3,0,0.7,0,1c-1,0.2-0.5-1-0.9-1.4c-0.3-0.5-0.7-1-0.9-1.7
	C223.8,117.9,224.1,118.2,224.4,118.2z M223.4,119.9c0.2,0.3,0.3,0.9,0,1.2c-0.5,0-1,0.5-1.4,0c-0.2-0.3-0.2-0.5,0-0.9L223.4,119.9z
	 M222.2,119.2c-0.5-0.5-0.5-1-0.7-1.7c0.3,0.5,1,0.9,1.4,1.6C222.7,119.4,222.4,119.2,222.2,119.2z M185.7,118
	c-0.3-0.9-1-1.6-1.9-1.9c-0.5-0.2-1.2,0-1.7,0.3c-1.2-1-2.6-2.1-3.3-3.6c0.2-0.9,1.2-0.7,1.7-1.2c1-0.7,1.6-2.1,1.4-3.4
	c0-0.3-0.5-0.9,0-1.2l1.6-2.2c1.4-1,2.1-2.6,2.9-3.8c1.2-1,1.7-2.6,2.6-3.8c1.2-1,1.9-2.2,2.6-3.4c1.2-1.4,2.2-2.8,3.1-4.3
	c1.9-1.7,2.9-4.3,4.7-6c0.5-0.9,1.2-1.7,1.6-2.8c1.4-1.2,2.2-2.9,3.3-4.5l0.7-0.5c0.9,0.2,1.7,0.7,2.8,0.5c0.5,1.6,0.9,3.1,1.2,4.7
	c0.2,1,1.4,2.1,1.2,3.3c0.3,1.6,0.7,2.9,1.6,4.5c0.2,1.6,0.9,3.1,1.6,4.7c0.2,1.7,0.9,3.6,1.6,5.2c0,0.9,0.3,1.7,0.7,2.8
	c0.2,1,1.4,2.1,1.2,3.3c0,1.2,0.9,2.2,1,3.4c0.3,1.6,0.5,2.9,1.4,4.3c0,2.1,1.4,3.6,1.6,5.7c-0.9,0.9-1.6,2.4-1,3.8
	c0.5,1,1.2,1.7,2.2,2.1c-1.2,0.7-2.8,1.4-4.1,1.6c-0.7-0.9-1.7-1-2.6-1c-1.4,0.3-2.1,1.2-2.2,2.4c-1,0.2-1.9,0.3-2.8,0.3
	c-6,0.5-13.1-1-18.6-3.8c-1.9-1-3.8-2.1-5.3-3.4C185.5,119.2,186,118.6,185.7,118z M179.3,110.6c1-0.3,0.7-1.9,1.7-1.9
	c0,0.5-0.2,1-0.3,1.7c-0.3,0.3-0.7,1-1.2,0.9C179.3,111,179.5,110.8,179.3,110.6z M205.8,74.3l1.2,0.3l0.2,0.9
	c-0.7,0-1.6,0.2-1.9-0.5L205.8,74.3z M206.5,71c0.7-0.7,1.7,0.2,1.7,1c0,0.3,0,0.9-0.2,1.2c-0.3,0.3-0.9,0.5-1.2,0.5
	c-0.5-0.2-0.9-0.5-1-1C205.7,72,206,71.5,206.5,71z M220.1,121.3c-0.3-0.7-0.2-1.6,0.3-2.2h0.2c0.9,0.7-0.2,1.6,0.5,2.2
	c0.2,0.3,0.3,0.5,0.7,0.7l-0.2,0.5C221,122.5,220.5,121.8,220.1,121.3z M222,115.8l0.3,1.9c-1.7-0.7-1.9-3.1-2.4-4.7
	C220.8,113.7,221.9,114.4,222,115.8z M221,112.7c-1.6-0.7-2.1-2.4-2.1-4l1.2,1.2C220.5,110.8,220.8,111.8,221,112.7z M218.9,105.8
	c0.3,1,0.5,2.1,0.7,2.9l-1.2-1c-0.5-0.7-0.5-1.6-0.9-2.2c0-0.5-0.2-0.9-0.2-1.2C218.1,104.6,218.6,105.1,218.9,105.8z M218.2,104.1
	l-1.2-1c-0.5-1.2-1.4-2.4-1.4-3.6v-0.2c0.7,0.2,1,0.7,1.4,1C217.7,101.5,218.1,102.7,218.2,104.1z M216.9,99.1
	c-1-0.3-1.7-1.6-2.1-2.4c-0.2-0.7-0.5-1.4-0.5-2.2l1.6,1C216.3,96.7,216.7,97.9,216.9,99.1z M215.3,94.1c-1.4-0.5-1.7-1.9-2.2-3.1
	c-0.2-0.5-0.3-1.2-0.3-1.7C214.6,90.3,215,92.5,215.3,94.1z M213.6,88.7c-1.9-0.7-2.2-2.9-2.6-4.7l1.4,1
	C212.9,86.3,213.4,87.5,213.6,88.7z M212.2,83.9c-1.9-0.9-2.8-3.3-2.8-5.2l1.2,1C211.3,81.2,211.9,82.5,212.2,83.9z M210.3,78.6
	l-1.7-1.4c-0.3-0.9-0.7-1.6-0.7-2.6c0-0.3,0.3-0.7,0.7-0.9C209.5,75.5,210,77.2,210.3,78.6z M204.6,69.8c0.5-0.5,1-0.5,1.7-0.9
	c1.2-0.2,2.4,0.3,3.3,1.2c0.2,0.5,0.3,1,0.5,1.4c0.2,0.7,0,1.7-0.5,2.2c-0.5-0.7-0.5-1.4-0.5-2.2c-0.3-0.9-1-1.4-1.9-1.7
	c-1.2,0-2.2,0.9-2.9,1.9l-0.3,0.2C203.9,71.2,203.9,70.3,204.6,69.8z M204.6,72.5c0.9,0.9-0.2,1.6-0.5,2.2l-1,1.4l-1.4,0.3
	C202.2,75,203.4,73.8,204.6,72.5z M202.4,77c-0.5,1.2-1.6,2.1-2.2,3.1l-1.7,0.7C199.3,79.3,200.3,77.2,202.4,77z M197.9,81.7
	c0.5-0.2,1-0.3,1.7-0.5c-0.9,1.6-1.9,3.6-4,3.6C196.2,83.6,197,82.5,197.9,81.7z M195.8,85.6l0.5-0.2c-0.7,1.2-1.4,2.4-2.4,3.3
	l-1.4,0.5C193.1,87.7,194.3,86.3,195.8,85.6z M190.7,91c0.5-0.7,1.6-1,2.4-1.2c-0.3,1.4-1.4,2.1-2.2,3.1l-1.7,0.5
	C189.3,92.4,190.2,91.8,190.7,91z M189.5,94.1c0.2,0,0.3-0.2,0.7,0c-0.3,0.9-1.2,1.7-1.7,2.6l-1.7,0.5
	C187.4,96,188.3,94.6,189.5,94.1z M187.6,97.7c-0.5,1-1.2,1.9-1.9,2.6l-1.7,0.5C184.6,99.4,185.7,97.7,187.6,97.7z M184.8,101.3
	c-0.5,1-1.2,1.9-1.9,2.8c-0.7,0.2-1.4,0.3-1.9,0.5C181.9,103.2,182.9,101.5,184.8,101.3z M179.5,106.7c0.5-1,1.6-1.2,2.6-1.4
	c-0.5,0.9-1,1.6-1.7,2.4c-0.3,0.3-0.9,0.5-1.2,0.2C178.8,107.5,179.3,107,179.5,106.7z M179,108.9l0.3,0.3c0,0.3-0.2,0.5-0.3,0.7
	h-0.2c-0.3-0.5-1.7-0.5-0.9-1.4C178.3,108,178.4,108.9,179,108.9z M177.4,107.2l0.7-0.3c0.2,0.2,0,0.3-0.2,0.7
	c-0.7,0.3-1,0.9-1.2,1.6c-0.2,0-0.5,0-0.7,0.2C176,108.4,176.5,107.5,177.4,107.2z M146,118.2c-0.9-1.2-0.2-2.8,0-4.1
	c2.1-5.7,6.5-9.5,11.2-13.3c4.1-2.8,8.8-5.5,13.8-5.2c0.5,0.2,1.4,0.3,1.7,0.9c1.4,1.9,0.3,4-0.3,6c-0.5,1.4-1.6,2.2-2.2,3.4
	c-2.8,3.3-5.7,6.2-9.3,8.6c-3.4,1.9-6.7,3.8-10.5,4.7C149,119.4,146.9,119.6,146,118.2z M155.7,120.8c0.5-0.7,1.6-0.5,1.9-1.4
	c-0.7-0.7-1.6,0.3-2.2,0.3c-0.3,0-1,0-1.2-0.3c7.6-2.9,14.6-8.3,18.8-15c0.5,2.1,0.7,4.1,1.9,6.2c-4.1,5-9.6,9.3-15.9,12.1
	c-0.5,0.2-1,0-1.6,0v-0.3c0.5-0.3,1-0.7,1.6-0.9c0-0.2-0.2-0.5-0.3-0.5c-0.7,0-1.2,0.7-1.9,0.5C156.5,121.1,155.9,121.3,155.7,120.8
	z M158.4,126.3c-0.7-0.2-1.4,0-1.7-0.3c-0.2-0.3,0-0.7,0.2-1c7.9-2.8,14.5-8.1,19.6-14.3c0.2-0.2,0.5-0.2,0.7-0.2
	c0.3,0.2,0.5,0.5,0.7,0.7c0.2,1-0.7,1.7-1.2,2.4C171.7,119.1,165.9,124.1,158.4,126.3z M164.6,127.9c0.2-0.5,0.7-0.5,1.2-0.9
	c0.2-0.2,0-0.3-0.2-0.3c-0.9-0.2-2.2,1.6-2.8,0l0.3-0.7c5.7-2.8,10.3-6.9,14.5-11.4c1.2,1,2.2,2.1,3.4,3.1c-1.9,2.8-4.5,4.8-6.9,7.2
	c-2.1,1.7-4.3,3.4-6.9,4.5c-0.3,0-0.9,0.3-1.2-0.2h0c0.3-0.3,0.9-0.3,1.2-0.9c-0.5-0.9-1.2,0.2-1.9,0.2
	C165,128.5,164.8,128,164.6,127.9z M167.9,132.9c-0.7,0.2-1.2,0-1.7-0.3l-0.3-0.7c0.5-0.9,1.6-0.9,2.4-1.4c6-3.1,10.7-7.8,14.8-12.8
	c0.3-0.2,1.4,0,1.6,0.7c0.2,0.7-0.3,1-0.5,1.6C179.8,125.3,174.6,130.1,167.9,132.9z M215.3,138c-0.3-0.3,0.2-1.4-0.7-1.2
	c-0.3,0.5,0.2,1.6-0.3,2.1c-0.3,0-0.5,0-0.9,0c-0.2-0.3,0-1-0.5-1.2c-0.9,0.2,0,1.2-0.3,1.7c-0.3,0.2-0.9,0.5-1,0.2
	c-0.2-0.3,0-1.2-0.7-1.2c-0.3,0.5-0.2,1-0.2,1.6c-0.3,0.3-0.9,0.3-1.4,0.3c-0.2-0.3-0.2-0.9-0.3-1.2c-0.2,0-0.5,0-0.5,0.3
	c0,0.5,0.2,1.2-0.3,1.4c-0.3,0.2-0.7,0.2-0.9,0.2c-0.5-0.3,0-1.2-0.9-1c-0.7,0.3,0,1-0.3,1.6c-0.5,0-1,0.5-1.6,0.2
	c0-0.3,0.2-0.9-0.2-1.2c-1,0,0,1-0.7,1.6c-0.3,0-0.9,0.3-1.2,0.2c-0.2-0.5,0-1-0.3-1.4c-1,0-0.2,1-0.7,1.6c-0.3,0-0.9,0.3-1.2,0
	c-0.2-0.3,0-0.9-0.2-1.4c-0.2-0.2-0.3,0-0.5,0.2c0,0.5-0.2,1-0.3,1.4c-0.3,0-1.2,0.2-1.2-0.3c0-0.3,0.2-0.7-0.2-1
	c-0.3,0-0.5,0-0.5,0.2c-0.2,0.3,0.2,1.2-0.5,1.2c-0.3,0-0.9,0.2-1-0.3c0-0.3,0.2-0.9-0.2-1.2c-0.9,0-0.3,1.4-1,1.4
	c-0.3,0-0.9,0-1-0.3c0-0.3,0.3-1-0.2-1.2c-0.7,0.2-0.5,2.1-1.6,1.2c-0.3-0.3,0.3-1.2-0.3-1.6c-0.3,0.3-0.3,0.9-0.7,1.4
	c-0.3,0.2-0.7,0-0.9-0.2c-0.5-0.3,0.7-1.6-0.3-1.6c-0.3,0.3-0.3,1.2-0.9,1.4c-0.3-0.2-0.9-0.2-0.9-0.5c0-0.5,0.3-0.7,0.2-1
	c-0.2-0.2-0.3-0.2-0.5-0.2c-0.3,0.3-0.2,1.2-0.7,1.4c-0.3,0-1-0.2-1-0.7c0-0.3,0.5-0.9,0.2-1.2c-0.9-0.3-0.5,1-1.2,1.2
	c-0.3,0.2-0.7,0-0.9-0.2c-0.3-0.5,0.5-1.2,0.2-1.7c-0.9,0-0.5,1.6-1.6,1.4c-0.3,0-0.7-0.3-0.5-0.7c0-0.5,0.5-1,0.3-1.4
	c-0.9,0-0.7,1.6-1.9,1c-0.3,0-0.3-0.3-0.5-0.5c0.2-0.5,0.7-1,0.3-1.4c-0.9,0.2-1,1.9-2.1,1c-0.7-0.9,1-1.4,0.3-2.2
	c-0.9,0.2-1.4,2.2-2.2,0.9c0-0.7,0.5-1.2,0.9-1.7c0-0.2,0-0.2,0-0.3c-1,0-1.6,2.2-2.6,0.9c-0.3-0.9,1.4-1,1-1.9
	c-0.9,0-1.9,2.1-2.8,0.5c0.3-0.5,0.9-0.7,1.4-1.2c0-0.3-0.2-0.3-0.3-0.3c-0.7,0.2-1.2,1-1.9,0.9V133c5.3-3.1,9.6-7.2,13.6-11.7
	c3.6,2.4,7.6,4.8,12.2,6c5.7,1.7,10.9,1.6,16.2,1.2c-0.3-0.7-0.2-0.5,0-0.3c1.4,3.1,2.2,6,2.4,9.3C216,137.7,215.7,138.2,215.3,138z
	 M218.9,139.7c-0.3,0-0.9,0-1-0.3c-0.3-0.9-0.2-1.9-0.2-2.8c-0.2-3.4-1.6-6.9-3.1-10.2c0-0.5,0.3-0.7,0.7-0.7
	c1.4-0.5,1.6,1.4,2.1,2.1c1.6,3.3,2.1,6.9,2.2,10.5C219.6,138.9,219.4,139.4,218.9,139.7z M224.3,133c-0.3-0.3-0.2-1.2-0.9-1
	c-0.3,0.5,0,1.2-0.2,1.7c-0.3,0.2-0.5,0.5-0.9,0.3c-0.2-0.3-0.2-0.7-0.5-1c-1,0.2,0,1.4-0.7,1.9c-0.3,0-0.7,0.2-0.5-0.3
	c-0.2-2.8-1.2-5.7-2.4-8.3c1.4-0.5,2.9-1,4.3-1.6c1.2,2.4,2.1,5,2.2,7.4C224.8,132.5,224.4,132.9,224.3,133z M227.4,134.8
	c-0.3,0-0.7,0.2-0.9,0l-0.2-0.3c-0.3-3.8-0.9-7.4-3.1-10.9c-0.2-0.3,0.2-0.7,0.3-0.9s0.3-0.3,0.7-0.3c0.5,0,0.9,0.3,1,0.7
	c1.9,3.3,2.8,6.9,2.8,10.5C227.9,133.9,227.9,134.6,227.4,134.8z M240,116.5c-0.3-0.2-0.7-0.9-1-0.3c-0.2,0.5,0.5,0.7,0.3,1.4
	c0,0.3-0.3,0.5-0.7,0.7c-0.3-0.2-0.5-0.9-0.9-0.5c-0.5,0.5,0.7,0.9,0.2,1.6c-0.2,0.2-0.3,0.7-0.7,0.7c-0.3,0-0.3-0.9-0.9-0.7
	c-0.5,0.3,0.2,0.9,0.2,1.2c0,0.5-0.3,0.9-0.7,0.9c-0.3-0.2-0.5-0.7-0.9-0.7c-0.9,0.5,0.9,1,0,1.7c-0.2,0.2-0.3,0.3-0.5,0.5
	c-0.3-0.2-0.5-0.9-1-0.7c-0.3,0.5,0.3,0.9,0.3,1.4c-0.2,0.3-0.5,0.9-0.9,0.9c-0.3,0-0.3-0.7-0.7-0.7c-0.2,0.2-0.5,0.3-0.3,0.5
	c0.2,0.3,0.5,0.5,0.5,1c-0.2,0.2-0.2,0.7-0.5,0.5c-0.5-0.2-0.3-0.9-1-0.7c-0.5,0.7,0.9,1.4-0.2,2.1c-0.3,0.3-0.3-0.2-0.7-0.2
	c0-0.2-0.2-0.5-0.2-0.7c-0.2,0-0.5,0-0.5,0.2c-0.2,0.7,0.5,1.2,0.2,1.7l-0.5,0.2c-0.5-1.9-1.2-3.8-2.2-5.7c3.3-2.1,6.5-4.7,9.3-7.4
	c0.5-0.5,1-1,1.6-1.7l2.6,2.4C240.1,116.1,240,116.3,240,116.5z M242.9,115.5c-0.2,0.2-0.5,0.3-0.9,0.3c-1.7-0.9-2.9-2.4-4.3-3.6
	c-0.3-0.3-0.3-0.9,0-1.4c1.7-1.7,2.9,1.2,4.5,1.9c0.5,0.7,1,1,1.2,1.7C243.6,114.8,243.2,115.3,242.9,115.5z M248.4,104.6
	c-0.3,0-0.5-0.5-0.9-0.3c-0.2,0.2-0.2,0.3-0.2,0.5c0.2,0.3,0.5,0.7,0.5,1c-0.2,0.2-0.2,0.3-0.3,0.3c-0.3,0-0.5-0.5-0.9-0.3
	c-0.3,0.7,0.9,1,0.3,1.9l-0.2,0.2c-0.3-0.2-0.9-0.9-1.2-0.3c0,0.5,0.5,0.7,0.7,1c0,0.3,0.2,0.7-0.2,0.9c-0.3,0.2-0.7,0.3-1,0
	c-0.3-0.2-0.5-0.3-0.9-0.5c-0.3,0.2,0.2,0.5,0.2,0.7c0.3,0.2,0.2,0.5,0.2,0.7c0,0.2-0.3,0.3-0.5,0.3c-0.3-0.2-0.7-0.9-1-0.3
	c-0.2,0.5,0.5,0.7,0,1l-0.3,0.2c-0.5-0.5-1.9-1-1.4-2.1c0.5-1.2,0.7-2.4,0.7-3.6c1.7-0.7,3.4-1.9,4.8-2.9c0.9,0.5,1.2,0.9,1.6,1.2
	C248.4,104.3,248.4,104.4,248.4,104.6z"/>
<path fill="#2E3B43" d="M110,30.7c-0.3-0.3-0.5-0.9-1-1c-0.3,0-0.3,0.2-0.5,0.3c-13.8,5.9-28.8,6.9-43.9,2.6
	c0.2,0-2.8,11.2-4.3,17.4l27.4,7.4c0.2,2.2-0.3,4.3-0.5,6.5l-2.4,20l-1.4,10.9l-2.4,19c-3.1,1.7-5.5,5.2-5,9
	c0.3,3.6,2.9,6.7,6.5,7.8c3.3,0.9,6.7-0.2,9.1-2.6c2.2-2.4,3.1-6.4,1.7-9.3c-0.2-0.7-0.7-1.4-0.7-2.1l2.1-5.2l6.2-15.5
	c1.6-3.8,3.1-7.8,4.7-11.7l7.9-20.2l28.3,7.6l5-17.6C131.6,50.3,119,42.2,110,30.7z M91.2,124.9c-1,2.1-3.6,3.4-5.9,3.6
	c-2.6,0-5-1.2-6.4-3.3c-1.4-2.1-1.6-4.8-0.3-7.1c0.7-1.4,2.1-2.6,3.6-3.3c2.9,1,5.5,1.6,8.3,2.4C92.4,119.6,92.4,122.5,91.2,124.9z
	 M108.1,71.2l-6.4,16.5l-10.2,25.5c-0.3,0.7-0.7,1.6-1,2.2c-0.5,0.2-1.2-0.3-1.9-0.3l-5.5-1.6l1.9-16l2.4-18.4l2.2-17.9
	c0.2-1.6,0.3-3.1,0.5-4.7l1.4,0.3l14,3.6l6.2,1.4C110.5,65,109.3,68.1,108.1,71.2z M140,67.4l-2.9-0.7L65.4,47.9l-2.2-0.5L63,47.2
	c1-4.3,1.9-8.1,3.1-12.2c3.4,0.7,6.9,1.6,10.3,1.7c11,1.2,21.9-0.5,32.1-4.5c9.1,10.9,20.5,18.8,34.8,22.9L140,67.4z"/>
<path fill="#2E3B43" d="M111.7,181.8c-0.9-1.9-2.4-3.1-4.3-3.8c-1.6-0.3-3.4-0.7-4.8,0.5c-0.3,0.5,0.5,0.7,0.7,1.2
	c0.7,1.4,1,3.1,0.2,4.7c-0.7,1-1.9,1.7-3.1,1.7l-22.9-6.2l5.9-21.7c0.3-1.2,1-2.2,2.6-2.2c1.4-0.2,3.1,0.7,4,1.7
	c0.5,0.7,0.9,1.4,1,2.2c0.2,0,0.5-0.2,0.5-0.2c1.9-0.9,3.1-2.8,2.9-5c0-3.1-1.9-5.9-4.3-7.4c-2.9-2.1-6.5-1.9-9.8-1.4
	c-0.7,0.2-1.7,0.3-2.4,0.5c-0.9-1.6-1.7-2.6-2.8-3.4c-2.1-1.4-4.7-2.1-7.1-2.1c-2.9,0.2-6.4,1.7-7.6,4.5c-0.7,2.1-0.7,4.5,0.7,6.2
	c0.5,0.3,0.9-0.5,1.2-0.7c1.2-0.9,2.8-0.9,4.1-0.3s2.4,1.7,2.4,3.3c0,0-5.3,19.8-5.9,21.7l-21-5.7c-0.9-0.3-2.8-1.2-3.1-2.1
	c-0.3-1-1-2.4-0.2-3.6c0.5-1,1.6-1.9,2.8-2.1c0.5,0,0.5-0.3,0.3-0.7c-1-1.2-2.2-2.4-4-2.8c-2.9-0.9-6.2,1-7.9,3.3
	c-2.8,3.3-2.8,8.6-1.2,12.4c-3.4,2.1-5,6.2-5,9.8c0,2.8,1.2,5.9,3.6,7.2c1.6,1.2,4,1.4,5.9,0.9c0.3,0,1.2-0.2,0.9-0.7
	c-0.7-0.9-1.4-1.9-1.6-2.9c0-0.9,0.2-1.9,0.3-2.2c0.7-1.2,1.7-1.6,3.3-1.2l22.7,6.2l-5.5,20.7l-0.5,1.6c-1,1-2.6,1.4-4,1.2
	c-1.9-0.3-3.1-1.9-3.4-3.4c-0.5-0.3-1,0-1.4,0.3c-1.4,1.2-2.4,2.9-2.4,4.8c0,3.3,2.4,6.2,5.2,7.6c1.9,1.2,4.5,1.4,6.5,1.4
	c1.4-0.2,2.2-0.5,3.6-0.9c1,1.4,2.8,2.8,4.3,3.4c3.4,1.9,7.8,2.2,11.2,0.5c2.1-1.2,3.8-3.1,3.8-5.7c0-1.2-0.2-2.8-1.4-3.3
	c-0.7,0.9-1.9,1.2-2.9,1.4c-1.2,0-2.9,0-3.8-1c-1.7-1.4-0.5-2.4-0.3-4l5.5-20.5c0,0,19.1,5.2,23.3,6.4c1.2,0.9,1.6,1.9,1.4,3.3
	c-0.3,1.4-1.2,2.6-2.4,2.9c-0.5,0-1.2,0-1.4,0.5c0.3,0.7,0.9,1.4,1.6,1.9c0.7,0.3,2.8,1.2,4.1,1.4c2.8,0.2,5.5-1.9,6.9-4.1
	c2.1-3.6,2.1-8.1,0.5-11.9c3.3-1.7,4.8-5,5.3-8.6C113,185.4,112.6,183.5,111.7,181.8z M109.7,189.5c-0.7,2.6-2.9,4.7-5.5,5.5
	c0.7,1.2,1,2.4,1.6,3.6c0.7,2.9,0.2,6.7-2.1,9.1c-0.5,0.5-1,1.2-1.9,1.4l-0.3,0.2c-1.2,0.5-2.6,0.3-4-0.2c0-0.2,0-0.3,0.2-0.3
	c2.1-1.2,2.2-3.4,2.4-4.1c0.2-1.4-0.5-3.6-1.4-4.3c-1.6-1,0.2-0.9-6.2-2.6c-4.7-1.2-21.7-5.9-21.7-5.9l-4.3,16.5
	c-0.5,2.2-1.2,5-1.9,7.2c-0.3,1.7-0.9,3.6,0.5,5.2c1.2,1.9,3.8,2.9,6,2.8c0.9-0.2,1.7-0.5,2.6-1c0.3,0.3,0,0.9,0,1.4
	c-0.9,2.6-4,3.6-6.4,3.8c-1.9,0-4-0.3-5.5-1.4c-1.9-0.9-3.3-2.8-4.5-4.1c-0.9,0.5-1.6,0.7-2.6,1c-0.9,0-1.6,0.3-2.4,0.3
	c-2.2,0.2-4.7-0.7-6.4-2.1c-1.4-1.2-2.4-3.1-2.4-4.8c0.2-0.5,0.2-1.6,0.7-1.9c1,1.6,2.8,2.4,4.7,2.8c2.1,0,4.3-0.7,5.3-2.6l0.7-1.7
	c0,0,5.9-21.7,6.2-24c0,0-19.5-5.2-23.3-6.2c-3.1-0.9-5.2-1-6.7,0.3c-1.4,1.4-2.1,4-1.6,5.9c0,0.5,0.3,0.9,0.5,1.4
	c-0.9,0.3-1.4-0.3-2.2-0.5c-0.5-0.5-1-0.7-1.2-1.4c-0.3-0.2-0.5-0.5-0.5-0.9c-0.2-0.7-0.7-1.4-0.7-2.1c-0.7-2.9,0.7-6.7,2.9-8.8
	c0.7-0.7,1.7-1,2.4-1.6c0,0-2.1-6.7-0.9-9.8c0.9-2.4,2.8-4.3,5.3-4.8c1,0,2.1,0,2.9,0.7c-1.6,0.9-2.2,2.4-2.6,4.1
	c-0.3,2.1,0.7,4.1,2.2,5.3c0.9,0.5,1.9,0.9,2.9,1.2l23.3,6.2c0,0,4.3-16,6.4-23.8c0.2-2.1-1-4.5-2.8-5.5c-1.9-1.2-4.3-1.2-6.2-0.5
	c-0.3-1.6,0.5-3.3,1.9-4.1c1.9-1,4-1.2,6-1.2c3.1,0,5.5,1.9,7.1,4.1c0.3,0.5,0.3,0.7,0.7,1.4c4.7-1.6,8.8-2.1,12.2,0.5
	c1.9,1.6,3.3,4.1,2.6,6.4c0,0.3-0.2,0.5-0.3,0.7c-1.2-1.9-3.4-2.9-5.7-3.1c-2.2,0.2-4.8,1.6-5.7,3.8l-6.4,23.8l21.9,5.9
	c2.6,0.5,5.5,1.9,7.8,0.3c1.6-1,2.4-2.8,2.6-4.5c0-1-0.2-2.1-0.7-2.9c1-0.3,2.1,0.3,2.9,0.9C110.9,183,110.5,186.6,109.7,189.5z"/>
<path fill="#2E3B43" d="M60.6,0c0,0-45.5,169.6-45.8,170.6c-3.6,16.9,1,35.2,6.7,47.2c14.3,29.8,40.1,49.8,71.9,59.1
	c13.1,3.6,26.5,6,39.6,6.5c12.8,0.5,25.3-1,37.6-4.8c16-4.7,30.8-14.1,40.8-27.1c5-6.2,9.3-13.4,11.9-21l46.7-174.4L60.6,0z
	 M30.4,228.1c-9.6-14.8-17.2-35.7-13.3-57C18,167,62.1,2.8,62.1,2.8l100.6,26.9L96.9,275C69,267.4,45.7,251.4,30.4,228.1z
	 M216.3,236.1c-0.5,1.6-1.4,2.4-1.7,3.8h-0.2c-2.2,5-5.9,9.3-9.5,13.3c-11.5,12.4-28.8,20.9-45.3,24.3c-12.4,2.6-25,3.1-37.7,1.9
	c-5-0.7-10.2-1.4-15.2-2.4c-2.2-0.5-5.5-1.2-7.8-1.7c0.9-3.1,19.8-74.1,19.8-74.1c4.1-4.8,11.7-6.5,17.9-5.5
	c6.2,1.2,10.9,4.8,13.8,10.2c0.2,0,0.2-0.5,0.2-0.7c0.2-6.9,4-13.3,10-16.5c4.7-2.6,10-3.1,15.3-1.4c1.9,1,3.6,2.1,5.3,2.9
	c6.2,3.4,10,11.7,9,18.8c-0.3,2.1-1,4.1-1.7,6h0.2c6.2-3.3,14.8-2.4,20.5,1.9C215,221.1,219.3,229.4,216.3,236.1z M220,229.9
	c-1-7.9-7.8-15.5-15.2-18.1c-4-1.4-8.1-1.6-12.1-0.7c1.4-6.9-0.7-14.3-5.7-19.5c-4.1-4-9.8-6.9-16-7.2c-7.6-0.7-16.4,4.1-20,10.9
	c-0.9,1.4-1.4,2.9-2.1,4.7c-4.7-5-12.9-7.6-19.6-6.2c-2.9,0.7-6.9,1.6-9.3,3.4c0,0,44.5-165.8,44.6-166.6l101.7,27.2L220,229.9z"/>
</svg>
