<svg id="Layer_1" xmlns="http://www.w3.org/2000/svg" viewBox="0 0 595.3 841.9"><style>.st0{fill:#FFFFFF;} .st1{fill:#ECC281;}</style><g id="EmpbvG.tif"><path class="st0" d="M191.6 633.1c-3.4-7.6-4.7-15.6-10.5-22.1-3.7-4.2-9.3-5.2-11.6-.1-2 4.5-3.4 9.6-3.9 14.6-.9 10.2.8 20.3 3.3 30.2 1.6 6.4 2.6 13 3.9 19.4 1.3 6.7 2.7 13.3 4.2 20 1.5 6.8 3.1 13.5 4.4 20.3.3 1.6.1 4.1-1 5-.9.8-3.4.2-4.9-.5-2.8-1.2-5.6-2.5-8.1-4.2-15.4-10.7-32.2-16.7-50.9-17.5-5-.2-8 2.9-8.8 7.7-.9 5.4 1.7 9.1 6 10.6 10.2 3.6 20.5 7.4 31 9.1 15.6 2.5 29.5 8.3 42.6 16.7.4.3.8.7 1 1.2 5.3 8.6 8.1 18.3 8.6 28 .8 13.7 4.4 26.5 8.6 39.3 1.6 4.9 4.1 9.1 9 11.4 4.7 2.2 8.3.3 8.3-4.8-.1-4.6-.4-9.2-1.5-13.6-3.7-15.6-7.9-31.1-11.6-46.7-.9-3.8-1.8-8.5-.4-11.9 2.4-5.8 6.1-11.2 10-16.3 7.3-9.7 15.3-18.8 22.4-28.6 7-9.6 13.5-19.5 19.6-29.6 3.2-5.3 5.4-11.2 7.2-17.1.9-3.1 1-7.4-2.6-9.4-4.1-2.3-7 1-10.1 3-.2.1-.4.4-.6.6-6.2 8.3-12.8 16.4-18.7 25-8.1 11.8-15.6 24-23.5 36-.7 1.1-1.7 2.1-2.7 3.1-3.1 2.9-5.2 2.2-6-2.1-1.2-7-2-14.1-3.2-21.1-3-18.6-6.3-37.1-9.5-55.6z"/><path d="M191.6 633.1c3.2 18.5 6.5 37 9.6 55.5 1.2 7 2 14.1 3.2 21.1.7 4.3 2.9 5 6 2.1 1-.9 2-1.9 2.7-3.1 7.8-12 15.4-24.2 23.5-36 5.9-8.6 12.4-16.7 18.7-25 .2-.2.3-.5.6-.6 3.1-1.9 6.1-5.3 10.1-3 3.6 2.1 3.5 6.3 2.6 9.4-1.8 5.9-4.1 11.8-7.2 17.1-6.1 10.1-12.6 20.1-19.6 29.6-7.1 9.8-15.1 18.9-22.4 28.6-3.8 5.1-7.6 10.5-10 16.3-1.4 3.4-.5 8 .4 11.9 3.7 15.6 7.9 31.1 11.6 46.7 1 4.4 1.4 9.1 1.5 13.6.1 5.1-3.6 7-8.3 4.8-4.9-2.3-7.4-6.5-9-11.4-4.2-12.8-7.9-25.6-8.6-39.3-.5-9.7-3.3-19.4-8.6-28-.3-.4-.6-.9-1-1.2-13.1-8.4-27-14.3-42.6-16.7-10.6-1.7-20.9-5.5-31-9.1-4.2-1.5-6.9-5.1-6-10.6.8-4.8 3.9-7.9 8.8-7.7 18.7.8 35.5 6.8 50.9 17.3 2.5 1.7 5.3 3.1 8.1 4.2 1.5.6 4 1.2 4.9.5 1-.9 1.3-3.3 1-5-1.3-6.8-2.9-13.5-4.4-20.3-1.4-6.6-2.8-13.3-4.2-20-1.3-6.5-2.3-13-3.9-19.4-2.5-9.9-4.2-20-3.3-30.2.5-5 1.8-10 3.9-14.6 2.3-5.1 7.9-4 11.6.1 5.7 6.8 7 14.8 10.4 22.4zM217 818c.6-.3 1.1-.6 1.7-1-1-5.5-1.8-11-3.2-16.4-2.3-9.1-5.2-18.1-7.6-27.2-1.6-6.2-3.3-12.4-4.1-18.7-.5-3.7-.4-8.1 1.1-11.4 2.6-5.9 6.1-11.5 10-16.7 4.9-6.6 10.8-12.4 15.8-18.9 4.8-6.3 9.2-13 13.6-19.6 5.9-8.9 11.9-17.9 17.4-27.1 1.6-2.6 2.2-6 2.5-9.1.3-2.9-1.6-3.7-4-2-2 1.5-4.1 3-5.6 4.9-2.8 3.7-5 7.7-7.6 11.5-7.8 11.4-15.7 22.7-23.5 34.1-3.9 5.6-7.6 11.3-11.8 16.6-2.9 3.6-7 3.3-9-.3-1.3-2.3-2.3-4.8-2.6-7.4-1.1-8.1-1.6-16.2-2.8-24.2-2-12.3-4.4-24.6-6.7-36.8-.8-4.5-1.5-9-3.1-13.3-2.6-7.1-4.5-14.6-10-20.4-2.1-2.2-3.9-2.6-5.5.1-.6 1.1-.8 2.4-1.1 3.6-2.2 7.5-.9 15 .4 22.4 1.8 10.5 4.2 21 6.3 31.5 1.8 9.4 3.5 18.9 5.3 28.4 1.1 5.9 2.7 11.8 3.2 17.7.5 6.3-2.3 10.2-8.6 7.3-4.6-2.2-9.5-4-13.9-6.6-14.7-8.6-30.2-14.7-47.5-15.2-3.4-.1-5.4 2.8-3.2 5.3 1.8 2.1 4.4 4.1 7.1 4.8 9.9 2.8 20 4.9 29.9 7.5 7.2 1.9 14.5 3.8 21.5 6.4 6.5 2.3 12.7 5.5 19 8.3.7.3 1.4 1 1.7 1.6 1.7 3.9 3.4 7.9 5 11.9 5 12.4 4 25.9 7.1 38.6 2.1 8.6 5.3 17 8.4 25.4.6 1.6 2.9 2.9 4.4 4.4z"/><path class="st1" d="M217 818c-1.5-1.5-3.8-2.7-4.5-4.5-3.1-8.3-6.2-16.7-8.4-25.4-3.1-12.7-2.1-26.2-7.1-38.6-1.6-4-3.3-8-5-11.9-.3-.7-1-1.3-1.7-1.6-6.3-2.8-12.5-6-19-8.3-7-2.5-14.3-4.5-21.5-6.4-10-2.6-20-4.7-29.9-7.5-2.6-.7-5.3-2.7-7.1-4.8-2.2-2.6-.2-5.5 3.2-5.3 17.3.6 32.7 6.6 47.5 15.2 4.4 2.6 9.2 4.4 13.9 6.6 6.2 2.9 9-1 8.6-7.3-.4-5.9-2.1-11.8-3.2-17.7-1.8-9.5-3.5-18.9-5.3-28.4-2.1-10.5-4.5-20.9-6.3-31.5-1.3-7.4-2.6-14.9-.4-22.4.3-1.2.5-2.5 1.1-3.6 1.6-2.8 3.3-2.4 5.5-.1 5.5 5.8 7.4 13.3 10 20.4 1.6 4.2 2.2 8.8 3.1 13.3 2.3 12.3 4.7 24.5 6.7 36.8 1.3 8 1.7 16.2 2.8 24.2.4 2.5 1.4 5.1 2.6 7.4 2 3.6 6.1 3.9 9 .3 4.3-5.3 8-11 11.8-16.6 7.9-11.3 15.7-22.7 23.5-34.1 2.6-3.8 4.9-7.8 7.6-11.5 1.5-1.9 3.6-3.5 5.6-4.9 2.4-1.8 4.3-.9 4 2-.3 3.1-1 6.5-2.5 9.1-5.6 9.2-11.5 18.1-17.4 27.1-4.4 6.6-8.7 13.3-13.6 19.6-5 6.5-10.9 12.3-15.8 18.9-3.9 5.2-7.4 10.8-10 16.7-1.5 3.3-1.6 7.7-1.1 11.4.8 6.3 2.5 12.5 4.1 18.7 2.4 9.1 5.2 18.1 7.6 27.2 1.4 5.4 2.1 11 3.2 16.4-.4.4-1 .7-1.6 1.1z"/></g><g id="EmpbvG.tif_2_"><path class="st0" d="M167.2 210.5c-3.4-7.6-4.7-15.6-10.5-22.1-3.7-4.2-9.3-5.2-11.6-.1-2 4.5-3.4 9.6-3.9 14.6-.9 10.2.8 20.3 3.3 30.2 1.6 6.4 2.6 13 3.9 19.4 1.3 6.7 2.7 13.3 4.2 20 1.5 6.8 3.1 13.5 4.4 20.3.3 1.6.1 4.1-1 5-.9.8-3.4.2-4.9-.5-2.8-1.2-5.6-2.5-8.1-4.2-15.4-10.5-32.2-16.6-50.9-17.3-5-.2-8 2.9-8.8 7.7-.9 5.4 1.7 9.1 6 10.6 10.2 3.6 20.5 7.4 31 9.1 15.6 2.5 29.5 8.3 42.6 16.7.4.3.8.7 1 1.2 5.3 8.6 8.1 18.3 8.6 28 .8 13.7 4.4 26.5 8.6 39.3 1.6 4.9 4.1 9.1 9 11.4 4.7 2.2 8.3.3 8.3-4.8-.1-4.6-.4-9.2-1.5-13.6-3.7-15.6-7.9-31.1-11.6-46.7-.9-3.8-1.8-8.5-.4-11.9 2.4-5.8 6.1-11.2 10-16.3 7.3-9.7 15.3-18.8 22.4-28.6 7-9.6 13.5-19.5 19.6-29.6 3.2-5.3 5.4-11.2 7.2-17.1.9-3.1 1-7.4-2.6-9.4-4.1-2.3-7 1-10.1 3-.2.1-.4.4-.6.6-6.2 8.3-12.8 16.4-18.7 25-8.1 11.8-15.6 24-23.5 36-.7 1.1-1.7 2.1-2.7 3.1-3.1 2.9-5.2 2.2-6-2.1-1.2-7-2-14.1-3.2-21.1-3.1-18.8-6.3-37.3-9.5-55.8z"/><path d="M167.2 210.5c3.2 18.5 6.5 37 9.6 55.5 1.2 7 2 14.1 3.2 21.1.7 4.3 2.9 5 6 2.1 1-.9 2-1.9 2.7-3.1 7.8-12 15.4-24.2 23.5-36 5.9-8.6 12.4-16.7 18.7-25 .2-.2.3-.5.6-.6 3.1-1.9 6.1-5.3 10.1-3 3.6 2.1 3.5 6.3 2.6 9.4-1.8 5.9-4.1 11.8-7.2 17.1-6.1 10.1-12.6 20.1-19.6 29.6-7.1 9.8-15.1 18.9-22.4 28.6-3.8 5.1-7.6 10.5-10 16.3-1.4 3.4-.5 8 .4 11.9 3.7 15.6 7.9 31.1 11.6 46.7 1 4.4 1.4 9.1 1.5 13.6.1 5.1-3.6 7-8.3 4.8-4.9-2.3-7.4-6.5-9-11.4-4.2-12.8-7.9-25.6-8.6-39.3-.5-9.7-3.3-19.4-8.6-28-.3-.4-.6-.9-1-1.2-13.1-8.4-27-14.3-42.6-16.7-10.6-1.7-20.9-5.5-31-9.1-4.2-1.5-6.9-5.1-6-10.6.8-4.8 3.9-7.9 8.8-7.7 18.7.8 35.5 6.8 50.9 17.3 2.5 1.7 5.3 3.1 8.1 4.2 1.5.6 4 1.2 4.9.5 1-.9 1.3-3.3 1-5-1.3-6.8-2.9-13.5-4.4-20.3-1.4-6.6-2.8-13.3-4.2-20-1.3-6.5-2.3-13-3.9-19.4-2.5-9.9-4.2-20-3.3-30.2.5-5 1.8-10 3.9-14.6 2.3-5.1 7.9-4 11.6.1 5.6 6.8 6.9 14.8 10.4 22.4zm25.4 184.9c.6-.3 1.1-.6 1.7-1-1-5.5-1.8-11-3.2-16.4-2.3-9.1-5.2-18.1-7.6-27.2-1.6-6.2-3.3-12.4-4.1-18.7-.5-3.7-.4-8.1 1.1-11.4 2.6-5.9 6.1-11.5 10-16.7 4.9-6.6 10.8-12.4 15.8-18.9 4.8-6.3 9.2-13 13.6-19.6 5.9-8.9 11.9-17.9 17.4-27.1 1.6-2.6 2.2-6 2.5-9.1.3-2.9-1.6-3.7-4-2-2 1.5-4.1 3-5.6 4.9-2.8 3.7-5 7.7-7.6 11.5-7.8 11.4-15.7 22.7-23.5 34.1-3.9 5.6-7.6 11.3-11.8 16.6-2.9 3.6-7 3.3-9-.3-1.3-2.3-2.3-4.8-2.6-7.4-1.1-8.1-1.6-16.2-2.8-24.2-2-12.3-4.4-24.6-6.7-36.8-.8-4.5-1.5-9-3.1-13.3-2.6-7.1-4.5-14.6-10-20.4-2.1-2.2-3.9-2.6-5.5.1-.6 1.1-.8 2.4-1.1 3.6-2.2 7.5-.9 15 .4 22.4 1.8 10.5 4.2 21 6.3 31.5 1.8 9.4 3.5 18.9 5.3 28.4 1.1 5.9 2.7 11.8 3.2 17.7.5 6.3-2.3 10.2-8.6 7.3-4.6-2.2-9.5-4-13.9-6.6-14.7-8.6-30.2-14.7-47.5-15.2-3.4-.1-5.4 2.8-3.2 5.3 1.8 2.1 4.4 4.1 7.1 4.8 9.9 2.8 20 4.9 29.9 7.5 7.2 1.9 14.5 3.8 21.5 6.4 6.5 2.3 12.7 5.5 19 8.3.7.3 1.4 1 1.7 1.6 1.7 3.9 3.4 7.9 5 11.9 5 12.4 4 25.9 7.1 38.6 2.1 8.6 5.3 17 8.4 25.4.5 1.6 2.8 2.9 4.4 4.4z"/><path class="st1" d="M192.6 395.4c-1.5-1.5-3.8-2.7-4.5-4.5-3.1-8.3-6.2-16.7-8.4-25.4-3.1-12.7-2.1-26.2-7.1-38.6-1.6-4-3.3-8-5-11.9-.3-.7-1-1.3-1.7-1.6-6.3-2.8-12.5-6-19-8.3-7-2.5-14.3-4.5-21.5-6.4-10-2.6-20-4.7-29.9-7.5-2.6-.7-5.3-2.7-7.1-4.8-2.2-2.6-.2-5.5 3.2-5.3 17.3.6 32.7 6.6 47.5 15.2 4.4 2.6 9.2 4.4 13.9 6.6 6.2 2.9 9-1 8.6-7.3-.4-5.9-2.1-11.8-3.2-17.7-1.8-9.5-3.5-18.9-5.3-28.4-2.1-10.5-4.5-20.9-6.3-31.5-1.3-7.4-2.6-14.9-.4-22.4.3-1.2.5-2.5 1.1-3.6 1.6-2.8 3.3-2.4 5.5-.1 5.5 5.8 7.4 13.3 10 20.4 1.6 4.2 2.2 8.8 3.1 13.3 2.3 12.3 4.7 24.5 6.7 36.8 1.3 8 1.7 16.2 2.8 24.2.4 2.5 1.4 5.1 2.6 7.4 2 3.6 6.1 3.9 9 .3 4.3-5.3 8-11 11.8-16.6 7.9-11.3 15.7-22.7 23.5-34.1 2.6-3.8 4.9-7.8 7.6-11.5 1.5-1.9 3.6-3.5 5.6-4.9 2.4-1.8 4.3-.9 4 2-.3 3.1-1 6.5-2.5 9.1-5.6 9.2-11.5 18.1-17.4 27.1-4.4 6.6-8.7 13.3-13.6 19.6-5 6.5-10.9 12.3-15.8 18.9-3.9 5.2-7.4 10.8-10 16.7-1.5 3.3-1.6 7.7-1.1 11.4.8 6.3 2.5 12.5 4.1 18.7 2.4 9.1 5.2 18.1 7.6 27.2 1.4 5.4 2.1 11 3.2 16.4-.5.4-1.1.7-1.6 1.1z"/></g><g id="EmpbvG.tif_1_"><path d="M404.6 441.3c-5.5 18-11 35.9-16.6 53.9-2.1 6.8-4.6 13.4-6.7 20.2-1.3 4.2.3 5.8 4.4 4.6 1.3-.4 2.6-.8 3.8-1.5 12.4-7.1 24.7-14.6 37.2-21.5 9.1-5 18.6-9.3 28-13.8.3-.1.5-.3.8-.3 3.6-.3 7.8-2 10.4 1.9 2.3 3.5.3 7.2-2 9.6-4.3 4.5-9 8.7-14.2 12-10 6.3-20.4 12.1-30.9 17.5-10.8 5.5-22 10-32.9 15.3-5.7 2.8-11.5 5.9-16.3 10-2.8 2.4-4.1 6.9-5 10.8-3.8 15.6-7.1 31.3-10.9 46.9-1.1 4.4-2.9 8.7-4.9 12.8-2.3 4.6-6.4 4.6-9.5.5-3.3-4.3-3.6-9.2-2.9-14.2 2.1-13.3 4.6-26.4 10.1-39 3.9-8.9 5.9-18.8 5-28.9 0-.5-.1-1.1-.4-1.5-7.8-13.4-17.6-24.9-30.4-34.2-8.7-6.3-16.1-14.4-23.5-22.2-3.1-3.3-3.8-7.7-.5-12.1 2.9-3.9 7-5.3 11.4-2.9 16.3 9.1 28.6 22.2 37.5 38.5 1.5 2.7 3.3 5.2 5.3 7.5 1.1 1.2 3 2.9 4.2 2.6 1.3-.3 2.7-2.4 3.1-4 1.9-6.7 3.5-13.4 5.3-20.1 1.7-6.6 3.5-13.1 5.3-19.7 1.8-6.4 3.9-12.7 5.4-19.1 2.3-10 5.3-19.7 10.8-28.4 2.7-4.2 6.2-8.1 10-11.2 4.3-3.5 8.9 0 10.3 5.4 2.1 8.6-.3 16.4-.7 24.6zm-61.1 176.4c.6 0 1.3-.1 1.9-.1 1.6-5.4 3.4-10.7 4.6-16.1 2.1-9.2 3.6-18.5 5.6-27.7 1.3-6.2 2.7-12.5 4.8-18.5 1.2-3.6 3.3-7.4 6.1-9.7 5-4.1 10.7-7.5 16.5-10.4 7.3-3.6 15.2-6.2 22.6-9.7 7.2-3.4 14.1-7.4 21-11.3 9.3-5.3 18.7-10.6 27.8-16.2 2.6-1.6 4.7-4.3 6.4-7 1.6-2.4.2-4.1-2.7-3.6-2.4.4-5 .8-7.2 1.9-4.1 2-8 4.6-12 6.8-12.1 6.6-24.3 13.2-36.4 19.7-6 3.2-11.9 6.7-18.1 9.4-4.2 1.9-7.7-.2-7.9-4.4-.1-2.6.2-5.4 1-7.8 2.7-7.7 6-15.2 8.5-22.9 3.8-11.9 7.2-23.9 10.7-35.9 1.3-4.4 2.8-8.7 3.3-13.2.9-7.5 2.6-15 .3-22.7-.9-3-2.3-4.1-4.9-2.3-1 .7-1.8 1.7-2.6 2.7-5.3 5.7-7.6 13-9.8 20.1-3.2 10.2-5.8 20.6-8.7 30.9-2.6 9.2-5.4 18.5-8.1 27.7-1.7 5.8-2.9 11.7-5.2 17.2-2.4 5.8-6.7 8-10.9 2.6-3.2-4-6.6-7.9-9.4-12.2-9.2-14.4-20.3-26.8-35.4-35.1-3-1.7-6 0-5.3 3.3.6 2.7 2.1 5.6 4.1 7.5 7.6 7 15.6 13.4 23.3 20.2 5.6 5 11.2 10 16.3 15.4 4.7 5 8.8 10.6 13.1 16 .5.6.8 1.5.8 2.2-.2 4.3-.6 8.6-.9 12.9-1.1 13.3-8.2 24.9-11.1 37.6-2 8.6-3 17.6-4 26.4-.3 2.1 1.2 4.2 1.9 6.3z"/><path class="st1" d="M343.5 617.7c-.7-2-2.2-4.2-2-6.1 1-8.8 2-17.7 4-26.4 3-12.7 10-24.3 11.1-37.6.4-4.3.7-8.6.9-12.9 0-.7-.3-1.6-.8-2.2-4.3-5.4-8.4-11-13.1-16-5.1-5.4-10.7-10.5-16.3-15.4-7.7-6.8-15.7-13.3-23.3-20.2-2-1.8-3.5-4.8-4.1-7.5-.8-3.3 2.3-5 5.3-3.3 15.1 8.3 26.2 20.7 35.4 35.1 2.7 4.3 6.2 8.1 9.4 12.2 4.2 5.4 8.5 3.2 10.9-2.6 2.3-5.5 3.5-11.5 5.2-17.2 2.7-9.2 5.5-18.4 8.1-27.7 2.9-10.3 5.5-20.7 8.7-30.9 2.2-7.1 4.5-14.4 9.8-20.1.9-.9 1.6-2 2.6-2.7 2.7-1.8 4-.6 4.9 2.3 2.3 7.7.6 15.2-.3 22.7-.5 4.5-2 8.9-3.3 13.2-3.5 12-6.9 24-10.7 35.9-2.5 7.7-5.8 15.2-8.5 22.9-.8 2.4-1.1 5.2-1 7.8.2 4.1 3.7 6.3 7.9 4.4 6.2-2.8 12.1-6.2 18.1-9.4 12.2-6.5 24.3-13.1 36.4-19.7 4-2.2 7.9-4.8 12-6.8 2.2-1.1 4.8-1.5 7.2-1.9 2.9-.5 4.3 1.1 2.7 3.6-1.7 2.6-3.8 5.4-6.4 7-9.1 5.7-18.5 10.9-27.8 16.2-6.9 3.9-13.8 7.9-21 11.3-7.4 3.5-15.3 6-22.6 9.7-5.8 2.9-11.5 6.3-16.5 10.4-2.8 2.3-4.9 6.1-6.1 9.7-2.1 6-3.5 12.3-4.8 18.5-2 9.2-3.5 18.5-5.6 27.7-1.2 5.4-3.1 10.7-4.6 16.1-.6-.2-1.2-.2-1.8-.1z"/></g><g id="EmpbvG.tif_3_"><path d="M449.9 50.3c-5.5 18-11 35.9-16.6 53.9-2.1 6.8-4.6 13.4-6.7 20.2-1.3 4.2.3 5.8 4.4 4.6 1.3-.4 2.6-.8 3.8-1.5 12.4-7.1 24.7-14.6 37.2-21.5 9.1-5 18.6-9.3 28-13.8.3-.1.5-.3.8-.3 3.6-.3 7.8-2 10.4 1.9 2.3 3.5.3 7.2-2 9.6-4.3 4.5-9 8.7-14.2 12-10 6.3-20.4 12.1-30.9 17.5-10.8 5.5-22 10-32.9 15.3-5.7 2.8-11.5 5.9-16.3 10-2.8 2.4-4.1 6.9-5 10.8-3.8 15.6-7.1 31.3-10.9 46.9-1.1 4.4-2.9 8.7-4.9 12.8-2.3 4.6-6.4 4.6-9.5.5-3.3-4.3-3.6-9.2-2.9-14.2 2.1-13.3 4.6-26.4 10.1-39 3.9-8.9 5.9-18.8 5-28.9 0-.5-.1-1.1-.4-1.5-7.8-13.4-17.6-24.9-30.4-34.2-8.7-6.3-16.1-14.4-23.5-22.2-3.1-3.3-3.8-7.7-.5-12.1 2.9-3.9 7-5.3 11.4-2.9 16.3 9.1 28.6 22.2 37.5 38.5 1.5 2.7 3.3 5.2 5.3 7.5 1.1 1.2 3 2.9 4.2 2.6 1.3-.3 2.7-2.4 3.1-4 1.9-6.7 3.5-13.4 5.3-20.1 1.7-6.6 3.5-13.1 5.3-19.7 1.8-6.4 3.9-12.7 5.4-19.1 2.3-10 5.3-19.7 10.8-28.4 2.7-4.2 6.2-8.1 10-11.2 4.3-3.5 8.9 0 10.3 5.4 2.1 8.6-.3 16.3-.7 24.6zm-61.2 176.3c.6 0 1.3-.1 1.9-.1 1.6-5.4 3.4-10.7 4.6-16.1 2.1-9.2 3.6-18.5 5.6-27.7 1.3-6.2 2.7-12.5 4.8-18.5 1.2-3.6 3.3-7.4 6.1-9.7 5-4.1 10.7-7.5 16.5-10.4 7.3-3.6 15.2-6.2 22.6-9.7 7.2-3.4 14.1-7.4 21-11.3 9.3-5.3 18.7-10.6 27.8-16.2 2.6-1.6 4.7-4.3 6.4-7 1.6-2.4.2-4.1-2.7-3.6-2.4.4-5 .8-7.2 1.9-4.1 2-8 4.6-12 6.8-12.1 6.6-24.3 13.2-36.4 19.7-6 3.2-11.9 6.7-18.1 9.4-4.2 1.9-7.7-.2-7.9-4.4-.1-2.6.2-5.4 1-7.8 2.7-7.7 6-15.2 8.5-22.9 3.8-11.9 7.2-23.9 10.7-35.9 1.3-4.4 2.8-8.7 3.3-13.2.9-7.5 2.6-15 .3-22.7-.9-3-2.3-4.1-4.9-2.3-1 .7-1.8 1.7-2.6 2.7-5.3 5.7-7.6 13-9.8 20.1-3.2 10.2-5.8 20.6-8.7 30.9-2.6 9.2-5.4 18.5-8.1 27.7-1.7 5.8-2.9 11.7-5.2 17.2-2.4 5.8-6.7 8-10.9 2.6-3.2-4-6.6-7.9-9.4-12.2-9.2-14.4-20.3-26.8-35.4-35.1-3-1.7-6 0-5.3 3.3.6 2.7 2.1 5.6 4.1 7.5 7.6 7 15.6 13.4 23.3 20.2 5.6 5 11.2 10 16.3 15.4 4.7 5 8.8 10.6 13.1 16 .5.6.8 1.5.8 2.2-.2 4.3-.6 8.6-.9 12.9-1.1 13.3-8.2 24.9-11.1 37.6-2 8.6-3 17.6-4 26.4-.2 2.2 1.2 4.3 1.9 6.3z"/><path class="st1" d="M388.7 226.6c-.7-2-2.2-4.2-2-6.1 1-8.8 2-17.7 4-26.4 3-12.7 10-24.3 11.1-37.6.4-4.3.7-8.6.9-12.9 0-.7-.3-1.6-.8-2.2-4.3-5.4-8.4-11-13.1-16-5.1-5.4-10.7-10.5-16.3-15.4-7.7-6.8-15.7-13.3-23.3-20.2-2-1.8-3.5-4.8-4.1-7.5-.8-3.3 2.3-5 5.3-3.3 15.1 8.3 26.2 20.7 35.4 35.1 2.7 4.3 6.2 8.1 9.4 12.2 4.2 5.4 8.5 3.2 10.9-2.6 2.3-5.5 3.5-11.5 5.2-17.2 2.7-9.2 5.5-18.4 8.1-27.7 2.9-10.3 5.5-20.7 8.7-30.9 2.2-7.1 4.5-14.4 9.8-20.1.9-.9 1.6-2 2.6-2.7 2.7-1.8 4-.6 4.9 2.3 2.3 7.7.6 15.2-.3 22.7-.5 4.5-2 8.9-3.3 13.2-3.5 12-6.9 24-10.7 35.9-2.5 7.7-5.8 15.2-8.5 22.9-.8 2.4-1.1 5.2-1 7.8.2 4.1 3.7 6.3 7.9 4.4 6.2-2.8 12.1-6.2 18.1-9.4 12.2-6.5 24.3-13.1 36.4-19.7 4-2.2 7.9-4.8 12-6.8 2.2-1.1 4.8-1.5 7.2-1.9 2.9-.5 4.3 1.1 2.7 3.6-1.7 2.6-3.8 5.4-6.4 7-9.1 5.7-18.5 10.9-27.8 16.2-6.9 3.9-13.8 7.9-21 11.3-7.4 3.5-15.3 6-22.6 9.7-5.8 2.9-11.5 6.3-16.5 10.4-2.8 2.3-4.9 6.1-6.1 9.7-2.1 6-3.5 12.3-4.8 18.5-2 9.2-3.5 18.5-5.6 27.7-1.2 5.4-3.1 10.7-4.6 16.1-.5-.1-1.1-.1-1.8-.1z"/></g></svg>