<?xml version="1.0" encoding="utf-8"?>
<!-- Generator: Adobe Illustrator 19.2.1, SVG Export Plug-In . SVG Version: 6.00 Build 0)  -->
<!DOCTYPE svg PUBLIC "-//W3C//DTD SVG 1.1//EN" "http://www.w3.org/Graphics/SVG/1.1/DTD/svg11.dtd">
<svg version="1.1" id="Layer_1" xmlns="http://www.w3.org/2000/svg" xmlns:xlink="http://www.w3.org/1999/xlink" x="0px" y="0px"
	 viewBox="0 0 571.6 146.8" style="enable-background:new 0 0 571.6 146.8;" xml:space="preserve">
<style type="text/css">
	.st0{fill:#FFFFFF;}
	.st1{fill:#93C13E;}
	.st2{fill:#F7B131;}
	.st3{fill:#F7B131;stroke:#FFFFFF;stroke-width:0.4647;stroke-miterlimit:10;}
	.st4{fill:#006C3D;}
	.st5{fill:#1D1D1B;}
	.st6{fill:#90D6E3;}
	.st7{fill:#7E4F23;}
	.st8{fill:#F9D74F;}
	.st9{fill:#FEC34A;}
	.st10{fill:#F7DAAE;}
	.st11{fill:#F5A2C6;}
</style>
<rect x="-26.2" y="-32.8" class="st0" width="615.5" height="147.3"/>
<g>
	<g>
		<path class="st1" d="M73,106.8c0.8-6.1-1.1-12.8-2-18.9c-1.1-7.2-2.3-14.8-1.5-22.1C71.1,52,81,41.1,85.5,28.4
			c0.6-1.6-1.6-2.5-2.6-1.5c-5.5,5-9,11.3-12.4,17.9c-3.1,6.1-6.1,12.4-6.9,19.2c-0.9,7.3,0.2,14.6,1.6,21.7
			c1.4,6.9,2.8,15.6,7.2,21.3C72.6,107.2,72.9,107.1,73,106.8L73,106.8z"/>
	</g>
</g>
<path class="st1" d="M33.4,105.1c-0.1-1.7-4.2-93.6-4.2-93.6S32.5,38.4,39,74s10.1,22.9,5,33.2S31.7,108,31.7,108L33.4,105.1z"/>
<path class="st1" d="M48.6,104.8c0-2.1,2.9-98,2.9-98l10.5,98H48.6z"/>
<polygon class="st1" points="153.2,101.3 169.4,17.3 161.5,104.8 "/>
<path class="st1" d="M134.3,27.9c0,0,35.5,72.9,21.8,76.7C142.3,108.5,134.3,27.9,134.3,27.9z"/>
<path class="st1" d="M274.2,104.8C300.5,1.8,303.8,1.9,303.8,1.9l-19.6,100.4L274.2,104.8z"/>
<g>
	<g>
		<path class="st1" d="M10.9,104.3c1.5-8.6,4.7-16.1,8.8-23.7c3.8-7,8.7-13.5,12.4-20.6c0.3-0.6-0.4-1.5-1-1
			c-6.8,4.7-10.7,13.8-14.5,20.9c-4,7.5-7.8,15.6-6.8,24.3C9.9,104.7,10.8,104.9,10.9,104.3L10.9,104.3z"/>
	</g>
</g>
<g>
	<g>
		<path class="st1" d="M10.3,111.2c0.2-10-1.7-20.2-2.5-30.2c-0.4-4.9-0.7-9.8-0.9-14.7c-0.2-4.7-0.2-9.6-1.9-14.1
			c-0.4-1.1-1.8-1.1-2.2,0c-3.2,8.9-0.9,20.5,0,29.7c0.9,9.7,1.8,20.3,5.2,29.5C8.4,112.7,10.3,112.6,10.3,111.2L10.3,111.2z"/>
	</g>
</g>
<g>
	<g>
		<path class="st1" d="M58.1,106.1C43.4,79.7,43.7,47.5,38.7,18.4c-0.1-0.6-1.1-0.5-1.1,0.1c0,15.9,2.4,32.1,5.1,47.8
			c2.4,14.3,6.1,28.2,13.5,40.8C56.9,108.3,58.7,107.3,58.1,106.1L58.1,106.1z"/>
	</g>
</g>
<g>
	<g>
		<path class="st1" d="M99,106.1c4.9-26.8,16.8-51.3,33-73.1c0.4-0.5-0.4-1.1-0.8-0.6c-18.7,20.2-29.8,46.3-33.5,73.4
			C97.5,106.6,98.9,107,99,106.1L99,106.1z"/>
	</g>
</g>
<g>
	<g>
		<path class="st1" d="M122.8,105.9c-1.3-14.6-0.5-29.6,1-44.1c0.8-7.7,1.9-15.3,3.4-22.8c1.4-7.4,3.7-14.7,4.7-22.1
			c0.1-0.7-0.9-1.3-1.3-0.5C124.5,29.2,122.4,45,121,59c-1.7,15.8-1,31.1,0.4,46.9C121.4,106.8,122.8,106.8,122.8,105.9L122.8,105.9
			z"/>
	</g>
</g>
<g>
	<g>
		<path class="st1" d="M107.5,108.5C101,96.5,96.8,83,97.2,69.2c0.2-6.7,1.5-13.3,3.7-19.6c2.1-6.1,6.5-11.8,8-18
			c0.3-1.3-1.1-2.5-2.3-1.7c-5.4,3.4-8.5,10.9-10.7,16.6c-2.8,7.2-4.2,15-4.4,22.7c-0.3,14.9,4.5,29.4,14.2,40.8
			C106.5,111.1,108.1,109.7,107.5,108.5L107.5,108.5z"/>
	</g>
</g>
<g>
	<g>
		<path class="st1" d="M68.4,108.1c-2.2-1.3,0.2-11.1,0.6-13.2c0.6-3.6,1.3-7.1,2.2-10.7c2.1-7.9,5-15.4,8.6-22.7
			c7.2-14.6,17.8-26,28.3-38.2c0.8-1-0.2-2.5-1.4-1.8c-15.4,9-26.7,26.1-33.3,42.3c-3.5,8.7-6,17.7-7.4,27
			c-0.6,4.2-3.7,16.6,1.8,18.4C68.7,109.6,69.1,108.5,68.4,108.1L68.4,108.1z"/>
	</g>
</g>
<g>
	<g>
		<path class="st1" d="M178.5,106.9c-0.3-12.1,1.9-23.5,4.4-35.2c0.1-0.5-0.7-0.9-0.9-0.4c-4.7,11.1-6,23.6-5.7,35.6
			C176.4,108.3,178.5,108.3,178.5,106.9L178.5,106.9z"/>
	</g>
</g>
<g>
	<g>
		<path class="st1" d="M206.6,102.9c1.1-5.7,1.7-11.4,3.1-17c1.3-5.6,3.3-11.1,4.6-16.8c0.2-0.8-0.9-1.3-1.4-0.6
			c-5.9,9.5-8.5,23.1-7.9,34.2C204.9,103.6,206.4,103.9,206.6,102.9L206.6,102.9z"/>
	</g>
</g>
<g>
	<g>
		<path class="st1" d="M217,102.2c1.3-10.7,4.5-20.8,6.8-31.3c0.2-0.7-0.9-1.2-1.2-0.5c-4.9,9.8-6.5,21-7.2,31.8
			C215.3,103.3,216.9,103.3,217,102.2L217,102.2z"/>
	</g>
</g>
<g>
	<g>
		<path class="st1" d="M228,103c2.5-10,6.2-19.8,8.1-29.8c0.2-0.9-1.1-1.5-1.5-0.6c-4.4,9.3-6.4,19.9-8.6,29.9
			C225.7,103.7,227.7,104.3,228,103L228,103z"/>
	</g>
</g>
<g>
	<g>
		<path class="st1" d="M179.5,111.4c-3.6-14.2-3.6-29.3-6.4-43.7c-0.1-0.7-1.2-0.5-1.2,0.2c0.3,14.4,0.8,30.4,5.5,44.1
			C177.8,113.3,179.8,112.8,179.5,111.4L179.5,111.4z"/>
	</g>
</g>
<g>
	<g>
		<path class="st1" d="M241.9,125.2c3.1-22,10.1-43.1,21-62.5c0.3-0.5-0.4-0.9-0.7-0.4c-12.8,18.5-20.1,40.3-20.8,62.8
			C241.4,125.4,241.9,125.5,241.9,125.2L241.9,125.2z"/>
	</g>
</g>
<g>
	<g>
		<path class="st1" d="M259.7,124.2c-0.5-23.9,2.1-47.4,5.4-71c0.1-0.4-0.5-0.6-0.6-0.2c-5.8,23.1-7.4,47.4-6.9,71.2
			C257.6,125.6,259.7,125.6,259.7,124.2L259.7,124.2z"/>
	</g>
</g>
<g>
	<g>
		<path class="st1" d="M276.6,107.7c0.1-16.5,1.5-33,1.7-49.5c0-0.7-1.1-0.9-1.2-0.2c-2.9,16.4-4.3,33-3.7,49.7
			C273.4,109.8,276.6,109.8,276.6,107.7L276.6,107.7z"/>
	</g>
</g>
<g>
	<g>
		<path class="st1" d="M340.6,117.3c-0.4-12.8,0.8-25.5,3.5-38c2.8-12.7,7.8-24.3,12.9-36.2c0.2-0.6-0.5-1-0.8-0.5
			c-14.3,21.3-19.6,49.4-18.8,74.7C337.4,119.3,340.7,119.3,340.6,117.3L340.6,117.3z"/>
	</g>
</g>
<path class="st1" d="M113.4,32.3c0,0,5.6,80.9-8.6,79.3C90.7,110.1,113.4,32.3,113.4,32.3z"/>
<path class="st1" d="M192.2,52.7c-0.4,0.6-4.5,23.5,1.4,37.7c5.9,14.2,10.7,13.7,10.7,13.7L192.2,52.7z"/>
<g>
	<g>
		<path class="st1" d="M463,104.2c2.9-4.5,3.3-10.4,4.7-15.4c1.7-6,3.6-11.9,5.3-18c0.2-0.6-0.7-1-1-0.4c-2.9,5.3-5,11-6.6,16.8
			c-1.4,5.3-3.6,11.4-2.9,16.9C462.6,104.4,462.9,104.5,463,104.2L463,104.2z"/>
	</g>
</g>
<g>
	<g>
		<path class="st1" d="M478.1,102.1c0.7-4.5,0.2-9,0.5-13.5c0.2-5.1,0.8-10.1,1.4-15.2c0.1-0.7-1-0.8-1.2-0.2
			c-2.8,8.7-4.5,20-1.6,28.9C477.3,102.5,478,102.6,478.1,102.1L478.1,102.1z"/>
	</g>
</g>
<g>
	<g>
		<path class="st1" d="M488.9,95.7c1.1-8.7,1-17.7,1.9-26.5c0-0.4-0.6-0.5-0.7-0.1c-2.1,8.5-3.5,18-1.9,26.7
			C488.2,96.2,488.8,96.1,488.9,95.7L488.9,95.7z"/>
	</g>
</g>
<g>
	<g>
		<path class="st1" d="M494.9,102c1.6-6.3,1.9-13,2.9-19.4c0.9-6.6,2.1-13.1,3.2-19.6c0.1-0.4-0.4-0.5-0.5-0.2
			c-4.2,11.8-7.8,26.6-5.9,39.2C494.5,102.2,494.9,102.2,494.9,102L494.9,102z"/>
	</g>
</g>
<g>
	<g>
		<path class="st1" d="M489.8,107.6c1.9-11.1,3.4-22.3,4.5-33.5c0.1-0.5-0.8-0.6-0.9-0.1c-2.9,10.9-4.4,22.3-4.3,33.6
			C489,107.9,489.7,108.1,489.8,107.6L489.8,107.6z"/>
	</g>
</g>
<g>
	<g>
		<path class="st1" d="M498.6,101.2c1.3-12.2,3.3-24.1,5.5-36.1c0.1-0.5-0.6-0.6-0.7-0.2c-4.2,11.5-6.1,24-5.9,36.3
			C497.6,101.9,498.6,101.9,498.6,101.2L498.6,101.2z"/>
	</g>
</g>
<g>
	<g>
		<path class="st1" d="M485,108.3c1.4-8.3,2-16.7,2.4-25.1c0-0.3-0.5-0.4-0.6-0.1c-1.3,8.3-2.3,16.7-2.5,25.1
			C484.4,108.6,484.9,108.7,485,108.3L485,108.3z"/>
	</g>
</g>
<g>
	<g>
		<path class="st1" d="M481.1,97.2c1.3-6.8,2-13.5,1.2-20.4c0-0.4-0.5-0.4-0.6,0c-0.3,6.7-0.7,13.4-1.9,20
			C479.7,97.7,480.9,98.1,481.1,97.2L481.1,97.2z"/>
	</g>
</g>
<g>
	<g>
		<path class="st1" d="M472.3,104c0.5-11.2,1.4-22.2,1.1-33.4c0-0.4-0.6-0.4-0.7,0c-1,11.2-0.7,22.3-0.9,33.4
			C471.8,104.3,472.3,104.3,472.3,104L472.3,104z"/>
	</g>
</g>
<g>
	<g>
		<path class="st1" d="M459.4,104.8c-0.5-11.4-0.5-22.8-0.7-34.2c0-0.4-0.6-0.4-0.6,0c-1,11.4-0.8,22.8,0.2,34.2
			C458.3,105.5,459.4,105.5,459.4,104.8L459.4,104.8z"/>
	</g>
</g>
<g>
	<g>
		<path class="st1" d="M448.2,108.3c-0.6-14.7-1.6-29.5-3.7-44c0-0.3-0.5-0.2-0.5,0.1c0,14.7,1.3,29.4,2.9,44
			C446.9,109.1,448.2,109.2,448.2,108.3L448.2,108.3z"/>
	</g>
</g>
<g>
	<g>
		<path class="st1" d="M432.2,100.7c-1.3-15.1,5.1-30.9-0.3-45.6c-0.1-0.3-0.6-0.2-0.5,0.1c2.7,15.2-2.8,30.4-0.5,45.6
			C431,101.6,432.3,101.4,432.2,100.7L432.2,100.7z"/>
	</g>
</g>
<g>
	<g>
		<path class="st1" d="M421.9,104.1c0.3-15.2,0.4-31.2-2.5-46.2c-0.1-0.4-0.7-0.3-0.7,0.1c-0.4,15.3,1.3,30.8,2.2,46.1
			C420.9,104.7,421.9,104.7,421.9,104.1L421.9,104.1z"/>
	</g>
</g>
<g>
	<g>
		<path class="st1" d="M407.6,104.1c0-12.6,1.4-25.1,2.5-37.6c0-0.5-0.7-0.6-0.9-0.1c-3,12.3-3.4,25.1-2.9,37.7
			C406.3,104.9,407.5,104.9,407.6,104.1L407.6,104.1z"/>
	</g>
</g>
<g>
	<g>
		<path class="st1" d="M392.4,106.7c-1.1-5,1.1-10.9,2.4-15.7c1.3-4.6,2.7-9.3,4.3-13.8c3.2-9.1,7.8-17.5,11.4-26.4
			c0.2-0.6-0.6-0.8-1-0.4c-6,8.4-9.9,19.1-13.1,28.9c-1.7,5.2-3.1,10.4-4.2,15.7c-0.8,4-1.9,8-0.8,12
			C391.7,107.6,392.6,107.3,392.4,106.7L392.4,106.7z"/>
	</g>
</g>
<g>
	<g>
		<path class="st1" d="M359.4,110.5c6.9-12.4,14.5-24,23.7-34.9c8.9-10.6,19.1-20,28-30.5c0.6-0.7-0.3-1.6-1-1
			c-11.3,9.2-21.6,20-30.9,31.2c-8.6,10.4-16.6,21.9-21,34.8C358,110.7,359.1,111.2,359.4,110.5L359.4,110.5z"/>
	</g>
</g>
<g>
	<g>
		<path class="st1" d="M539.7,106.3c1.7-11.4,2.3-22.8,1.4-34.4c0-0.3-0.5-0.3-0.5,0c0.1,11.3-0.7,22.7-2.6,33.9
			C537.8,107,539.5,107.5,539.7,106.3L539.7,106.3z"/>
	</g>
</g>
<g>
	<g>
		<path class="st1" d="M528.8,102.9c2.5-15.8,4.5-31.6,6-47.6c0-0.4-0.6-0.4-0.6-0.1c-2.8,15.8-5.2,31.5-7.1,47.4
			C527,103.6,528.6,103.8,528.8,102.9L528.8,102.9z"/>
	</g>
</g>
<g>
	<g>
		<path class="st1" d="M515.7,101.4c1.7-10.4,4.4-20.5,7.2-30.6c0.1-0.4-0.5-0.6-0.6-0.2c-3.7,9.8-6,20.1-7.6,30.5
			C514.6,101.7,515.6,102,515.7,101.4L515.7,101.4z"/>
	</g>
</g>
<path class="st1" d="M371.8,46.1c0,0,0.3,48.2-9,58s-4.6-7.9-4.6-7.9L371.8,46.1z"/>
<path class="st1" d="M427.3,79.1c0,0,0.7,13.8-2.2,16.4s-1.6-2.3-1.6-2.3L427.3,79.1z"/>
<path class="st1" d="M401.9,80c0,0,0.7,13.8-2.2,16.4c-2.9,2.7-1.6-2.3-1.6-2.3L401.9,80z"/>
<path class="st1" d="M379.8,80c0,0-0.7,13.8,2.2,16.4s1.6-2.3,1.6-2.3L379.8,80z"/>
<path class="st1" d="M330.3,104.8c-0.5-1.6,4.8-53.4,4.8-53.4v55.2L330.3,104.8z"/>
<path class="st1" d="M296.9,104.1c-0.3-0.9,3.7-29.4,3.7-29.4l5.6,32.9L296.9,104.1z"/>
<path class="st1" d="M287.7,101c0.4-3.5,13.8-42.3,13.8-42.3l-10.2,45.7L287.7,101z"/>
<g>
	<g>
		<path class="st2" d="M210.9,123.7c-1.7-15.6,3.8-31.2,10.5-45.1c6.3-13.1,14.7-25,25.6-34.6c0.3-0.3-0.2-0.8-0.5-0.5
			c-11.3,10.1-20,22.5-26.4,36.3c-6.3,13.7-11.6,28.7-9.9,44C210.2,124.1,210.9,124.1,210.9,123.7L210.9,123.7z"/>
	</g>
</g>
<path class="st3" d="M242.7,34.3c0,0,4.5,12.2-0.6,12.9S242.7,34.3,242.7,34.3z"/>
<path class="st3" d="M237.3,37c0,0,7,10.9,2.2,12.7C234.7,51.5,237.3,37,237.3,37z"/>
<path class="st3" d="M233.4,40.4c0,0,8.4,9.9,3.9,12.3C232.7,55,233.4,40.4,233.4,40.4z"/>
<path class="st3" d="M230.5,44.2c0,0,8.7,9.6,4.3,12.1C230.3,58.9,230.5,44.2,230.5,44.2z"/>
<path class="st3" d="M253.5,38.4c0,0-12.6,3-10.4,7.6C245.4,50.6,253.5,38.4,253.5,38.4z"/>
<path class="st3" d="M253.9,47.1c0,0-12.6-2.9-12.7,2.3S253.9,47.1,253.9,47.1z"/>
<path class="st3" d="M250.6,52c0,0-12.1-4.5-12.9,0.6C237,57.6,250.6,52,250.6,52z"/>
<path class="st3" d="M247.6,55.6c0,0-12.3-4-12.8,1.1C234.3,61.8,247.6,55.6,247.6,55.6z"/>
<g>
	<g>
		<path class="st2" d="M174.3,51.8c6.2,25,10.6,50.4,14.7,75.8c0,0.2,0.5,0.2,0.4-0.1c-2.3-25.8-7.7-51-14.8-75.9
			C174.6,51.5,174.3,51.6,174.3,51.8L174.3,51.8z"/>
	</g>
</g>
<g>
	<g>
		<path class="st2" d="M274.2,45.1c5.2,15,9.7,30.2,13.4,45.6c3.7,15.4,5.1,31.4,9,46.6c0.1,0.4,0.8,0.3,0.8-0.1
			c0.1-15.4-4.2-31.3-7.8-46.1c-3.9-15.7-8.8-31.1-14.7-46.2C274.6,44.6,274,44.8,274.2,45.1L274.2,45.1z"/>
	</g>
</g>
<g>
	<path class="st3" d="M198.2,34.7c0,0,11.9,5.2,8.9,9.3C204,48.2,198.2,34.7,198.2,34.7z"/>
	<path class="st3" d="M196.4,40.4c0,0,12.7,2.5,10.7,7.2S196.4,40.4,196.4,40.4z"/>
	<path class="st3" d="M196.1,45.6c0,0,12.9,0.8,11.5,5.7C206.2,56.2,196.1,45.6,196.1,45.6z"/>
	<path class="st3" d="M196.9,50.4c0,0,13,0.4,11.7,5.4C207.3,60.7,196.9,50.4,196.9,50.4z"/>
	<path class="st3" d="M208.6,29.7c0,0-6.6,11.2-1.7,12.8S208.6,29.7,208.6,29.7z"/>
	<path class="st3" d="M215.2,35.5c0,0-10.8,7.1-7.2,10.7C211.7,49.8,215.2,35.5,215.2,35.5z"/>
	<path class="st3" d="M216.4,41.3c0,0-11.7,5.6-8.5,9.7S216.4,41.3,216.4,41.3z"/>
	<path class="st3" d="M216.9,45.9c0,0-11.4,6.1-8.1,10S216.9,45.9,216.9,45.9z"/>
</g>
<g>
	<g>
		<path class="st2" d="M208,52.5c4.6,24.2,3,49,4.8,73.5c0,0.3,0.5,0.3,0.5,0c-1.8-24.5-0.2-49.3-4.8-73.6
			C208.4,52,208,52.2,208,52.5L208,52.5z"/>
	</g>
</g>
<g>
	<g>
		<path class="st2" d="M443.8,119.8c-1.7-15.6,3.8-31.2,10.5-45.1c6.3-13.1,14.7-25,25.6-34.6c0.3-0.3-0.2-0.8-0.5-0.5
			c-11.3,10.1-20,22.5-26.4,36.3c-6.3,13.7-11.6,28.7-9.9,44C443.2,120.3,443.9,120.3,443.8,119.8L443.8,119.8z"/>
	</g>
</g>
<path class="st3" d="M475.6,30.4c0,0,4.5,12.2-0.6,12.9S475.6,30.4,475.6,30.4z"/>
<path class="st3" d="M470.2,33.1c0,0,7,10.9,2.2,12.7C467.6,47.6,470.2,33.1,470.2,33.1z"/>
<path class="st3" d="M466.3,36.5c0,0,8.4,9.9,3.9,12.3C465.7,51.2,466.3,36.5,466.3,36.5z"/>
<path class="st3" d="M463.4,40.4c0,0,8.7,9.6,4.3,12.1C463.2,55.1,463.4,40.4,463.4,40.4z"/>
<path class="st3" d="M486.4,34.5c0,0-12.6,3-10.4,7.6C478.3,46.7,486.4,34.5,486.4,34.5z"/>
<path class="st3" d="M486.8,43.2c0,0-12.6-2.9-12.7,2.3C474.1,50.7,486.8,43.2,486.8,43.2z"/>
<path class="st3" d="M483.5,48.1c0,0-12.1-4.5-12.9,0.6S483.5,48.1,483.5,48.1z"/>
<path class="st3" d="M480.5,51.7c0,0-12.3-4-12.8,1.1S480.5,51.7,480.5,51.7z"/>
<g>
	<g>
		<path class="st2" d="M407.2,47.9c6.2,25,10.6,50.4,14.7,75.8c0,0.2,0.5,0.2,0.4-0.1c-2.3-25.8-7.7-51-14.8-75.9
			C407.5,47.6,407.2,47.7,407.2,47.9L407.2,47.9z"/>
	</g>
</g>
<g>
	<g>
		<path class="st2" d="M507.1,41.3c5.2,15,9.7,30.2,13.4,45.6c3.7,15.4,5.1,31.4,9,46.6c0.1,0.4,0.8,0.3,0.8-0.1
			c0.1-15.4-4.2-31.3-7.8-46.1c-3.9-15.7-8.8-31.1-14.7-46.2C507.5,40.7,506.9,40.9,507.1,41.3L507.1,41.3z"/>
	</g>
</g>
<g>
	<path class="st3" d="M431.1,30.8c0,0,11.9,5.2,8.9,9.3C436.9,44.3,431.1,30.8,431.1,30.8z"/>
	<path class="st3" d="M429.3,36.6c0,0,12.7,2.5,10.7,7.2S429.3,36.6,429.3,36.6z"/>
	<path class="st3" d="M429,41.7c0,0,12.9,0.8,11.5,5.7S429,41.7,429,41.7z"/>
	<path class="st3" d="M429.8,46.5c0,0,13,0.4,11.7,5.4S429.8,46.5,429.8,46.5z"/>
	<path class="st3" d="M441.5,25.9c0,0-6.6,11.2-1.7,12.8C444.7,40.2,441.5,25.9,441.5,25.9z"/>
	<path class="st3" d="M448.1,31.7c0,0-10.8,7.1-7.2,10.7C444.6,45.9,448.1,31.7,448.1,31.7z"/>
	<path class="st3" d="M449.3,37.4c0,0-11.7,5.6-8.5,9.7C443.9,51.1,449.3,37.4,449.3,37.4z"/>
	<path class="st3" d="M449.9,42.1c0,0-11.4,6.1-8.1,10C445.1,56,449.9,42.1,449.9,42.1z"/>
</g>
<g>
	<g>
		<path class="st2" d="M441,48.6c4.6,24.2,3,49,4.8,73.5c0,0.3,0.5,0.3,0.5,0c-1.8-24.5-0.2-49.3-4.8-73.6
			C441.4,48.2,440.9,48.3,441,48.6L441,48.6z"/>
	</g>
</g>
<g>
	<g>
		<path class="st4" d="M38.7,132.3c-3.1-7.8-3.8-16.8-5.5-25.1c-1.7-8.2-3.6-16.4-5.4-24.6C25.9,74.4,24,66.2,22.7,58
			c-1.6-9.4-1.9-18.8-2.7-28.3c-0.1-0.7-1.2-1-1.3-0.2c-3.3,17,1.6,35.6,5.4,52.1c2,8.8,4,17.6,6.2,26.4c2,7.9,3.2,17.6,7.5,24.7
			C38,133.1,38.9,132.8,38.7,132.3L38.7,132.3z"/>
	</g>
</g>
<g>
	<g>
		<path class="st4" d="M54.9,125.6c1.9-8.1,2.5-16.6,4.2-24.7c1.8-8.5,4.2-16.9,7.2-25.1c3-8.3,6.7-16.4,10.9-24.1
			c4.2-7.6,9.9-14.5,13.4-22.3c0.3-0.7-0.5-1.4-1.1-0.8C83.1,33.8,78.7,42,74.7,49.2c-4.3,7.7-8,15.8-11,24.1
			c-3.1,8.4-5.5,17.1-7.2,26c-1.6,8.5-3.1,17.7-2,26.3C54.5,125.8,54.9,125.9,54.9,125.6L54.9,125.6z"/>
	</g>
</g>
<g>
	<g>
		<path class="st4" d="M141.5,132.1c4.2-14.5,7.4-29,13.1-43c5.9-14.5,14.2-27.3,21.8-40.9c0.3-0.6-0.5-1.3-1-0.7
			c-10,11.2-17,25.6-22.7,39.3c-5.9,14.2-11.1,29.8-11.7,45.2C141,132.3,141.4,132.3,141.5,132.1L141.5,132.1z"/>
	</g>
</g>
<g>
	<g>
		<path class="st4" d="M262.7,120c1.6-16,2.4-32.2,3-48.3c0.6-16,1.6-32.3,0.3-48.3c0-0.5-0.7-0.5-0.8,0c-2,16-1.9,32.3-2.4,48.3
			c-0.5,16.1-1.1,32.2-0.9,48.3C261.8,120.6,262.6,120.6,262.7,120L262.7,120z"/>
	</g>
</g>
<g>
	<g>
		<path class="st4" d="M315,112.7c-1.5-12.7,2.6-26.5,5.4-38.8c3-12.6,6.8-25.1,10.2-37.6c0.1-0.4-0.6-0.8-0.8-0.3
			c-5.6,12.5-9.4,25.7-12.3,39.1c-2.6,12-6.2,25.5-3.6,37.8C314.1,113.4,315.1,113.3,315,112.7L315,112.7z"/>
	</g>
</g>
<g>
	<g>
		<path class="st4" d="M382.6,126.6c5.8-29.9,11.7-60.5,13.6-91c0-0.6-0.9-0.7-1-0.1c-7,29.7-10.3,60.7-13.4,91
			C381.8,126.9,382.5,127,382.6,126.6L382.6,126.6z"/>
	</g>
</g>
<g>
	<g>
		<path class="st4" d="M434.7,116.4c3.8-13.8,5.9-27.8,10.3-41.5c4.4-13.6,11.3-26.1,16.1-39.5c0.2-0.6-0.7-1.2-1.2-0.7
			c-8.6,11-13.7,25.3-18,38.4c-4.4,13.5-8.7,28.7-8.3,43.1C433.7,116.8,434.6,117,434.7,116.4L434.7,116.4z"/>
	</g>
</g>
<g>
	<g>
		<path class="st4" d="M567.6,121.1c3.2-9.8,1.9-22.3,0.8-32.5c-1.1-10.1-2.7-20.8-6.9-30.2c-0.2-0.5-1.1-0.3-1.1,0.3
			c1.3,10.3,3.9,20.4,4.9,30.8c0.5,4.9,0.8,9.8,0.8,14.8c0.1,5.5-0.7,11.2,0.1,16.6C566.3,121.7,567.3,121.9,567.6,121.1
			L567.6,121.1z"/>
	</g>
</g>
<g>
	<g>
		<path class="st4" d="M532.1,108.8c4.8-11.7,9.4-23.4,14.8-34.8c5.2-10.9,12.3-21,17.2-32c0.3-0.6-0.4-1.3-1-0.7
			c-8.3,9-14,21-19.2,32c-5.4,11.3-9.8,23.1-12.5,35.3C531.4,109,531.9,109.2,532.1,108.8L532.1,108.8z"/>
	</g>
</g>
<g>
	<g>
		<path class="st4" d="M511.7,110.8c2.7-12.5,1-26.8-0.4-39.3c-1.4-13.1-3.7-26.2-7.3-38.9c-0.1-0.4-0.7-0.2-0.6,0.2
			c1.9,13.5,3.8,27,5,40.6c1.1,12.3,0.4,25.3,2.7,37.4C511.1,111.1,511.6,111.1,511.7,110.8L511.7,110.8z"/>
	</g>
</g>
<g>
	<g>
		<path class="st4" d="M465.8,114.2c9.7-14.1,16.9-29.9,25.7-44.6c8.5-14.2,18.3-27.6,30.2-39.2c0.4-0.4-0.2-1.2-0.6-0.8
			c-13,10-22.8,23.2-31.2,37.1c-9.1,15-18.1,30.9-24.7,47.2C465,114.3,465.6,114.5,465.8,114.2L465.8,114.2z"/>
	</g>
</g>
<g>
	<g>
		<path class="st1" d="M-5.1,108.7c0.3,0,0.3-0.5,0-0.5C-5.4,108.1-5.4,108.7-5.1,108.7L-5.1,108.7z"/>
	</g>
</g>
<g>
	<g>
		<path class="st1" d="M11.9,108.5c1.3,0,1.3-2.1,0-2.1C10.5,106.5,10.5,108.5,11.9,108.5L11.9,108.5z"/>
	</g>
</g>
<g>
	<g>
		<path class="st1" d="M32,104.3c-1.4-4.4-1.9-9-3.2-13.5c-0.2-0.6-1.1-0.6-1.2,0c-1.2,5.1-0.9,10,1.4,14.7
			C29.8,107.2,32.5,106,32,104.3L32,104.3z"/>
	</g>
</g>
<g>
	<g>
		<path class="st1" d="M92.2,102.1c2.1,0,2.1-3.2,0-3.2C90.2,98.9,90.2,102.1,92.2,102.1L92.2,102.1z"/>
	</g>
</g>
<g>
	<g>
		<path class="st4" d="M5.8,102.4c-2.1-2.1-1.4-10-1.7-12.9c-0.3-3.7-0.6-7.3-1.2-10.9c-0.1-0.6-1-0.4-1.1,0.1
			C1.4,84.4,1.7,90,2.4,95.7c0.3,2.7,0.1,6.1,2.7,7.6C5.6,103.6,6.2,102.8,5.8,102.4L5.8,102.4z"/>
	</g>
</g>
<g>
	<g>
		<path class="st4" d="M9.3,105.6C9,86.5,14,69.8,21.8,52.6c0.3-0.6-0.5-1.1-0.9-0.5C9.6,66.8,5.7,87.4,7.9,105.6
			C8,106.5,9.3,106.5,9.3,105.6L9.3,105.6z"/>
	</g>
</g>
<g>
	<g>
		<path class="st4" d="M25.2,100.9c-2.1-12.9-4-26.3-8.3-38.7c-0.2-0.5-1.1-0.5-1.1,0.1c1.1,13.1,4.7,26.2,7.9,38.9
			C24,102.3,25.4,101.8,25.2,100.9L25.2,100.9z"/>
	</g>
</g>
<g>
	<g>
		<path class="st4" d="M18.1,102.1c-5.6-10.1-3.7-20.8-4.9-31.8c-0.1-0.5-0.8-0.7-0.9-0.1c-2.7,10.8-1.8,23.4,4.1,33
			C17,104.3,18.7,103.3,18.1,102.1L18.1,102.1z"/>
	</g>
</g>
<g>
	<g>
		<path class="st4" d="M22.6,103.8c-0.4-8.8,0.5-17.6,1.7-26.4c0.1-0.6-0.7-0.8-0.9-0.3c-3.1,8.7-3.7,17.5-3.1,26.7
			C20.4,105.2,22.7,105.2,22.6,103.8L22.6,103.8z"/>
	</g>
</g>
<g>
	<g>
		<path class="st4" d="M29.3,103.1C28,96.1,29.4,89.8,31,83c0.1-0.6-0.6-0.9-0.9-0.4c-4,6.1-4,14.1-2.4,21
			C27.9,104.7,29.6,104.2,29.3,103.1L29.3,103.1z"/>
	</g>
</g>
<g>
	<g>
		<path class="st4" d="M33,103.8c0.2-6.4,2.6-11.6,4.2-17.7c0.1-0.5-0.5-0.9-0.8-0.5c-4.2,4.8-5.4,12-5.6,18.2
			C30.7,105.2,32.9,105.2,33,103.8L33,103.8z"/>
	</g>
</g>
<g>
	<g>
		<path class="st4" d="M36.2,103.1c1.7-7.1,4.3-14,5.7-21.1c0.1-0.5-0.6-0.9-0.9-0.4c-3.5,6.4-5.2,13.9-6.8,21
			C33.9,103.9,35.9,104.4,36.2,103.1L36.2,103.1z"/>
	</g>
</g>
<g>
	<g>
		<path class="st4" d="M45,101c0.4-7.6,2.9-14,4.6-21.2c0.2-0.6-0.6-0.9-1-0.4c-4.2,6.1-5.2,14.4-5.4,21.6
			C43.2,102.2,45,102.1,45,101L45,101z"/>
	</g>
</g>
<g>
	<g>
		<path class="st4" d="M56.8,108.6c-0.4-7.8-3.4-15.6-5.9-23c-1.3-3.9-2.7-7.7-4.2-11.5c-1.6-3.9-3.7-7.9-2.2-12.3
			c0.1-0.4-0.4-0.7-0.7-0.4c-4.8,5.5,0,14,2.1,19.7c3.2,9.1,5.4,19.2,9.9,27.7C56,109.3,56.8,109.1,56.8,108.6L56.8,108.6z"/>
	</g>
</g>
<g>
	<g>
		<path class="st4" d="M66.4,102.9c-6.9-11.4-3-25.4-2.1-37.7c0-0.6-0.8-0.6-1-0.1c-4.3,10.6-6.6,29.5,2.6,38.3
			C66.1,103.5,66.6,103.2,66.4,102.9L66.4,102.9z"/>
	</g>
</g>
<g>
	<g>
		<path class="st4" d="M72.8,96.3c0.4-8.9,2.6-17.2,4.1-25.9c0.1-0.6-0.8-1.1-1.1-0.5c-4.1,8-5.2,17.5-5.5,26.4
			C70.2,98,72.8,98,72.8,96.3L72.8,96.3z"/>
	</g>
</g>
<g>
	<g>
		<path class="st4" d="M83.7,102.9c0.2-8.4,1-16.9,2.8-25.1c1.7-7.8,4.7-15.1,7.4-22.6c0.2-0.6-0.7-0.9-1-0.4
			c-9.1,13.6-12,32.1-10.3,48.1C82.7,103.6,83.7,103.6,83.7,102.9L83.7,102.9z"/>
	</g>
</g>
<g>
	<g>
		<path class="st4" d="M73.8,99c3.8-8.3,8.6-17.4,10.4-26.3c0.1-0.4-0.4-0.8-0.8-0.4c-5.8,7-9,17.5-11.1,26.2
			C72.2,99.2,73.4,99.9,73.8,99L73.8,99z"/>
	</g>
</g>
<g>
	<g>
		<path class="st4" d="M77.5,100.7c2.3-9.6,7.2-17.9,13.2-25.6c0.3-0.4-0.3-0.7-0.6-0.5c-7.9,6.5-12.2,15.8-14,25.7
			C75.9,101.2,77.3,101.7,77.5,100.7L77.5,100.7z"/>
	</g>
</g>
<g>
	<g>
		<path class="st4" d="M74.7,116.8c-3.2-13.1,1.1-26.1-0.8-39.2c-0.1-0.8-1.2-0.5-1.3,0.2c-1.5,12.8-4.1,27.1,0.7,39.4
			C73.6,118.1,74.9,117.7,74.7,116.8L74.7,116.8z"/>
	</g>
</g>
<g>
	<g>
		<path class="st4" d="M67.7,114.5c-0.8-16.6,1.9-32.9,5.1-49.1c0.1-0.7-0.8-0.9-1-0.3c-6.5,15.7-7.5,32.6-6,49.4
			C66,115.6,67.8,115.7,67.7,114.5L67.7,114.5z"/>
	</g>
</g>
<g>
	<g>
		<path class="st4" d="M12.8,109.1C6.7,87,5.9,64.7,7.3,41.9c0-0.4-0.6-0.4-0.6-0.1c-4.5,22.4-2,46,4.2,67.8
			C11.2,110.9,13.1,110.4,12.8,109.1L12.8,109.1z"/>
	</g>
</g>
<g>
	<g>
		<path class="st4" d="M29.2,108.1c-4.2-7.7-4.2-18.4-4.7-27c-0.4-8.4,0.1-16.8,0.6-25.2c0-0.5-0.8-0.6-0.9-0.1
			c-1.8,9.2-2.1,18.7-1.5,28.1c0.5,8.1,0.9,18,4.9,25.1C28.3,110,29.8,109.1,29.2,108.1L29.2,108.1z"/>
	</g>
</g>
<g>
	<g>
		<path class="st4" d="M38.5,109.4c-1.7-15.4-0.8-30.7,1-46c0-0.3-0.5-0.4-0.6-0.1c-3.3,15.1-3.4,30.8-1.7,46.1
			C37.3,110.2,38.6,110.2,38.5,109.4L38.5,109.4z"/>
	</g>
</g>
<g>
	<g>
		<path class="st4" d="M54.9,111.2c-2.2-22.4-0.4-44.3,2.5-66.5c0.1-0.4-0.7-0.5-0.8-0.1c-5.7,21.5-5.9,44.5-3.5,66.6
			C53.2,112.4,55,112.4,54.9,111.2L54.9,111.2z"/>
	</g>
</g>
<g>
	<g>
		<path class="st4" d="M74.7,114.5c-1.8-19.6,0.6-38,5.3-57c0.1-0.5-0.7-1-1-0.4C71.3,75,69.8,95.7,73,114.7
			C73.1,115.7,74.8,115.5,74.7,114.5L74.7,114.5z"/>
	</g>
</g>
<g>
	<g>
		<path class="st4" d="M94,107.7c-2.2-13-0.7-25.3,1.9-38.1c0.2-0.8-0.9-1.1-1.2-0.3c-5,12.2-5.1,26.1-2.8,39
			C92.2,109.7,94.3,109.1,94,107.7L94,107.7z"/>
	</g>
</g>
<g>
	<g>
		<path class="st4" d="M103.2,94.9c0.6-11.3,3.3-22,6.3-32.8c0.2-0.5-0.7-0.9-0.9-0.4c-4.8,10.4-6.7,21.9-7.3,33.2
			C101.4,96.1,103.2,96.1,103.2,94.9L103.2,94.9z"/>
	</g>
</g>
<g>
	<g>
		<path class="st4" d="M118.6,111.8c-2.3-6.4,1-15.3,2.6-21.7c1.7-6.7,3.9-13.4,5.7-20.1c0.2-0.7-0.9-1.3-1.3-0.5
			c-3.6,7.1-5.9,14.8-7.8,22.5c-1.5,6.3-4.2,14.1-1.9,20.5C116.5,114.3,119.2,113.5,118.6,111.8L118.6,111.8z"/>
	</g>
</g>
<g>
	<g>
		<path class="st4" d="M131.6,111.9c2.6-15.7,7.9-30.2,12.9-45.2c0.2-0.7-0.8-1.1-1.2-0.5c-8,13.5-11.7,29.6-13.9,45
			C129.2,112.8,131.4,113.4,131.6,111.9L131.6,111.9z"/>
	</g>
</g>
<g>
	<g>
		<path class="st4" d="M101.8,111.4c1.4-7.1,1.9-14.4,2.9-21.6c0.9-6.7,2-13.3,2.7-20c0.1-0.7-1-0.8-1.2-0.2
			c-3.9,12.9-6.4,28-6,41.5C100.2,112.1,101.6,112.4,101.8,111.4L101.8,111.4z"/>
	</g>
</g>
<path class="st4" d="M238.6,102.2c0,0-2-20.9,1.4-36.3c2.2-9.9,9.2-19,9.2-19l-8,55.8L238.6,102.2z"/>
<polygon class="st4" points="402,106.9 409.6,58.8 410.7,109 "/>
<polygon class="st4" points="425.3,107.5 440.2,58.7 431.1,110.4 "/>
<polygon class="st4" points="497.3,104.7 480.5,51.7 511.4,104.9 "/>
<g>
	<g>
		<path class="st4" d="M447,109.3c2.9-4.6,4.6-9.9,7.5-14.6c2.9-4.6,6.9-8.6,9.5-13.4c0.3-0.5-0.3-1-0.7-0.7
			c-4.8,2.7-8.5,8-11.3,12.6c-2.9,4.7-5.9,10.2-6.4,15.7C445.5,109.7,446.6,109.8,447,109.3L447,109.3z"/>
	</g>
</g>
<g>
	<g>
		<path class="st4" d="M441.6,110.7c0.5-8.4,0.6-16.7,0.3-25.1c0-0.5-0.8-0.7-0.9-0.1c-1.2,8.4-1.4,16.8-0.7,25.2
			C440.4,111.6,441.6,111.6,441.6,110.7L441.6,110.7z"/>
	</g>
</g>
<g>
	<g>
		<path class="st4" d="M424.8,109.8c0.4-10.4,1.5-20.8,3.5-31c0.1-0.3-0.4-0.4-0.4-0.1c-2,10.3-3.1,20.7-3.5,31.1
			C424.3,110.1,424.8,110.1,424.8,109.8L424.8,109.8z"/>
	</g>
</g>
<g>
	<g>
		<path class="st4" d="M417.1,109.4c2.4-13.3,5.6-26.5,9.6-39.4c0.1-0.3-0.4-0.4-0.4-0.1c-4,12.9-7.2,26.1-9.6,39.4
			C416.6,109.5,417,109.7,417.1,109.4L417.1,109.4z"/>
	</g>
</g>
<g>
	<g>
		<path class="st4" d="M415.3,107.5c-0.6-3.1,0.7-6.9,1.4-10c0.6-2.8,1.3-5.5,2.1-8.2c1.6-5.5,3.4-10.8,5.5-16.1
			c0.1-0.3-0.3-0.4-0.4-0.1c-2.3,5.9-4.4,11.8-6,17.9c-0.8,2.9-1.5,5.8-2.1,8.7c-0.5,2.6-1.4,5.3-0.9,7.9
			C414.9,107.9,415.4,107.8,415.3,107.5L415.3,107.5z"/>
	</g>
</g>
<g>
	<g>
		<path class="st4" d="M410.3,108.3c-1.9-2.9-0.7-6.7-0.1-9.9c0.6-3.2,1.3-6.5,2.2-9.7c1.6-6.2,3.7-12.4,6.1-18.3
			c0.1-0.3-0.3-0.4-0.4-0.1c-2.8,6.9-5.1,13.9-6.8,21.1c-0.8,3.5-1.6,7.1-2.1,10.6c-0.3,2.3-0.5,4.5,0.8,6.5
			C410.1,108.8,410.5,108.5,410.3,108.3L410.3,108.3z"/>
	</g>
</g>
<g>
	<g>
		<path class="st4" d="M407.5,108c-1-3.3,0.4-7.7,1-11c0.6-3.2,1.3-6.4,2-9.6c1.4-6.3,2.6-12.5,2.8-18.9c0-0.3-0.5-0.3-0.5,0
			c-0.3,7.3-1.8,14.4-3.4,21.6c-0.7,3.3-1.4,6.7-2,10.1c-0.4,2.5-1.2,5.5-0.5,8C407.1,108.4,407.6,108.3,407.5,108L407.5,108z"/>
	</g>
</g>
<g>
	<g>
		<path class="st4" d="M400.6,109.8c-1.2-2.9-1-5.9-0.7-9c0.4-3.5,0.9-7,1.5-10.5c1-6.5,2.1-13,3.4-19.4c0.1-0.3-0.4-0.4-0.4-0.1
			c-1.4,7.1-2.6,14.2-3.7,21.4c-0.8,5.6-2.7,12.3-0.5,17.8C400.2,110.2,400.7,110,400.6,109.8L400.6,109.8z"/>
	</g>
</g>
<g>
	<g>
		<path class="st4" d="M395.9,111.2c0.3-14.4,2.2-28.7,5.7-42.7c0.1-0.3-0.4-0.4-0.4-0.1c-3.5,14-5.4,28.3-5.8,42.8
			C395.4,111.5,395.9,111.5,395.9,111.2L395.9,111.2z"/>
	</g>
</g>
<g>
	<g>
		<path class="st4" d="M393.4,106.5c-1.2-11-1.7-22-1.5-33c0-0.3-0.5-0.3-0.5,0c-0.3,11,0.2,22,1.5,33
			C393,106.8,393.4,106.8,393.4,106.5L393.4,106.5z"/>
	</g>
</g>
<g>
	<g>
		<path class="st4" d="M453.6,115.4c-0.5-7.4-0.7-14.8-0.6-22.2c0.1-3.6,0.2-7.2,0.5-10.8c0.3-3.6,0.6-7.1,2.7-10.2
			c0.2-0.2-0.2-0.5-0.4-0.2c-3.6,5.3-3,13.2-3.2,19.3c-0.3,8.1-0.1,16.1,0.5,24.2C453.2,115.7,453.7,115.7,453.6,115.4L453.6,115.4z
			"/>
	</g>
</g>
<g>
	<g>
		<path class="st4" d="M462.3,110.3c0.7-13.3,0-28.7,8.5-39.7c0.2-0.2-0.1-0.6-0.3-0.3c-8.7,11.2-8,26.7-8.7,40.1
			C461.8,110.6,462.3,110.6,462.3,110.3L462.3,110.3z"/>
	</g>
</g>
<g>
	<g>
		<path class="st4" d="M469.5,106.1c0.2-14.1,4.3-27.9,11.8-39.9c0.2-0.3-0.2-0.5-0.4-0.2c-7.6,12-11.7,25.9-11.9,40.1
			C469,106.4,469.5,106.4,469.5,106.1L469.5,106.1z"/>
	</g>
</g>
<g>
	<g>
		<path class="st4" d="M488.6,105.6c3.1-12.8,8.2-25,14.9-36.3c0.2-0.3-0.2-0.5-0.4-0.2c-6.8,11.3-11.8,23.6-15,36.4
			C488.1,105.8,488.6,105.9,488.6,105.6L488.6,105.6z"/>
	</g>
</g>
<g>
	<g>
		<path class="st4" d="M501,105.7c4.2-12.7,8.7-25.9,18.4-35.6c0.2-0.2-0.1-0.5-0.3-0.3c-9.7,9.8-14.2,23-18.5,35.8
			C500.4,105.9,500.9,106,501,105.7L501,105.7z"/>
	</g>
</g>
<g>
	<g>
		<path class="st4" d="M509.3,108.4c5.3-13,12.5-25.2,21.3-36.2c0.2-0.2-0.1-0.6-0.3-0.3c-8.9,11-16.1,23.3-21.4,36.4
			C508.7,108.6,509.2,108.7,509.3,108.4L509.3,108.4z"/>
	</g>
</g>
<g>
	<g>
		<path class="st4" d="M517.5,104.7c6.2-12.8,12.6-25.8,22.4-36.3c0.2-0.2-0.1-0.5-0.3-0.3c-9.8,10.6-16.2,23.6-22.4,36.4
			C516.9,104.8,517.3,105,517.5,104.7L517.5,104.7z"/>
	</g>
</g>
<g>
	<g>
		<path class="st4" d="M540.1,103.4c0.8-5.9,1.5-11.8,2.3-17.7c0.8-5.9,1.1-12,3.2-17.6c0.1-0.3-0.3-0.4-0.4-0.1
			c-2,5.3-2.3,11.2-3.1,16.8c-0.8,6.2-1.6,12.5-2.4,18.7C539.6,103.7,540,103.7,540.1,103.4L540.1,103.4z"/>
	</g>
</g>
<g>
	<g>
		<path class="st4" d="M553.8,101.9c-0.8-9.9-1.5-19.9-2.3-29.8c0-0.3-0.5-0.3-0.5,0c0.8,9.9,1.5,19.9,2.3,29.8
			C553.3,102.2,553.8,102.2,553.8,101.9L553.8,101.9z"/>
	</g>
</g>
<g>
	<g>
		<path class="st4" d="M560.9,109.3c0.8-9.6,0.7-19.2-0.4-28.8c0-0.3-0.5-0.3-0.5,0c1.1,9.6,1.2,19.2,0.4,28.8
			C560.4,109.6,560.8,109.6,560.9,109.3L560.9,109.3z"/>
	</g>
</g>
<g>
	<g>
		<path class="st4" d="M543.1,106.1c1.9-8.2,3.8-16.4,5.7-24.6c0.1-0.3-0.4-0.4-0.4-0.1c-1.9,8.2-3.8,16.4-5.7,24.6
			C542.6,106.3,543,106.4,543.1,106.1L543.1,106.1z"/>
	</g>
</g>
<g>
	<g>
		<path class="st4" d="M88.7,102.6c-0.7,1-1.5,1.8-2.6,2.4c-1.9,1.1-1.3,0.5-1-0.5c0.5-1.6,1.5-3.3,2.3-4.8c1.7-3.3,3.7-6.4,5.7-9.4
			c4.2-6.2,9-12.1,13.7-17.9c0.2-0.2-0.1-0.6-0.3-0.3C98,82.6,89.4,93.3,84,105.9c-0.1,0.2,0,0.4,0.3,0.3c2-0.6,3.6-1.7,4.8-3.4
			C89.3,102.6,88.9,102.4,88.7,102.6L88.7,102.6z"/>
	</g>
</g>
<g>
	<g>
		<path class="st4" d="M96.5,108c5.7-12,12-23.8,18.7-35.3c0.2-0.3-0.3-0.5-0.4-0.2c-6.7,11.5-13,23.3-18.7,35.3
			C95.9,108,96.3,108.2,96.5,108L96.5,108z"/>
	</g>
</g>
<g>
	<g>
		<path class="st4" d="M89.1,108.9c0.4-14.1,0.8-28.2,1.2-42.3c0-0.3-0.5-0.3-0.5,0c-0.4,14.1-0.8,28.2-1.2,42.3
			C88.6,109.2,89.1,109.2,89.1,108.9L89.1,108.9z"/>
	</g>
</g>
<g>
	<g>
		<path class="st4" d="M83.9,109.8C80.6,94.1,79.5,78,80.7,62c0-0.3-0.4-0.3-0.5,0c-1.1,16.1-0.1,32.2,3.2,48
			C83.5,110.2,83.9,110.1,83.9,109.8L83.9,109.8z"/>
	</g>
</g>
<g>
	<g>
		<path class="st4" d="M67.5,106.1c-3.5-13.4-2.2-27.7,3.7-40.3c0.1-0.3-0.3-0.5-0.4-0.2c-6,12.7-7.3,27.1-3.8,40.6
			C67.2,106.5,67.6,106.4,67.5,106.1L67.5,106.1z"/>
	</g>
</g>
<g>
	<g>
		<path class="st4" d="M53.2,105.7c-0.3-6.9,1.7-13.5,3.5-20c1.8-6.5,3.6-13,5.5-19.5c0.1-0.3-0.4-0.4-0.4-0.1
			c-2,6.8-3.9,13.6-5.7,20.5c-1.7,6.3-3.6,12.6-3.3,19.2C52.7,106,53.2,106,53.2,105.7L53.2,105.7z"/>
	</g>
</g>
<g>
	<g>
		<path class="st4" d="M35.1,109c-0.5-4.2,0.5-8.2,1.7-12.2c1.1-3.9,2.3-7.7,3.5-11.6c2.4-7.7,5-15.3,7.8-22.8
			c0.1-0.3-0.3-0.4-0.4-0.1C44.7,70,42,78,39.5,86c-1.2,4-2.5,8-3.6,12c-1,3.6-1.8,7.2-1.3,11C34.7,109.3,35.1,109.3,35.1,109
			L35.1,109z"/>
	</g>
</g>
<g>
	<g>
		<path class="st4" d="M27.5,104.2c1-12.3,2.7-24.5,5.1-36.6c0.1-0.3-0.4-0.4-0.4-0.1C29.7,79.6,28,91.9,27,104.2
			C27,104.5,27.5,104.5,27.5,104.2L27.5,104.2z"/>
	</g>
</g>
<g>
	<g>
		<path class="st4" d="M19.8,107.1c-4.7-12-7-24.8-6.8-37.7c0-0.3-0.5-0.3-0.5,0c-0.2,12.9,2.1,25.7,6.8,37.8
			C19.4,107.5,19.9,107.3,19.8,107.1L19.8,107.1z"/>
	</g>
</g>
<g>
	<g>
		<path class="st4" d="M13.9,110.2c-1.7-0.9-1.9-4-2.3-5.7c-0.4-1.7-0.8-3.5-1.2-5.2C9.5,95.8,8.8,92.4,8,88.9C6.6,81.9,5.2,75,4,68
			c-0.1-0.3-0.5-0.2-0.4,0.1c1.4,7.9,3,15.9,4.7,23.8c0.8,3.8,1.7,7.6,2.6,11.3c0.5,2.2,0.6,6.2,2.9,7.4
			C13.9,110.8,14.1,110.4,13.9,110.2L13.9,110.2z"/>
	</g>
</g>
<g>
	<g>
		<path class="st4" d="M134,106.4c0.3-0.2,0.7-2.4,0.9-2.8c0.3-0.7,0.6-1.4,0.9-2.1c0.6-1.2,1.1-2.5,1.7-3.7
			c1.2-2.4,2.4-4.9,3.7-7.2c2.6-4.8,5.5-9.4,8.7-13.8c0.2-0.2-0.2-0.5-0.4-0.2c-3.7,5.3-7.2,10.9-10.2,16.6
			c-1.5,2.8-2.9,5.7-4.1,8.6c-0.5,1.2-2.4,4-1.5,5.2c0.1,0.1,0.2,0.2,0.3,0.1c0.1,0,0.1-0.1,0.2-0.1
			C134.5,106.6,134.3,106.2,134,106.4L134,106.4z"/>
	</g>
</g>
<g>
	<g>
		<path class="st4" d="M122.4,103.8c0.2-10.7,1.7-21.2,4.5-31.5c0.1-0.3-0.4-0.4-0.4-0.1c-2.8,10.3-4.3,20.9-4.5,31.7
			C122,104.1,122.4,104.1,122.4,103.8L122.4,103.8z"/>
	</g>
</g>
<g>
	<g>
		<path class="st4" d="M129.4,103.8c-1.3-11.5-0.7-23,1.7-34.3c0.1-0.3-0.4-0.4-0.4-0.1c-2.5,11.3-3,22.9-1.7,34.5
			C129,104.1,129.5,104.1,129.4,103.8L129.4,103.8z"/>
	</g>
</g>
<g>
	<g>
		<path class="st4" d="M262,109.8c6.7-12.5,16-23.5,27.2-32.3c0.2-0.2-0.1-0.5-0.3-0.3c-11.3,8.8-20.5,19.8-27.3,32.3
			C261.4,109.9,261.8,110.1,262,109.8L262,109.8z"/>
	</g>
</g>
<g>
	<g>
		<path class="st4" d="M241.6,113.3c-1.1-1.4,0.2-4,0.6-5.4c0.5-1.5,1-3,1.5-4.5c1-2.9,2-5.7,3-8.5c2.3-6.1,4.8-12.1,7.5-17.9
			c0.1-0.3-0.3-0.5-0.4-0.2c-3.1,6.6-5.9,13.4-8.4,20.3c-1.3,3.6-2.5,7.2-3.7,10.8c-0.6,1.8-1.8,4.1-0.5,5.8
			C241.5,113.9,241.8,113.6,241.6,113.3L241.6,113.3z"/>
	</g>
</g>
<g>
	<g>
		<path class="st4" d="M234,108.5c-2.3-5.5-1.3-12.3-1.2-18.1c0-6.2,0.1-12.5,0.1-18.7c0-0.3-0.5-0.3-0.5,0
			c-0.1,6.6-0.1,13.1-0.2,19.7c0,5.6-0.9,12,1.2,17.2C233.7,108.9,234.1,108.8,234,108.5L234,108.5z"/>
	</g>
</g>
<g>
	<g>
		<path class="st4" d="M221.8,109.4c-1.1-11.5-0.2-23.1,2.7-34.4c0.1-0.3-0.4-0.4-0.4-0.1c-2.9,11.3-3.8,22.9-2.7,34.5
			C221.4,109.7,221.8,109.7,221.8,109.4L221.8,109.4z"/>
	</g>
</g>
<g>
	<g>
		<path class="st4" d="M200.5,115.4c2.7-13.7,7.3-27,13.8-39.4c0.1-0.3-0.3-0.5-0.4-0.2c-6.5,12.4-11.1,25.7-13.8,39.5
			C200,115.6,200.5,115.7,200.5,115.4L200.5,115.4z"/>
	</g>
</g>
<polygon class="st4" points="372.4,104.3 355.7,51.4 386.6,104.5 "/>
<polygon class="st4" points="343.2,101.9 341,61.6 352,103.9 "/>
<polygon class="st4" points="327,103.7 329.2,63.4 318.2,105.7 "/>
<polygon class="st4" points="448.9,103.3 450.6,72.5 442.2,104.8 "/>
<polygon class="st4" points="455.5,101 457.6,63.4 447.3,102.9 "/>
<polygon class="st4" points="298.5,107.2 293.2,61.6 301.6,107.2 "/>
<polygon class="st4" points="250.6,106 256,53.7 252.1,106.9 "/>
<polygon class="st4" points="253.9,107.5 258.5,63.4 256,108.4 "/>
<polygon class="st4" points="308.1,104.9 308.1,37.4 312.1,105.6 "/>
<g>
	<g>
		<path class="st4" d="M361.2,104c1-7.9,6.8-13.7,9.7-20.9c0.2-0.4-0.5-0.8-0.8-0.4c-3.3,3.7-5.9,8.1-8.3,12.5
			c-1.6,2.9-2.8,5.9-1.3,9C360.8,104.5,361.2,104.3,361.2,104L361.2,104z"/>
	</g>
</g>
<g>
	<g>
		<path class="st4" d="M355.8,110.6c1.1-6.5,1.1-13.2,1.9-19.7c0.8-7.3,2.1-14.5,3.7-21.7c3.2-13.8,8.4-26.5,13.5-39.6
			c0.2-0.6-0.7-1-1.1-0.5c-7.4,12.1-12.1,26.4-15.2,40.2c-2.9,12.9-5.7,28-3.2,41.2C355.4,110.9,355.8,110.9,355.8,110.6
			L355.8,110.6z"/>
	</g>
</g>
<g>
	<g>
		<path class="st4" d="M375.2,113.6c-3-6.7-1-15,0-21.9c1.1-7.1,2.7-14.1,5.8-20.6c0.1-0.3-0.3-0.5-0.4-0.2
			c-3.4,7.1-5,14.8-6.2,22.5c-1,6.7-2.6,14.1,0.3,20.5C374.9,114.1,375.3,113.8,375.2,113.6L375.2,113.6z"/>
	</g>
</g>
<g>
	<g>
		<path class="st4" d="M350.2,114.3c-1-15.6,1.3-31.2,6.5-45.8c0.1-0.3-0.3-0.4-0.4-0.1c-5.3,14.7-7.5,30.4-6.5,46
			C349.8,114.6,350.2,114.6,350.2,114.3L350.2,114.3z"/>
	</g>
</g>
<g>
	<g>
		<path class="st4" d="M354.5,117.1c-2.6-16.5-4.4-33.2-5.5-49.9c0-0.3-0.5-0.3-0.5,0c1.1,16.7,2.9,33.4,5.5,50
			C354.1,117.5,354.5,117.4,354.5,117.1L354.5,117.1z"/>
	</g>
</g>
<path class="st4" d="M526.6,102.5c0,0-76.2-2.8-103.2-6c-8.1-1-118.2-2.3-168.4,1.9c-27.9,2.3-92,0.7-108.4-2
	c-32.3-5.4-96.3,6.1-96.3,6.1h-69.6v37h39.9c0,0,64.8,3.3,85.6,4.9c41.7,3.1,87.7-17.2,203.6-4.9c39.2,4.2,94.1-9.3,125.2,1.8
	s63.6-0.8,87.1-1.1c31.4-0.4,51-0.7,51-0.7v-37H526.6z"/>
<g>
	<g>
		<path class="st5" d="M156.2,11c-1.3,0.4-2.5,1.8-3,3c-0.2,0.6-1,2.9,0.1,3.1c0.9,0.2,2.1-1,2.7-1.5c0.9-0.9,2.1-2.6,2-3.9
			c0,0,0-0.1-0.1-0.1c-0.2,0.1-0.1,0.4-0.2,0.5c0,0.1,0.1,0.1,0.1,0c0.2-0.9-0.2,0.5-0.3,0.7c-0.3,0.8-0.7,1.5-1.2,2.1
			c-0.5,0.7-1.2,1.2-2,1.6c-0.6,0.3-1.5,0.5-1.5-0.5c0-0.9,0.2-1.9,0.7-2.7c0.5-0.9,1.6-2,2.7-2.3C156.3,11.1,156.3,11,156.2,11
			L156.2,11z"/>
	</g>
</g>
<ellipse transform="matrix(0.1564 -0.9877 0.9877 0.1564 112.0781 165.6037)" class="st5" cx="153" cy="17.2" rx="0.4" ry="0.4"/>
<line class="st5" x1="152.3" y1="17.4" x2="152.3" y2="17.5"/>
<path class="st6" d="M143.7,14.5c1.4,0.9,6.7,3.7,7.2,3.8c1.8,0.4,1.5-2.6,1.4-2.6s-1.5-8.9-6.2-9.2c0,0-1.5,0.4-2.3,2.4
	C143.1,10.3,142.3,13.6,143.7,14.5z"/>
<path class="st0" d="M146.7,15.6c0.8,0.6,3.9,2.5,4.2,2.6c1.1,0.3,0.9-1.7,0.8-1.8s-0.9-6-3.7-6.2c0,0-0.9,0.3-1.4,1.6
	C146.4,12.7,145.9,14.9,146.7,15.6z"/>
<path class="st7" d="M151.1,18.9l-5.1-2.8c0,0-1.2-1.1-3.1-0.5s-2.3,0.8-2,1.8c0.3,1-0.4,1.5-0.4,1.5s-0.7,0.1-0.1,0.7
	c0.6,0.6,0,1.1,0,1.1s-0.8,0.2-0.1,0.6c0.7,0.4,0.6,1.1,0.6,1.1s-0.9,1.2-0.1,0.9c0.8-0.3,2.2,1.3,1.8,1.6c-0.1,0.1,2.9,0.4,4.2-0.8
	s2.8-1.8,3.3-2.8S151.1,18.9,151.1,18.9z"/>
<path class="st6" d="M150.3,19.1l-4.4-2.4c0,0-1.1-0.9-2.6-0.4c-1.5,0.5-2,0.7-1.7,1.5c0.3,0.8-0.3,1.3-0.3,1.3s-0.6,0.1-0.1,0.6
	c0.5,0.5,0,1,0,1s-0.7,0.2-0.1,0.5s0.5,1,0.5,1s-0.7,1,0,0.7c0.7-0.3,1.9,1.1,1.5,1.4c-0.1,0.1,2.4,0.4,3.6-0.6
	c1.2-1,2.4-1.6,2.8-2.4C149.9,20.4,150.3,19.1,150.3,19.1z"/>
<path class="st6" d="M160.2,23.8c-1.5-0.6-6.8-3.5-7.2-3.9c-1.3-1.3,1.3-2.6,1.4-2.7c0.1,0,8.3-3.7,11.1,0.1c0,0,0.5,1.4-0.7,3.3
	C164,21.9,161.8,24.4,160.2,23.8z"/>
<path class="st7" d="M152.2,19.8l5,3c0,0,1.6,0.5,2,2.4c0.4,1.9,0.5,2.4-0.5,2.6c-1,0.2-1.1,1.1-1.1,1.1s0.2,0.6-0.6,0.4
	c-0.8-0.2-1,0.6-1,0.6s0.3,0.8-0.4,0.4c-0.7-0.4-1.3,0.1-1.3,0.1s-0.5,1.4-0.7,0.5c-0.2-0.9-2.2-1.3-2.3-0.7c0,0.1-1.8-2.2-1.5-4
	c0.3-1.8,0.1-3.4,0.7-4.3C151.1,21,152.2,19.8,152.2,19.8z"/>
<path class="st6" d="M152.5,20.7l4.3,2.5c0,0,1.3,0.4,1.7,2c0.3,1.6,0.4,2-0.4,2.2c-0.9,0.2-0.9,1-0.9,1s0.2,0.5-0.5,0.4
	s-0.8,0.5-0.8,0.5s0.2,0.7-0.3,0.3c-0.6-0.3-1.1,0.1-1.1,0.1s-0.5,1.2-0.6,0.4c-0.1-0.7-1.9-1.1-2-0.6c0,0.1-1.6-1.9-1.3-3.4
	c0.3-1.5,0.1-2.9,0.6-3.7C151.6,21.7,152.5,20.7,152.5,20.7z"/>
<g>
	<g>
		<path class="st7" d="M141.6,17.7c0.8,0.3,1.5,0.7,2.3,0.9c0.3,0.1,0.4-0.3,0.1-0.4c-0.7-0.3-1.5-0.6-2.2-0.9
			C141.6,17.2,141.3,17.6,141.6,17.7L141.6,17.7z"/>
	</g>
</g>
<g>
	<g>
		<path class="st7" d="M141.1,19.7c0.4,0.1,0.8,0.1,1.1,0.1c0.5,0,0.9,0,1.4,0c0.3,0,0.3-0.5,0-0.5c-0.4,0-0.8,0-1.2,0
			c-0.4,0-0.8,0-1.2-0.1C140.9,19.2,140.8,19.6,141.1,19.7L141.1,19.7z"/>
	</g>
</g>
<g>
	<g>
		<path class="st7" d="M140.9,21.5c1.1-0.1,2.1-0.2,3.2-0.4c0.3-0.1,0.2-0.5-0.1-0.5c-1,0.2-2,0.3-3.1,0.4
			C140.6,21.1,140.6,21.6,140.9,21.5L140.9,21.5z"/>
	</g>
</g>
<g>
	<g>
		<path class="st7" d="M142.6,23.6c0.3-0.2,0.6-0.5,0.9-0.7c0.1-0.1,0.8-0.6,0.8-0.7c0.2,0.2,0.5-0.2,0.2-0.4
			c-0.3-0.2-0.6,0.2-0.8,0.3c-0.5,0.4-1,0.8-1.5,1.2C142,23.4,142.4,23.8,142.6,23.6L142.6,23.6z"/>
	</g>
</g>
<g>
	<g>
		<path class="st7" d="M144.7,24.5c0.4-0.7,0.8-1.3,1.2-1.9c0.2-0.2-0.2-0.5-0.4-0.2c-0.4,0.6-0.9,1.2-1.2,1.9
			C144.2,24.5,144.6,24.7,144.7,24.5L144.7,24.5z"/>
	</g>
</g>
<g>
	<g>
		<path class="st7" d="M143.2,16.6c0.4,0.4,0.8,0.8,1.2,1.2c0.2,0.2,0.6-0.1,0.3-0.3c-0.4-0.4-0.8-0.8-1.2-1.2
			C143.4,16,143,16.3,143.2,16.6L143.2,16.6z"/>
	</g>
</g>
<path class="st8" d="M150.8,19.2c0,0-2.7-1.8-4.7-2.6c-1.9-0.7-3.2,2.6-3.1,3.6c0.1,1.2,1.8,2.2,2.5,2.2c0.6,0,1.5,0,2-0.2
	C149.1,21.5,150.8,19.2,150.8,19.2z"/>
<g>
	<g>
		<path class="st7" d="M151.3,26c-0.2,0.4-0.3,0.7-0.6,1.1c-0.2,0.3-0.5,0.5-0.6,0.8c0,0.1,0,0.3,0.2,0.3c0,0,0,0,0,0
			c0.1,0,0.2,0,0.3-0.1c0,0,0,0,0,0c0.1-0.3-0.3-0.5-0.4-0.2c0,0,0,0,0,0c0.1,0,0.2-0.1,0.3-0.1c0,0,0,0,0,0
			c0.1,0.1,0.1,0.2,0.2,0.3c0.1-0.3,0.4-0.5,0.6-0.8c0.2-0.3,0.4-0.7,0.5-1C151.8,26,151.4,25.8,151.3,26L151.3,26z"/>
	</g>
</g>
<g>
	<g>
		<path class="st7" d="M152.5,26.6c-0.3,0.9-0.5,1.7-0.7,2.6c-0.1,0.3,0.4,0.4,0.4,0.1c0.2-0.9,0.4-1.8,0.7-2.6
			C153,26.4,152.6,26.3,152.5,26.6L152.5,26.6z"/>
	</g>
</g>
<g>
	<g>
		<path class="st7" d="M153.7,27.3c0.1,0.9,0.2,1.7,0.3,2.6c0,0.3,0.5,0.3,0.5,0c-0.1-0.9-0.2-1.7-0.3-2.6
			C154.1,27,153.7,27,153.7,27.3L153.7,27.3z"/>
	</g>
</g>
<g>
	<g>
		<path class="st7" d="M154.8,26.7c-0.1,0.4,0.1,0.7,0.3,1c0.2,0.5,0.5,1,0.7,1.5c0.1,0.3,0.5,0,0.4-0.2c-0.2-0.3-0.3-0.7-0.5-1
			c-0.1-0.2-0.6-0.9-0.5-1.2C155.3,26.5,154.9,26.4,154.8,26.7L154.8,26.7z"/>
	</g>
</g>
<g>
	<g>
		<path class="st7" d="M155.6,25.8c0.3,0.5,0.6,0.8,1,1.2c0.3,0.3,0.5,0.8,0.8,1c0.3,0.1,0.5-0.3,0.2-0.4c-0.2-0.1-0.3-0.3-0.4-0.5
			c-0.1-0.1-0.2-0.3-0.4-0.4c-0.4-0.3-0.7-0.7-1-1.1C155.9,25.3,155.4,25.5,155.6,25.8L155.6,25.8z"/>
	</g>
</g>
<g>
	<g>
		<path class="st7" d="M156.2,24.8c0.3,0.8,1.6,0.5,2.3,0.8c0.3,0.1,0.5-0.3,0.2-0.4c-0.3-0.1-0.6-0.2-0.9-0.2c-0.2,0-1,0-1.1-0.3
			C156.5,24.4,156.1,24.5,156.2,24.8L156.2,24.8z"/>
	</g>
</g>
<g>
	<g>
		<path class="st7" d="M156.6,23.9c0.2,0,0.7-0.2,0.9-0.1c0-0.1-0.1-0.2-0.1-0.3c0,0,0,0,0,0c-0.1,0.3,0.4,0.4,0.4,0.1c0,0,0,0,0,0
			c0-0.1,0-0.2-0.1-0.3c-0.3-0.2-0.9,0-1.3,0.1C156.2,23.5,156.3,23.9,156.6,23.9L156.6,23.9z"/>
	</g>
</g>
<path class="st8" d="M152.3,20.3c0,0,2.7,1.6,4.1,3.1c1.3,1.4-1.1,3.8-2.1,4.1c-1.1,0.4-2.6-0.7-2.9-1.3c-0.3-0.5-0.6-1.3-0.5-1.8
	C150.9,22.7,152.3,20.3,152.3,20.3z"/>
<path class="st0" d="M151.3,19.4c0,0-3.5-2.3-4.7-1.2c-1.2,1.1-1.5,2.2-0.9,3.1c0.9,1.4,3.6-0.3,3.8-0.4
	C149.6,20.8,151.3,19.4,151.3,19.4z"/>
<path class="st0" d="M152,19.6c0,0-1.4,4-0.1,5c1.3,1,2.5,1,3.2,0.2c1.1-1.3-1.2-3.5-1.3-3.7S152,19.6,152,19.6z"/>
<path class="st5" d="M150.9,19.9c-1.1,2.2-2.1,5.3-2.1,5.3l2.3-3.7l1.6-2.6c0,0,0.5-1.2,0.3-1.4C152.8,17.4,151.9,17.8,150.9,19.9z"
	/>
<ellipse transform="matrix(0.9232 -0.3844 0.3844 0.9232 5.1083 59.227)" class="st7" cx="150.7" cy="16.8" rx="0.8" ry="1.4"/>
<path class="st0" d="M157.4,21.6c-1-0.3-4.3-1.7-4.6-1.9c-0.8-0.7,0.9-1.7,0.9-1.7s5.4-2.8,7.1-0.7c0,0,0.3,0.9-0.5,2.1
	C159.8,20.2,158.3,21.9,157.4,21.6z"/>
<ellipse transform="matrix(0.973 -0.2309 0.2309 0.973 -0.2599 36.0747)" class="st7" cx="154" cy="19.1" rx="1.4" ry="0.8"/>
<g>
	<g>
		<path class="st0" d="M151.3,19.2c0.3,0.1,0.5,0.3,0.8,0.5c0.2,0.2,0.6-0.1,0.3-0.3c-0.3-0.2-0.5-0.4-0.8-0.6
			C151.3,18.6,151.1,19,151.3,19.2L151.3,19.2z"/>
	</g>
</g>
<g>
	<g>
		<path class="st0" d="M151.1,19.8c0.1,0.2,0.3,0.3,0.4,0.4c0.1,0,0.1-0.1,0.1-0.1C151.4,20,151.3,19.9,151.1,19.8
			C151.1,19.7,151.1,19.8,151.1,19.8L151.1,19.8z"/>
	</g>
</g>
<g>
	<g>
		<path class="st0" d="M150.8,20.4c0.2,0.2,0.3,0.3,0.5,0.5c0.1,0,0.1-0.1,0.1-0.1C151.2,20.6,151,20.5,150.8,20.4
			C150.8,20.2,150.8,20.3,150.8,20.4L150.8,20.4z"/>
	</g>
</g>
<g>
	<g>
		<path class="st0" d="M150.7,20.8C150.7,20.8,150.7,20.8,150.7,20.8C150.6,20.8,150.6,20.8,150.7,20.8c-0.1,0-0.1,0-0.1,0
			c0,0,0,0,0,0.1c0.1,0.2,0.2,0.3,0.4,0.4c0.1,0.1,0.1,0,0.1-0.1c-0.1-0.1-0.2-0.2-0.4-0.3C150.7,20.9,150.8,20.8,150.7,20.8
			L150.7,20.8z"/>
	</g>
</g>
<g>
	<g>
		<path class="st0" d="M150.3,21.2c0.1,0.1,0.2,0.3,0.4,0.4c0.1,0,0.1-0.1,0.1-0.1C150.6,21.4,150.5,21.3,150.3,21.2
			C150.4,21.1,150.3,21.2,150.3,21.2L150.3,21.2z"/>
	</g>
</g>
<g>
	<g>
		<path class="st0" d="M150.1,21.6c0,0.2,0.1,0.3,0.3,0.4c0.1,0,0.1-0.1,0.1-0.1c-0.1-0.1-0.2-0.2-0.3-0.4
			C150.2,21.5,150.1,21.6,150.1,21.6L150.1,21.6z"/>
	</g>
</g>
<g>
	<g>
		<path class="st0" d="M149.9,22.1c0.1,0.2,0.1,0.2,0.3,0.3c0.1,0,0.1-0.1,0-0.1c-0.1-0.1-0.1-0.1-0.2-0.2
			C150,22,149.9,22.1,149.9,22.1L149.9,22.1z"/>
	</g>
</g>
<g>
	<g>
		<path class="st0" d="M149.8,22.6c0.1,0.1,0.1,0.1,0.2,0.2c0.1,0.1,0.1,0,0.1-0.1C150,22.6,149.9,22.5,149.8,22.6
			C149.8,22.4,149.7,22.5,149.8,22.6L149.8,22.6z"/>
	</g>
</g>
<g>
	<g>
		<path class="st0" d="M149.6,22.9c0,0.1,0,0.2,0.2,0.2c0.1,0,0.1-0.1,0-0.1c0,0-0.1-0.1-0.1-0.1C149.7,22.8,149.6,22.8,149.6,22.9
			L149.6,22.9z"/>
	</g>
</g>
<g>
	<g>
		<path class="st0" d="M149.4,23.3C149.4,23.3,149.4,23.4,149.4,23.3c0.1,0.1,0.2,0.1,0.2,0C149.5,23.3,149.5,23.3,149.4,23.3
			C149.4,23.2,149.3,23.3,149.4,23.3L149.4,23.3z"/>
	</g>
</g>
<g>
	<g>
		<path class="st5" d="M321.8,20.1c0.8,0.2,1.7,1,2.1,1.7c0.4,0.7,0.6,1.5,0.6,2.3c0,0.8-0.7,0.7-1.2,0.4c-0.5-0.3-1-0.6-1.4-1.1
			c-0.4-0.5-0.8-1.1-1.1-1.7c-0.2-0.3-0.2-0.7-0.3-1c-0.1-0.2-0.1-0.2,0,0.1c0,0.1,0.1,0,0.1,0c0-0.1,0-0.4-0.1-0.4c0,0-0.1,0-0.1,0
			c-0.1,1.1,0.9,2.5,1.6,3.2c0.5,0.4,1.5,1.4,2.2,1.2c0.9-0.2,0.3-2,0.1-2.5C323.9,21.4,322.9,20.3,321.8,20.1
			C321.8,20,321.8,20.1,321.8,20.1L321.8,20.1z"/>
	</g>
</g>
<ellipse transform="matrix(0.9877 -0.1564 0.1564 0.9877 8.603117e-02 51.0519)" class="st5" cx="324.5" cy="25" rx="0.4" ry="0.4"/>
<line class="st5" x1="325" y1="25.1" x2="325" y2="25.2"/>
<path class="st9" d="M332,22.8c-1.1,0.7-5.4,3-5.8,3.1c-1.5,0.3-1.2-2.1-1.2-2.1c0-0.1,1.2-7.2,5.1-7.5c0,0,1.2,0.3,1.9,2
	C332.5,19.4,333.1,22,332,22.8z"/>
<path class="st0" d="M329.6,23.7c-0.7,0.5-3.2,2-3.4,2.1c-0.9,0.2-0.7-1.4-0.7-1.4c0,0,0.7-4.9,3-5c0,0,0.7,0.2,1.1,1.3
	C329.8,21.4,330.2,23.2,329.6,23.7z"/>
<path class="st7" d="M326,26.4l4.2-2.3c0,0,1-0.9,2.5-0.4c1.5,0.5,1.9,0.6,1.6,1.4s0.3,1.2,0.3,1.2s0.5,0.1,0.1,0.6s0,0.9,0,0.9
	s0.6,0.1,0.1,0.5c-0.5,0.3-0.5,0.9-0.5,0.9s0.7,0.9,0,0.7c-0.7-0.3-1.8,1-1.5,1.3c0.1,0.1-2.3,0.3-3.4-0.6s-2.3-1.5-2.7-2.3
	C326.3,27.6,326,26.4,326,26.4z"/>
<path class="st10" d="M326.7,26.6l3.5-1.9c0,0,0.9-0.7,2.1-0.3c1.2,0.4,1.6,0.5,1.4,1.2c-0.2,0.7,0.3,1,0.3,1s0.4,0.1,0.1,0.5
	c-0.4,0.4,0,0.8,0,0.8s0.6,0.1,0.1,0.4s-0.4,0.8-0.4,0.8s0.6,0.8,0,0.6c-0.6-0.2-1.5,0.9-1.2,1.1c0.1,0-2,0.3-2.9-0.5
	s-1.9-1.3-2.3-2C326.9,27.6,326.7,26.6,326.7,26.6z"/>
<path class="st9" d="M318.6,30.3c1.2-0.5,5.5-2.8,5.8-3.1c1.1-1-1.1-2.1-1.1-2.1s-6.7-3-9,0.1c0,0-0.4,1.2,0.6,2.7
	C315.5,28.8,317.4,30.8,318.6,30.3z"/>
<path class="st7" d="M325.2,27.1l-4.1,2.4c0,0-1.3,0.4-1.6,1.9c-0.3,1.5-0.4,1.9,0.4,2.1c0.8,0.2,0.9,0.9,0.9,0.9s-0.2,0.5,0.5,0.4
	c0.6-0.1,0.8,0.5,0.8,0.5s-0.2,0.6,0.3,0.3c0.5-0.3,1,0.1,1,0.1s0.4,1.1,0.6,0.4s1.8-1,1.9-0.6c0,0.1,1.5-1.8,1.2-3.3
	c-0.2-1.4-0.1-2.7-0.6-3.5C326,28.1,325.2,27.1,325.2,27.1z"/>
<path class="st10" d="M324.9,27.8l-3.5,2c0,0-1.1,0.4-1.4,1.6s-0.4,1.6,0.3,1.8c0.7,0.2,0.8,0.8,0.8,0.8s-0.2,0.4,0.4,0.3
	c0.6-0.1,0.7,0.4,0.7,0.4s-0.2,0.5,0.3,0.3s0.9,0.1,0.9,0.1s0.4,0.9,0.5,0.3s1.5-0.9,1.6-0.5c0,0.1,1.3-1.5,1.1-2.8
	c-0.2-1.2-0.1-2.3-0.5-3C325.6,28.6,324.9,27.8,324.9,27.8z"/>
<g>
	<g>
		<path class="st7" d="M333.5,25.1c-0.6,0.3-1.2,0.5-1.8,0.7c-0.2,0.1-0.1,0.4,0.1,0.4c0.6-0.2,1.3-0.5,1.9-0.8
			C333.9,25.3,333.7,25,333.5,25.1L333.5,25.1z"/>
	</g>
</g>
<g>
	<g>
		<path class="st7" d="M334,26.7c-0.5,0.2-1.3,0.1-1.9,0.1c-0.2,0-0.2,0.4,0,0.4c0.6,0,1.4,0.1,2-0.1C334.4,27,334.3,26.6,334,26.7
			L334,26.7z"/>
	</g>
</g>
<g>
	<g>
		<path class="st7" d="M334.3,28.1c-0.8,0-1.7-0.1-2.5-0.3c-0.3,0-0.4,0.3-0.1,0.4c0.9,0.2,1.7,0.3,2.6,0.3
			C334.5,28.5,334.5,28.1,334.3,28.1L334.3,28.1z"/>
	</g>
</g>
<g>
	<g>
		<path class="st7" d="M333.2,29.9c-0.4-0.3-0.9-0.7-1.3-1c-0.1-0.1-0.4-0.4-0.5-0.2c-0.2,0.1,0,0.5,0.2,0.3c0,0,1.2,1.1,1.4,1.2
			C333.1,30.3,333.4,30,333.2,29.9L333.2,29.9z"/>
	</g>
</g>
<g>
	<g>
		<path class="st7" d="M331.5,30.7c-0.3-0.5-0.6-1-1-1.5c-0.1-0.2-0.5,0-0.3,0.2c0.4,0.5,0.7,1,1,1.5
			C331.3,31.1,331.6,30.9,331.5,30.7L331.5,30.7z"/>
	</g>
</g>
<g>
	<g>
		<path class="st7" d="M332.1,24.2c-0.3,0.4-0.6,0.7-1,1c-0.2,0.2,0.1,0.4,0.3,0.3c0.4-0.3,0.7-0.6,1-1
			C332.6,24.3,332.3,24,332.1,24.2L332.1,24.2z"/>
	</g>
</g>
<path class="st6" d="M326.2,26.6c0,0,2.2-1.5,3.8-2.1c1.5-0.5,2.6,2.1,2.5,2.9c-0.1,1-1.5,1.8-2.1,1.8c-0.5,0-1.3,0-1.6-0.2
	C327.6,28.5,326.2,26.6,326.2,26.6z"/>
<g>
	<g>
		<path class="st7" d="M325.5,32.3c0.1,0.3,0.3,0.6,0.4,0.8c0.1,0.2,0.4,0.4,0.4,0.6c0-0.1,0.1-0.2,0.1-0.2c0,0,0,0,0,0
			c0.1,0,0.1,0.1,0.2,0.1c0,0,0,0,0,0c-0.1-0.2-0.4,0-0.3,0.2c0,0,0,0,0,0c0,0.1,0.1,0.1,0.2,0.1c0,0,0,0,0,0c0.1,0,0.2-0.1,0.1-0.2
			c-0.1-0.2-0.3-0.4-0.4-0.6c-0.2-0.3-0.3-0.6-0.5-0.9C325.7,31.9,325.4,32.1,325.5,32.3L325.5,32.3z"/>
	</g>
</g>
<g>
	<g>
		<path class="st7" d="M324.5,32.7c0.2,0.7,0.4,1.4,0.6,2.1c0,0.2,0.4,0.1,0.4-0.1c-0.1-0.7-0.3-1.4-0.6-2.1
			C324.8,32.4,324.4,32.5,324.5,32.7L324.5,32.7z"/>
	</g>
</g>
<g>
	<g>
		<path class="st7" d="M323.5,33.1c-0.1,0.7-0.1,1.4-0.2,2.1c0,0.2,0.3,0.2,0.4,0c0.1-0.7,0.2-1.4,0.2-2.1
			C323.9,32.9,323.6,32.9,323.5,33.1L323.5,33.1z"/>
	</g>
</g>
<g>
	<g>
		<path class="st7" d="M322.7,32.8c0.1,0.2-0.3,0.8-0.4,1c-0.1,0.3-0.2,0.5-0.4,0.8c-0.1,0.2,0.2,0.4,0.3,0.2
			c0.2-0.4,0.4-0.9,0.6-1.3c0.1-0.2,0.3-0.5,0.2-0.8C322.9,32.5,322.6,32.5,322.7,32.8L322.7,32.8z"/>
	</g>
</g>
<g>
	<g>
		<path class="st7" d="M322,31.7c-0.2,0.3-0.4,0.6-0.7,0.8c-0.2,0.2-0.4,0.6-0.7,0.8c-0.2,0.1,0,0.4,0.2,0.3
			c0.3-0.2,0.5-0.6,0.7-0.9c0.3-0.3,0.6-0.6,0.8-0.9C322.5,31.7,322.2,31.5,322,31.7L322,31.7z"/>
	</g>
</g>
<g>
	<g>
		<path class="st7" d="M321.5,31c-0.1,0.2-0.8,0.2-0.9,0.2c-0.3,0-0.5,0.1-0.7,0.2c-0.2,0.1,0,0.4,0.2,0.3c0.5-0.2,1.6,0,1.8-0.7
			C322,30.9,321.6,30.8,321.5,31L321.5,31z"/>
	</g>
</g>
<g>
	<g>
		<path class="st7" d="M321.7,30c-0.3-0.1-0.7-0.2-1-0.1c-0.1,0-0.1,0.1-0.1,0.2c0,0,0,0,0,0c0,0.2,0.4,0.1,0.4-0.1c0,0,0,0,0,0
			c0,0.1-0.1,0.1-0.1,0.2c0.2-0.1,0.6,0.1,0.7,0.1C321.8,30.4,321.9,30.1,321.7,30L321.7,30z"/>
	</g>
</g>
<path class="st6" d="M325,27.5c0,0-2.2,1.3-3.3,2.5c-1,1.1,0.9,3,1.7,3.3c0.9,0.3,2.1-0.6,2.4-1.1c0.2-0.4,0.5-1.1,0.4-1.5
	C326.2,29.4,325,27.5,325,27.5z"/>
<path class="st0" d="M325.9,26.7c0,0,2.8-1.8,3.8-1c1,0.9,1.2,1.8,0.7,2.5c-0.8,1.1-2.9-0.3-3.1-0.3
	C327.2,27.9,325.9,26.7,325.9,26.7z"/>
<path class="st0" d="M325.3,26.9c0,0,1.1,3.2,0.1,4c-1.1,0.8-2,0.8-2.6,0.1c-0.9-1,1-2.8,1-3C323.8,28,325.3,26.9,325.3,26.9z"/>
<path class="st5" d="M326.2,27.2c0.9,1.8,1.7,4.3,1.7,4.3l-1.8-3l-1.3-2.1c0,0-0.4-1-0.3-1.1C324.6,25.2,325.4,25.4,326.2,27.2z"/>
<ellipse transform="matrix(0.3844 -0.9232 0.9232 0.3844 178.0955 316.446)" class="st7" cx="326.3" cy="24.7" rx="1.2" ry="0.7"/>
<path class="st0" d="M320.9,28.6c0.8-0.2,3.5-1.4,3.7-1.6c0.7-0.6-0.7-1.4-0.8-1.4c0,0-4.4-2.3-5.8-0.5c0,0-0.2,0.7,0.4,1.7
	C318.9,27.5,320.1,28.8,320.9,28.6z"/>
<ellipse transform="matrix(0.2309 -0.973 0.973 0.2309 223.0863 335.3556)" class="st7" cx="323.7" cy="26.6" rx="0.7" ry="1.2"/>
<g>
	<g>
		<path class="st0" d="M325.6,26.2c-0.3,0.1-0.5,0.3-0.7,0.5c-0.2,0.2,0.1,0.4,0.3,0.3c0.2-0.2,0.4-0.3,0.6-0.4
			C326,26.5,325.8,26.1,325.6,26.2L325.6,26.2z"/>
	</g>
</g>
<g>
	<g>
		<path class="st0" d="M325.9,27c-0.1,0.1-0.2,0.2-0.3,0.3c0,0,0,0.1,0,0.1C325.8,27.3,325.9,27.2,325.9,27
			C326,27.1,326,27,325.9,27L325.9,27z"/>
	</g>
</g>
<g>
	<g>
		<path class="st0" d="M326.2,27.5c-0.1,0.2-0.2,0.3-0.4,0.4c-0.1,0,0,0.1,0,0.1C326,27.8,326.1,27.7,326.2,27.5
			C326.3,27.5,326.2,27.4,326.2,27.5L326.2,27.5z"/>
	</g>
</g>
<g>
	<g>
		<path class="st0" d="M326.4,28c-0.1,0.1-0.2,0.1-0.3,0.2c0,0,0,0.1,0.1,0.1C326.2,28.2,326.4,28.1,326.4,28
			C326.4,27.9,326.4,27.9,326.4,28C326.4,27.9,326.4,27.9,326.4,28C326.4,27.9,326.4,27.9,326.4,28C326.4,27.9,326.3,27.9,326.4,28
			C326.3,27.9,326.3,28,326.4,28L326.4,28z"/>
	</g>
</g>
<g>
	<g>
		<path class="st0" d="M326.6,28.2c-0.1,0.1-0.2,0.2-0.3,0.3c0,0,0,0.1,0,0.1C326.4,28.4,326.5,28.4,326.6,28.2
			C326.7,28.2,326.6,28.1,326.6,28.2L326.6,28.2z"/>
	</g>
</g>
<g>
	<g>
		<path class="st0" d="M326.7,28.5c-0.1,0.1-0.1,0.2-0.2,0.3c-0.1,0,0,0.1,0,0.1C326.7,28.8,326.8,28.8,326.7,28.5
			C326.8,28.5,326.7,28.5,326.7,28.5L326.7,28.5z"/>
	</g>
</g>
<g>
	<g>
		<path class="st0" d="M326.9,29c-0.1,0.1-0.1,0.1-0.2,0.2c-0.1,0,0,0.1,0,0.1C326.9,29.1,326.9,29.2,326.9,29
			C327,29,326.9,28.9,326.9,29L326.9,29z"/>
	</g>
</g>
<g>
	<g>
		<path class="st0" d="M327,29.3c0,0-0.1,0.1-0.1,0.1c0,0,0,0.1,0.1,0.1C327,29.4,327,29.4,327,29.3C327.1,29.3,327.1,29.2,327,29.3
			L327,29.3z"/>
	</g>
</g>
<g>
	<g>
		<path class="st0" d="M327.1,29.6c0,0-0.1,0.1-0.1,0.1c-0.1,0,0,0.1,0,0.1C327.2,29.7,327.2,29.7,327.1,29.6
			C327.2,29.5,327.2,29.5,327.1,29.6L327.1,29.6z"/>
	</g>
</g>
<g>
	<g>
		<path class="st0" d="M327.3,29.9C327.3,29.9,327.3,29.9,327.3,29.9c-0.1,0.1,0,0.2,0,0.1C327.4,30,327.4,30,327.3,29.9
			C327.5,29.9,327.4,29.8,327.3,29.9L327.3,29.9z"/>
	</g>
</g>
<g>
	<circle class="st2" cx="284.3" cy="101" r="3.4"/>
	<ellipse transform="matrix(0.4344 -0.9007 0.9007 0.4344 78.3316 312.7552)" class="st0" cx="288.2" cy="94" rx="4.9" ry="2"/>
	
		<ellipse transform="matrix(0.9951 -9.887148e-02 9.887148e-02 0.9951 -7.7881 28.4234)" class="st0" cx="282.9" cy="92.8" rx="2" ry="4.9"/>
	<ellipse transform="matrix(0.7745 -0.6326 0.6326 0.7745 2.2542 197.5246)" class="st0" cx="278.1" cy="95.6" rx="2" ry="4.9"/>
	
		<ellipse transform="matrix(0.9951 -9.887148e-02 9.887148e-02 0.9951 -8.7063 27.7765)" class="st0" cx="275.9" cy="101.7" rx="4.9" ry="2"/>
	<ellipse transform="matrix(0.6704 -0.742 0.742 0.6704 12.288 242.0588)" class="st0" cx="278.6" cy="107.2" rx="4.9" ry="2"/>
	<ellipse transform="matrix(0.9807 -0.1956 0.1956 0.9807 -15.809 57.983)" class="st0" cx="285.7" cy="109" rx="2" ry="4.9"/>
	<ellipse transform="matrix(0.9548 -0.2972 0.2972 0.9548 -16.1858 91.3613)" class="st0" cx="292.3" cy="98.9" rx="4.9" ry="2"/>
	<ellipse transform="matrix(0.4344 -0.9007 0.9007 0.4344 70.7 321.4782)" class="st0" cx="291.3" cy="104.4" rx="2" ry="4.9"/>
</g>
<g>
	<circle class="st2" cx="225.6" cy="104.2" r="3.4"/>
	<ellipse transform="matrix(0.4344 -0.9007 0.9007 0.4344 42.2853 261.6629)" class="st0" cx="229.5" cy="97.2" rx="4.9" ry="2"/>
	
		<ellipse transform="matrix(0.9951 -9.887148e-02 9.887148e-02 0.9951 -8.3878 22.6345)" class="st0" cx="224.2" cy="95.9" rx="2" ry="4.9"/>
	<ellipse transform="matrix(0.7745 -0.6326 0.6326 0.7745 -12.9836 161.0971)" class="st0" cx="219.4" cy="98.8" rx="2" ry="4.9"/>
	
		<ellipse transform="matrix(0.9951 -9.887148e-02 9.887148e-02 0.9951 -9.306 21.9875)" class="st0" cx="217.2" cy="104.9" rx="4.9" ry="2"/>
	<ellipse transform="matrix(0.6704 -0.742 0.742 0.6704 -9.4023 199.5401)" class="st0" cx="219.9" cy="110.4" rx="4.9" ry="2"/>
	<ellipse transform="matrix(0.9807 -0.1956 0.1956 0.9807 -17.5602 46.5618)" class="st0" cx="227" cy="112.2" rx="2" ry="4.9"/>
	<ellipse transform="matrix(0.9548 -0.2972 0.2972 0.9548 -19.777 74.055)" class="st0" cx="233.6" cy="102.1" rx="4.9" ry="2"/>
	<ellipse transform="matrix(0.4344 -0.9007 0.9007 0.4344 34.6536 270.3858)" class="st0" cx="232.6" cy="107.6" rx="2" ry="4.9"/>
</g>
<g>
	<circle class="st2" cx="51.3" cy="82.3" r="2.1"/>
	<ellipse transform="matrix(0.4344 -0.9007 0.9007 0.4344 -39.9099 92.5147)" class="st0" cx="53.7" cy="78" rx="3" ry="1.2"/>
	
		<ellipse transform="matrix(0.9951 -9.887148e-02 9.887148e-02 0.9951 -7.3949 5.3679)" class="st0" cx="50.5" cy="77.3" rx="1.2" ry="3"/>
	<ellipse transform="matrix(0.7745 -0.6326 0.6326 0.7745 -39.2558 47.9143)" class="st0" cx="47.6" cy="79" rx="1.2" ry="3"/>
	
		<ellipse transform="matrix(0.9951 -9.887148e-02 9.887148e-02 0.9951 -7.9556 4.9728)" class="st0" cx="46.2" cy="82.8" rx="3" ry="1.2"/>
	<ellipse transform="matrix(0.6704 -0.742 0.742 0.6704 -48.1056 63.8843)" class="st0" cx="47.9" cy="86.1" rx="3" ry="1.2"/>
	<ellipse transform="matrix(0.9807 -0.1956 0.1956 0.9807 -16.0508 11.8896)" class="st0" cx="52.2" cy="87.2" rx="1.2" ry="3"/>
	<ellipse transform="matrix(0.9548 -0.2972 0.2972 0.9548 -21.5424 20.3778)" class="st0" cx="56.2" cy="81" rx="3" ry="1.2"/>
	<ellipse transform="matrix(0.4344 -0.9007 0.9007 0.4344 -44.5701 97.8413)" class="st0" cx="55.6" cy="84.4" rx="1.2" ry="3"/>
</g>
<g>
	<circle class="st2" cx="19.3" cy="81.1" r="2.1"/>
	<ellipse transform="matrix(0.4344 -0.9007 0.9007 0.4344 -56.939 62.9792)" class="st0" cx="21.7" cy="76.8" rx="3" ry="1.2"/>
	
		<ellipse transform="matrix(0.9951 -9.887148e-02 9.887148e-02 0.9951 -7.4324 2.1949)" class="st0" cx="18.4" cy="76.1" rx="1.2" ry="3"/>
	<ellipse transform="matrix(0.7745 -0.6326 0.6326 0.7745 -45.7164 27.3769)" class="st0" cx="15.5" cy="77.8" rx="1.2" ry="3"/>
	
		<ellipse transform="matrix(0.9951 -9.887148e-02 9.887148e-02 0.9951 -7.9931 1.7998)" class="st0" cx="14.2" cy="81.5" rx="3" ry="1.2"/>
	<ellipse transform="matrix(0.6704 -0.742 0.742 0.6704 -57.7665 39.7186)" class="st0" cx="15.8" cy="84.9" rx="3" ry="1.2"/>
	<ellipse transform="matrix(0.9807 -0.1956 0.1956 0.9807 -16.4332 5.6011)" class="st0" cx="20.1" cy="86" rx="1.2" ry="3"/>
	<ellipse transform="matrix(0.9548 -0.2972 0.2972 0.9548 -22.631 10.8023)" class="st0" cx="24.2" cy="79.8" rx="3" ry="1.2"/>
	<ellipse transform="matrix(0.4344 -0.9007 0.9007 0.4344 -61.5992 68.3058)" class="st0" cx="23.6" cy="83.2" rx="1.2" ry="3"/>
</g>
<g>
	<circle class="st2" cx="61.2" cy="62.9" r="2.1"/>
	<ellipse transform="matrix(0.4344 -0.9007 0.9007 0.4344 -16.8626 90.438)" class="st0" cx="63.6" cy="58.6" rx="3" ry="1.2"/>
	
		<ellipse transform="matrix(0.9951 -9.887148e-02 9.887148e-02 0.9951 -5.4294 6.2488)" class="st0" cx="60.3" cy="57.9" rx="1.2" ry="3"/>
	<ellipse transform="matrix(0.7745 -0.6326 0.6326 0.7745 -24.7628 49.785)" class="st0" cx="57.4" cy="59.6" rx="1.2" ry="3"/>
	
		<ellipse transform="matrix(0.9951 -9.887148e-02 9.887148e-02 0.9951 -5.9901 5.8537)" class="st0" cx="56.1" cy="63.4" rx="3" ry="1.2"/>
	<ellipse transform="matrix(0.6704 -0.742 0.742 0.6704 -30.4655 64.8172)" class="st0" cx="57.7" cy="66.7" rx="3" ry="1.2"/>
	<ellipse transform="matrix(0.9807 -0.1956 0.1956 0.9807 -12.0677 13.4456)" class="st0" cx="62" cy="67.8" rx="1.2" ry="3"/>
	<ellipse transform="matrix(0.9548 -0.2972 0.2972 0.9548 -15.3331 22.4351)" class="st0" cx="66.1" cy="61.6" rx="3" ry="1.2"/>
	<ellipse transform="matrix(0.4344 -0.9007 0.9007 0.4344 -21.5228 95.7647)" class="st0" cx="65.5" cy="65" rx="1.2" ry="3"/>
</g>
<g>
	
		<ellipse transform="matrix(0.3698 -0.9291 0.9291 0.3698 215.5703 504.7281)" class="st2" cx="479.9" cy="93.4" rx="2.1" ry="2.1"/>
	<ellipse transform="matrix(0.7367 -0.6762 0.6762 0.7367 66.2329 350.8282)" class="st0" cx="483.7" cy="90.4" rx="3" ry="1.2"/>
	<ellipse transform="matrix(0.2762 -0.9611 0.9611 0.2762 263.0774 526.2457)" class="st0" cx="480.9" cy="88.5" rx="3" ry="1.2"/>
	<ellipse transform="matrix(0.9535 -0.3013 0.3013 0.9535 -4.6157 148.0557)" class="st0" cx="477.6" cy="89" rx="1.2" ry="3"/>
	<ellipse transform="matrix(0.2762 -0.9611 0.9611 0.2762 255.3882 523.0248)" class="st0" cx="474.9" cy="92" rx="1.2" ry="3"/>
	<ellipse transform="matrix(0.8973 -0.4414 0.4414 0.8973 6.5732 219.6046)" class="st0" cx="475.2" cy="95.7" rx="3" ry="1.2"/>
	<ellipse transform="matrix(0.181 -0.9835 0.9835 0.181 295.4828 551.4579)" class="st0" cx="478.8" cy="98.3" rx="3" ry="1.2"/>
	
		<ellipse transform="matrix(7.698566e-02 -0.997 0.997 7.698566e-02 353.7821 570.2953)" class="st0" cx="484.9" cy="94.1" rx="1.2" ry="3"/>
	<ellipse transform="matrix(0.7367 -0.6762 0.6762 0.7367 61.5974 352.1801)" class="st0" cx="483.1" cy="97" rx="1.2" ry="3"/>
</g>
<g>
	
		<ellipse transform="matrix(0.3698 -0.9291 0.9291 0.3698 209.1477 469.3194)" class="st2" cx="450.6" cy="80.5" rx="2.1" ry="2.1"/>
	<ellipse transform="matrix(0.7367 -0.6762 0.6762 0.7367 67.2853 327.5921)" class="st0" cx="454.3" cy="77.4" rx="3" ry="1.2"/>
	<ellipse transform="matrix(0.2762 -0.9611 0.9611 0.2762 254.324 488.6835)" class="st0" cx="451.6" cy="75.5" rx="3" ry="1.2"/>
	<ellipse transform="matrix(0.9535 -0.3013 0.3013 0.9535 -2.0701 138.6192)" class="st0" cx="448.3" cy="76" rx="1.2" ry="3"/>
	<ellipse transform="matrix(0.2762 -0.9611 0.9611 0.2762 246.6349 485.4627)" class="st0" cx="445.6" cy="79" rx="1.2" ry="3"/>
	<ellipse transform="matrix(0.8973 -0.4414 0.4414 0.8973 9.2877 205.3328)" class="st0" cx="445.9" cy="82.7" rx="3" ry="1.2"/>
	<ellipse transform="matrix(0.181 -0.9835 0.9835 0.181 284.2292 512.0052)" class="st0" cx="449.5" cy="85.3" rx="3" ry="1.2"/>
	
		<ellipse transform="matrix(7.698566e-02 -0.997 0.997 7.698566e-02 339.6555 529.0966)" class="st0" cx="455.6" cy="81.1" rx="1.2" ry="3"/>
	<ellipse transform="matrix(0.7367 -0.6762 0.6762 0.7367 62.6498 328.9439)" class="st0" cx="453.8" cy="84" rx="1.2" ry="3"/>
</g>
<g>
	<ellipse transform="matrix(0.3698 -0.9291 0.9291 0.3698 239.2143 510.859)" class="st2" cx="496.2" cy="79.1" rx="2.1" ry="2.1"/>
	<ellipse transform="matrix(0.7367 -0.6762 0.6762 0.7367 80.2481 358.0964)" class="st0" cx="500" cy="76" rx="3" ry="1.2"/>
	<ellipse transform="matrix(0.2762 -0.9611 0.9611 0.2762 288.712 531.5541)" class="st0" cx="497.3" cy="74.1" rx="3" ry="1.2"/>
	<ellipse transform="matrix(0.9535 -0.3013 0.3013 0.9535 0.4726 152.3124)" class="st0" cx="493.9" cy="74.6" rx="1.2" ry="3"/>
	<ellipse transform="matrix(0.2762 -0.9611 0.9611 0.2762 281.0228 528.3333)" class="st0" cx="491.3" cy="77.6" rx="1.2" ry="3"/>
	<ellipse transform="matrix(0.8973 -0.4414 0.4414 0.8973 14.5922 225.3427)" class="st0" cx="491.6" cy="81.3" rx="3" ry="1.2"/>
	<ellipse transform="matrix(0.181 -0.9835 0.9835 0.181 322.9943 555.7647)" class="st0" cx="495.2" cy="84" rx="3" ry="1.2"/>
	
		<ellipse transform="matrix(7.698566e-02 -0.997 0.997 7.698566e-02 383.1879 573.3295)" class="st0" cx="501.2" cy="79.7" rx="1.2" ry="3"/>
	<ellipse transform="matrix(0.7367 -0.6762 0.6762 0.7367 75.6126 359.4482)" class="st0" cx="499.4" cy="82.6" rx="1.2" ry="3"/>
</g>
<g>
	<circle class="st2" cx="376.3" cy="100.7" r="1.8"/>
	<ellipse transform="matrix(0.4344 -0.9007 0.9007 0.4344 126.4348 395.6842)" class="st0" cx="378.3" cy="97.2" rx="2.5" ry="1"/>
	
		<ellipse transform="matrix(0.9951 -9.887148e-02 9.887148e-02 0.9951 -7.7054 37.6065)" class="st0" cx="375.6" cy="96.5" rx="1" ry="2.5"/>
	<ellipse transform="matrix(0.7745 -0.6326 0.6326 0.7745 22.1789 258.1697)" class="st0" cx="373.2" cy="98" rx="1" ry="2.5"/>
	
		<ellipse transform="matrix(0.9951 -9.887148e-02 9.887148e-02 0.9951 -8.1737 37.2765)" class="st0" cx="372" cy="101.1" rx="2.5" ry="1"/>
	<ellipse transform="matrix(0.6704 -0.742 0.742 0.6704 45.9756 311.296)" class="st0" cx="373.4" cy="103.9" rx="2.5" ry="1"/>
	<ellipse transform="matrix(0.9807 -0.1956 0.1956 0.9807 -13.223 75.7619)" class="st0" cx="377" cy="104.8" rx="1" ry="2.5"/>
	<ellipse transform="matrix(0.9548 -0.2972 0.2972 0.9548 -12.4321 117.5683)" class="st0" cx="380.4" cy="99.7" rx="2.5" ry="1"/>
	<ellipse transform="matrix(0.4344 -0.9007 0.9007 0.4344 122.542 400.1335)" class="st0" cx="379.9" cy="102.5" rx="1" ry="2.5"/>
</g>
<g>
	<circle class="st2" cx="344.7" cy="96.4" r="1.8"/>
	<ellipse transform="matrix(0.4344 -0.9007 0.9007 0.4344 112.5089 364.7715)" class="st0" cx="346.7" cy="92.8" rx="2.5" ry="1"/>
	
		<ellipse transform="matrix(0.9951 -9.887148e-02 9.887148e-02 0.9951 -7.4283 34.463)" class="st0" cx="344" cy="92.2" rx="1" ry="2.5"/>
	<ellipse transform="matrix(0.7745 -0.6326 0.6326 0.7745 17.8197 237.2076)" class="st0" cx="341.6" cy="93.6" rx="1" ry="2.5"/>
	
		<ellipse transform="matrix(0.9951 -9.887148e-02 9.887148e-02 0.9951 -7.8966 34.133)" class="st0" cx="340.4" cy="96.7" rx="2.5" ry="1"/>
	<ellipse transform="matrix(0.6704 -0.742 0.742 0.6704 38.8089 286.4265)" class="st0" cx="341.8" cy="99.5" rx="2.5" ry="1"/>
	<ellipse transform="matrix(0.9807 -0.1956 0.1956 0.9807 -12.9787 69.5014)" class="st0" cx="345.4" cy="100.5" rx="1" ry="2.5"/>
	<ellipse transform="matrix(0.9548 -0.2972 0.2972 0.9548 -12.561 107.9853)" class="st0" cx="348.8" cy="95.3" rx="2.5" ry="1"/>
	<ellipse transform="matrix(0.4344 -0.9007 0.9007 0.4344 108.6161 369.2209)" class="st0" cx="348.3" cy="98.1" rx="1" ry="2.5"/>
</g>
<circle class="st11" cx="341.1" cy="49.4" r="3.4"/>
<circle class="st11" cx="336.5" cy="57.1" r="3.4"/>
<circle class="st11" cx="343" cy="61.6" r="3.4"/>
<circle class="st11" cx="337.7" cy="68.9" r="3.4"/>
<g>
	<g>
		<path class="st4" d="M341.2,52c-4,7.8-1,16.3-0.3,24.4c0.5,5-0.4,9.4-2.3,14c-1.6,3.9-3.5,7.6-4.5,11.8c-0.1,0.3,0.4,0.4,0.4,0.1
			c1.8-8,7.1-14.7,7-23.1c-0.1-9-4.3-18.3,0.1-26.9C341.8,51.9,341.4,51.7,341.2,52L341.2,52z"/>
	</g>
</g>
<g>
	<g>
		<path class="st4" d="M190.3,104.8c-1.8-23.1-15-50,0-71.3c0.2-0.2-0.2-0.5-0.4-0.2c-15.1,21.4-1.9,48.4-0.1,71.6
			C189.8,105.1,190.3,105.1,190.3,104.8L190.3,104.8z"/>
	</g>
</g>
<circle class="st11" cx="190.5" cy="32.3" r="3.4"/>
<g>
	<g>
		<path class="st4" d="M193.8,106.2c-2.3-1.6-3-4.8-3.9-7.3c-0.6-1.9-1.1-3.8-1.5-5.7c-1-4.4-1.4-8.9-1.4-13.4c0.1-9,2.1-17.9,6-26
			c0.1-0.3-0.3-0.5-0.4-0.2c-4.2,8.7-6.3,18.3-6.1,27.9c0.1,4.7,0.7,9.3,1.9,13.8c0.9,3.5,1.9,9,5.1,11.2
			C193.8,106.8,194,106.4,193.8,106.2L193.8,106.2z"/>
	</g>
</g>
<g>
	<g>
		<path class="st4" d="M181.8,107.9c-3.6-11.5-7.2-23.2-8.6-35.2c-1.4-12.5,0.6-24.9,2.7-37.2c0-0.3-0.4-0.4-0.4-0.1
			c-2.1,12.4-4,24.8-2.7,37.4c1.3,12.1,5,23.8,8.6,35.4C181.4,108.3,181.8,108.2,181.8,107.9L181.8,107.9z"/>
	</g>
</g>
<circle class="st11" cx="175.5" cy="35.7" r="3.4"/>
<circle class="st11" cx="193.7" cy="53.4" r="3.4"/>
</svg>
