<?xml version="1.0" encoding="utf-8"?>
<!-- Generator: Adobe Illustrator 18.0.0, SVG Export Plug-In . SVG Version: 6.00 Build 0)  -->
<!DOCTYPE svg PUBLIC "-//W3C//DTD SVG 1.1//EN" "http://www.w3.org/Graphics/SVG/1.1/DTD/svg11.dtd">
<svg version="1.1" id="Layer_1" xmlns="http://www.w3.org/2000/svg" xmlns:xlink="http://www.w3.org/1999/xlink" x="0px" y="0px"
	 viewBox="0 0 20 20" enable-background="new 0 0 20 20" xml:space="preserve">
<g id="icomoon-ignore">
</g>
<path fill="#FFFFFF" d="M17.9,0.7H2.1C1.3,0.7,0.7,1.3,0.7,2V18c0,0.7,0.6,1.3,1.4,1.3h15.9c0.8,0,1.4-0.6,1.4-1.3V2
	C19.3,1.3,18.7,0.7,17.9,0.7z M6.2,16.6H3.4V7.7h2.8V16.6z M4.8,6.5c-0.9,0-1.6-0.7-1.6-1.6c0-0.9,0.7-1.6,1.6-1.6
	c0.9,0,1.6,0.7,1.6,1.6C6.4,5.7,5.7,6.5,4.8,6.5z M16.6,16.6h-2.8v-4.3c0-1,0-2.4-1.4-2.4c-1.4,0-1.7,1.1-1.7,2.3v4.4H7.9V7.7h2.6
	v1.2h0c0.4-0.7,1.3-1.4,2.6-1.4c2.8,0,3.3,1.8,3.3,4.2V16.6z"/>
</svg>
