<?xml version="1.0" encoding="utf-8"?>
<!-- Generator: Adobe Illustrator 18.0.0, SVG Export Plug-In . SVG Version: 6.00 Build 0)  -->
<!DOCTYPE svg PUBLIC "-//W3C//DTD SVG 1.1//EN" "http://www.w3.org/Graphics/SVG/1.1/DTD/svg11.dtd">
<svg version="1.1" id="Lag_1" xmlns="http://www.w3.org/2000/svg" xmlns:xlink="http://www.w3.org/1999/xlink" x="0px" y="0px"
	 viewBox="0 0 841.9 1190.6" enable-background="new 0 0 841.9 1190.6" xml:space="preserve">
<path d="M776.9,168.9l-0.2,592.2c-1.6,26.5-9.4,52.7-19.8,76.7C736.3,887,697.2,930,650.8,958.3c-35.4,22.4-74.1,37.9-114.8,47.3
	c-41.8,9.5-86.8,13.6-131.4,12.9c-108.3-2.8-207.4-43.7-277.9-126.1c-28.2-33.5-58.5-87.6-61.3-144c-0.1-3.6,0-579.4,0-579.4H776.9z
	"/>
<path fill="#0062AE" d="M766,762c-10.1-24.2-37.8-42.8-63.7-44.6c-13.9-0.9-27.2,2.1-38.8,7.8c-1.6-22.9-14.3-44.8-34.7-57
	c-16.4-9.3-37-13.8-56.8-9.3c-24.9,4.4-48.3,26.8-54.3,51.3c-1.4,5.3-1.9,10.8-2.5,16.2c-19-11.6-47.3-13.2-67.5-3.2
	c-8.8,4.6-20.5,10.6-26.7,18.9c0,0-0.1-562.9-0.1-566.1l345.1,0V762z"/>
<path fill="#9D9D9C" d="M414.4,1009.3h-0.5c-94.7-0.5-181.6-31.2-250.3-92.2c-43-38.6-84.8-98.6-90.7-169.4
	c-0.6-13.4,0-571.7,0-571.7h341.6L414.4,1009.3z"/>
<polyline fill="#9D9D9C" points="414.3,174.5 414.3,1008.8 413.9,1008.8 "/>
<polyline fill="#9D9D9C" points="414.3,173.5 414.3,1007.8 413.9,1007.8 "/>
<polyline fill="#9D9D9C" points="414.3,174.5 414.3,1008.8 413.9,1008.8 "/>
<polyline fill="#9D9D9C" points="414.3,175.5 414.4,1009.1 413.9,1009.1 "/>
<polyline fill="#9D9D9C" points="414.3,177.4 414.3,989.8 413.9,990.8 "/>
<path d="M248.6,223.9c38.4,28.9,85,43.7,136.2,42.4l-1.1,60.1h-96l-8,70.5c-1.4,13.8-3.4,27.7-4.8,41.1l-6.5,54.1l-2.1,18.2
	c0.5,2.5,2.8,3.7,4.1,5.8c6.7,8.1,7.4,21.7,2.3,30.9c-5.5,9.7-15.7,15.9-27,15.9c-12.2-0.2-23.1-7.9-27.3-19.2
	c-4.6-11.5-0.4-24.7,8.3-32.8l-8.6-62.2l-4.8-35.8l-9.5-65.1c-1.2-7.4-1.7-14.2-3.8-21.3h-92.9c-0.4-20.9-0.9-59.2-0.9-58.7
	c51.8,0.9,98.1-15,137.1-45.4c0.4-0.5,0.5-1.1,1.2-1.4C245.7,221.7,247.2,223.1,248.6,223.9z"/>
<path fill="#0062AE" d="M374.7,273.1l-0.2,41.6l-9.9,0.4l-243.2,1.6H114l-0.5-0.5c-0.4-14.6-0.7-27.3-0.5-41.6
	c11.3-0.5,23.1-1.1,34-3.2c36-5.8,68.8-19.9,97.7-41.6C282.6,256.9,325.6,272.4,374.7,273.1z"/>
<path d="M603.2,267.5c1.8,3.4,2.1,7.6,0.2,10.9l0.5,1.6c2.3,3.9,4.8,7.8,6.5,11.8c5.1,5.5,8.6,11.1,11.5,17.5
	c4.1,3.5,6,8.1,7.9,12.5c4.2,3.9,7.1,9,9.5,14.3c4.2,4.2,6.7,9.2,8.8,14.5c4.1,4.4,7.1,9.3,9.2,14.6c3.7,3.9,6.2,8.3,8.3,12.9
	c3.5,3.5,5.5,7.9,7.6,12.2c2.5,3.4,4.9,6.7,6.9,10.4c0.9,0.7,2.1-0.2,3,0.4c4.6,0.5,8.8,4.2,9.9,8.6c0.4,1.6-0.5,3.5,0.7,4.8
	c2.8-2.1,4.8-5.5,7.4-7.9c7.6-9.2,13-18.9,18.9-28.9c-2.6-1.8-2.6-5.1-2.5-7.6c0.7-1.8,1.8-3.5,3.2-4.8c2.1-1.1,4.8-1.4,7.2-1.8
	c0.5-4.4,0.2-9-0.5-13.4c1.1-3.5,5.1-4.4,7.4-7.1c3.2-2.8,5.6-6.2,8.3-9.5l1.2-0.5l11.1,5.5c1.2,3.2-1.1,5.8-0.7,9
	c0,4.2-0.2,9.5,0.5,13.8c-4.6,2.3-8.1,6-11.1,9.9c0,0.9,1.1,0.9,1.6,1.6c2.3,1.6,2.3,4.2,2.3,6.7c-0.5,2.6-1.9,5.3-4.2,6.9l-4.4,1.2
	c-7.6,19.6-15.9,39-26.3,57.1c1.4,3,1.2,6.7,0.5,9.7c-1.4,3.4-4.8,6-8.6,5.8c-1.6-1.1-2.8,0-3.5,1.4c-3,4.1-7.2,7.4-10.2,11.1
	c1.2,3-0.7,5.8-2.1,8.1c-2.5,2.6-6.3,2.5-9.5,1.6c-16,12.7-33.9,22.4-52.7,28.4c-19,6.5-40.6,7.8-61.5,6
	c-15.7-2.1-30.7-6.3-43.9-14.3c-3.5,1.8-8.6,2.8-12.2,0.5c-1.6-1.1-4.2-2.3-4.2-4.8c-0.9-0.7,0.5-1.9-0.5-2.6
	c-5.3-2.6-10.6-5.5-16.4-6.5c-3.5,1.9-8.8,2.6-12.7,0.9c-1.8-0.9-3.9-2.6-4.2-4.6c-0.7-1.2,0.9-3.4-1.1-3.7
	c-6.2-3.9-13.2-6-20.5-6.7c-4.8,1.8-12,2.3-16-1.6c-8.3-10.4-3-26.1,1.2-37c1.2-3.4,3-6.7,4.6-10.2c1.8-2.1,2.6-4.9,4.2-7.2
	c5.5-9,11.8-16.9,19.4-24.9c10.2-8.5,20.6-19.4,34.7-19.8c4.8-0.5,8.6,2.1,11.5,5.5c0,1.6,1.1,2.6,1.2,4.1c1.1,4.4,0.7,8.6,1.1,12.9
	c2.5,5.6,5.1,11.5,9.3,16.2c1.2-4.1,4.8-8.3,9.5-9.3c3.4-5.3,3.7-12,7.6-17.3c0.7-2.3,1.8-4.6,2.3-7.1c1.2-3.9,3.9-7.2,4.2-11.5
	c1.2-3.7,2.6-7.2,4.6-10.8c1.2-5.3,3-10.6,6.3-15.2c0.9-5.8,3.5-11.3,6.3-16.2c1.2-6,2.6-11.6,6.2-16.6c1.1-5.8,3.4-11.5,6.3-16.6
	c1.1-4.8,2.5-9.7,4.4-13.9c-2.1-2.5-2.1-6.3-1.2-9.5c1.4-4.4,6.2-8.3,11.1-9C594.6,259.6,600.7,262,603.2,267.5z"/>
<path fill="#0062AE" d="M594.7,271.6c0.2,1.4,0.9,2.5,0.2,3.9c-0.5,1.6-2.3,2.1-3.7,2.5c-1.8-0.2-3.4-0.9-4.2-2.5
	c-1.2-1.9-0.4-4.2,0.9-6C590,267.3,594,268.7,594.7,271.6z"/>
<g>
	<path fill="#B68000" d="M600.4,268.6c1.2,2.1,1.2,5.5,0.4,7.4c-2.1-1.6-2.6-4.2-3.5-6.5c-1.8-2.3-4.6-3.7-7.6-3.5
		c-4.1,1.2-6.5,4.4-7.9,8.3l-1.1,0.7c-0.9-2.3-1.1-4.8,0.5-6.9c1.2-1.9,3-2.8,4.8-4.2c3.5-1.4,7.9-0.9,11.1,0.9
		C598.6,265.7,599.5,267.3,600.4,268.6z"/>
	<path fill="#B68000" d="M594.2,283.4c-2.1,0.5-4.8,1.8-6.5,0l0.9-2.3l4.4,0.2L594.2,283.4z"/>
</g>
<path fill="#0062AE" d="M604.1,299.1c1.6,3.4,6,5.6,6.7,9.5c2.1,4.4,4.9,8.8,8.5,12.7c1.9,4.8,5.6,9.2,8.8,13.4
	c2.1,5.5,5.6,10.6,9.3,15.2c0.7,3,2.5,5.5,4.2,8.1c1.4,3.4,6,5.5,6.7,9.3c1.1,3.7,4.6,6.5,6.3,9.9c2.3,4.4,4.4,8.8,7.9,12.5
	c1.9,6.3,7.2,10.6,9.7,16.8c-1.9,3.7-2.8,9.2-0.2,12.7c2.3,3,5.3,4.6,9,4.8c-3.4,3-7.4,6.7-11.6,8.5c-2.6-2.1-6.2-1.8-9-0.9
	c-3.9,1.9-5.5,5.8-5.3,9.5c-2.8,1.6-5.5,2.8-8.3,3.5c-18.7,6.5-42.3,7.9-62.4,3.7c-6.7-1.9-13.6-3.4-19.8-6.3
	c-1.9-1.1-1.2-3.5-2.3-5.1c-1.6-2.6-4.8-3.7-7.6-4.2c-1.9,0.2-3.5,1.2-4.9,2.6c-4.8-2.3-9.9-4.4-13.6-8.5c-0.2-2.6,3.2-3.4,4.4-5.1
	c2.8-3,3-8.1,1.4-12c-0.4-1.2-2.5-2.1-1.2-3.7l2.8-8.6c3.4-4.2,4.4-9.7,6-14.6c3.2-4.2,3.4-9.5,5.1-14.1c2.8-4.1,3.9-8.6,5.3-13.2
	c2.5-5.1,4.9-10.4,6.2-16.2c4.4-7.2,5.5-15.9,9.7-23.3c1.1-3.2,2.1-6.3,2.5-9.9c3.4-5.1,4.6-11.1,6.5-16.9l1.6-1.9
	c2.8,0,6.2,0.5,9-0.5C599.3,290.1,601.4,294.7,604.1,299.1z"/>
<path fill="#0062AE" d="M280.3,321.3c-0.9,10.9-2.3,21.7-3.4,32.6l-6.2,57.8l-10.6,89.6c-0.4,2.6-0.7,5.5-1.6,7.8
	c-1.6,1.1-4.1,0-6.2,0.5l-19-0.4l-7.4-52.7l-8.3-60.5l-8.3-58.9c-0.7-5.1-1.8-10.1-2.1-15.2l4.8-0.4l47.4-0.4H280.3z"/>
<path fill="#B68000" d="M749.4,339.3c0.2,0.5,0.5,1.2,0.2,1.8c-0.9,0.2-1.8-1.1-2.8-0.4c-0.4,0.5-0.2,1.2,0,1.6
	c1.1,0.9,2.5,1.6,2.3,3c-0.4,0.5-0.2,1.2-0.7,1.4c-1.1,0-2.3-1.4-3-0.2c-0.4,2.5,3.7,2.6,2.6,5.5l-0.2,0.7c-1.4,0-3.3-1.8-4.2-0.2
	c0.4,1.8,2.3,1.6,3.2,2.6c0.2,1.1,1.1,2.1,0.4,3c-0.7,0.9-1.9,1.6-3,0.9c-1.1-0.5-2.1-0.9-3.4-0.7c-1.1,0.9,0.7,1.4,0.9,2.1
	c1.1,0.4,1.2,1.4,1.1,2.3c0,0.7-0.5,1.4-1.2,1.6c-1.2-0.2-3.2-2.1-3.7,0c-0.4,1.6,2.5,1.8,1.1,3.4l-0.9,0.5c-2.1-1.4-7.1-1.6-6-5.5
	c0.4-4.4,0-8.1-0.7-12.2c4.9-3.9,9.2-8.6,13-13.4C746.2,337.5,747.6,338.6,749.4,339.3z"/>
<path fill="#B68000" d="M742.3,376.3c0.7,1.2,0,2.6-0.5,3.9c-0.5,0.9-1.6,1.6-2.5,1.8c-6.2-1.4-11.3-5.3-16.9-7.8
	c-1.6-0.7-1.8-2.6-1.2-4.1c4.2-6.7,10.6,1.4,15.7,2.5C738.8,373.5,740.9,374.4,742.3,376.3z"/>
<path fill="#B68000" d="M503,379.5c6,4.8,4.2,12.5,4.1,19.2c-0.7,4.8-2.8,8.6-4.1,13.1c-5.8,12.5-12.7,24.7-22.4,35.1
	c-9.2,9.2-18.2,17.6-29.5,23.5c-4.4,1.6-10.4,3.9-14.6,0.2c-3.7-3.2-2.8-8.6-3.3-13.2c1.8-19.8,12.9-35.8,24.2-51.3
	c10.6-12.3,22.9-24.9,39.1-27.9C498.8,378.2,501.3,378.1,503,379.5z"/>
<path fill="#B68000" d="M733,383.9c0.4,0.5,0,1.2-0.4,1.8c-1.2-0.2-2.8-2.1-3.4,0c-0.2,1.9,2.5,1.9,2.1,3.9c0,1.1-0.7,1.9-1.4,2.5
	c-1.2,0-2.1-2.1-3.2-0.7c-1.1,2.3,3,2.1,1.9,4.6c-0.4,0.9-0.4,2.3-1.4,2.5c-1.4,0.2-2.1-2.5-3.4-1.2c-1.4,1.6,1.2,2.5,1.8,3.5
	c0.4,1.4-0.2,2.8-1.2,3.5c-1.2-0.4-1.9-1.6-3.5-1.4c-2.3,2.6,3.4,2.6,1.8,5.6c-0.4,0.7-0.5,1.6-1.4,1.9c-1.4,0-2.3-2.3-3.7-1.2
	c-0.7,2.1,1.9,2.6,2.5,4.1c-0.2,1.4-0.7,3.2-2.3,3.4c-1.1,0-1.8-2.1-2.8-1.4c-0.5,0.7-1.1,1.6-0.4,2.1c0.7,1.1,2.3,1.4,2.3,2.8
	c-0.4,0.7-0.2,2.1-1.2,2.3c-1.8,0.2-2.1-2.6-3.9-1.4c-1.2,2.8,3.9,3.9,1.2,6.9c-0.7,1.4-1.4,0-2.1-0.2c-0.4-0.7-0.7-1.4-1.2-1.8
	c-0.7,0-1.4,0.4-1.4,1.1c-0.2,2.1,2.8,3.2,1.8,5.1l-1.6,1.1c-3.4-5.5-7.2-10.9-11.8-16c8.8-9.2,17.1-20.1,23.1-31.4
	c1.1-2.1,2.5-4.2,3.5-6.5L733,383.9z"/>
<path d="M500.4,384.8c3.2,6.5,1.6,15-0.7,21.3c-8.6,23.3-25.6,45.1-47.8,58c-3.2,1.6-8.1,3-11.5,0.7c-4.8-4.6-2.1-12.9-0.4-18.5
	c5.6-17.8,16.6-33.5,29.6-47.8c4.6-4.1,9.3-8.3,14.6-11.5C489.3,385.3,495.1,380.4,500.4,384.8z"/>
<path fill="#B68000" d="M496,390.4c0.4,0.7,0.7,1.4,0.9,2.1c-1.4-1.1-3.4-2.3-4.8-3.7c0.4-0.4,1.2-0.4,1.8,0L496,390.4z"/>
<path fill="#B68000" d="M497.6,396.1c-0.4,0.4,0,0.9-0.4,1.2c-1.8-0.4-2.8-3.2-4.6-2.1c1.1,1.8,3.2,2.6,4.4,4.1l-0.4,0.9
	c-3.5-2.3-7.2-5.5-10.6-8.5c0.2-1.1,1.8-1.8,2.8-2.1l1.1,0.2L497.6,396.1z"/>
<path d="M491.2,392.9c0,0.7-0.7,1.1-1.2,0.7c-0.5-0.4-0.4-1.1,0.2-1.2C490.5,392.5,491,392.5,491.2,392.9z"/>
<path fill="#B68000" d="M496,402.4c0,0.7,0,1.6-0.5,1.8c-2.1-0.7-2.8-3.2-4.9-3.4l-0.4,0.5c1.2,2.1,3.3,3,4.8,4.8l-0.4,1.1
	c-5.3-3.2-9.9-7.9-14.5-12c0.4-1.6,2.1-1.6,3.2-2.5C487.7,395.5,491.9,399.2,496,402.4z"/>
<path fill="#B68000" d="M493.9,409.5c-0.4,0.5-0.2,1.9-1.2,1.4l-4.6-3.7c-0.5-0.2-0.7,0.4-0.9,0.7c1.2,2.3,3.7,3,5.3,4.9l-0.5,1.2
	c-6-4.6-11.6-9-17.3-14.3l2.8-2.6C483.3,400.8,488.2,405.8,493.9,409.5z"/>
<path d="M488.8,399.2c0.2,0.5-0.2,0.7-0.5,1.1c-0.5,0-1.1-0.4-1.1-1.1C487.2,398.4,488.4,398.5,488.8,399.2z"/>
<path fill="#B68000" d="M490.7,416.2c0.4,0.7-0.4,0.9-0.4,1.4l-5.3-4.2c-0.7,0.2-1.4-0.4-1.6,0.5l6,5.3l-0.4,1.1
	c-6.5-5.1-13-10.1-19-15.7c0.7-1.2,1.6-1.9,2.8-2.8L490.7,416.2z"/>
<path fill="#B68000" d="M521.7,422.3c-9,19.2-22.6,37.9-39.9,51.5c-1.2,1.1-3.2,0.7-4.8,1.1l-0.7-0.7c1.2-1.4,2.8-2.8,4.1-4.2
	c-0.2-0.7-1.1-1.2-1.8-1.2c-2.3,0.5-3.4,3.5-5.8,3.4c-1.1-0.9-2.8,0.4-3.7-1.1c0.9-2.6,4.6-3.2,4.8-6c-3-1.6-4.4,2.3-6.9,3.2
	c-1.2,0.2-3,0.9-4.1-0.2c21.5-15.9,39.1-38.6,46.9-63.7C513.6,410.3,516.3,417,521.7,422.3z"/>
<path d="M485.6,405.4c0.2,0.5-0.4,0.9-0.7,1.1c-0.7,0-0.9-0.7-1.1-1.1C483.6,404.2,485.4,404.5,485.6,405.4z"/>
<path fill="#B68000" d="M487.9,422c-0.4,0.7-0.7,2.5-1.8,1.4l-5.1-4.2c-0.9-0.2-0.7,0.7-0.9,1.1c1.4,2.1,3.7,3.2,5.6,4.9
	c0,0.5-0.4,0.9-0.7,1.1l-1.4-0.5l-18.7-15.5c0.5-1.4,1.8-2.6,3-3.7L487.9,422z"/>
<g>
	<path fill="#B68000" d="M689.4,409.5c0.5,1.1,0.5,2.1,0.7,3.4c-3,1.4-2.5-2.6-3.9-3.7c-1.8-1.4-3.2-2.6-4.1-4.6
		c0.5-0.9,1.9-0.2,2.8,0C687,405.8,688.6,407.7,689.4,409.5z"/>
	<path fill="#B68000" d="M677.8,416.9c0.9,0.7,1.6,1.6,2.8,1.6v1.8c-2.3,0.7-4.4-1.1-5.8-2.6c-1.6-2.1-1.8-4.9-0.7-7.2l0.4-0.4
		C677.1,411.6,675,415.3,677.8,416.9z"/>
</g>
<path d="M482.4,411.8c0,0.7-0.9,0.7-1.2,0.5c-0.7-0.4-0.5-0.9-0.4-1.4C481.5,410.5,482.2,411,482.4,411.8z"/>
<g>
	<path fill="#B68000" d="M529,409.8c-1.8,1.6-2.6,3.5-2.5,5.6c-0.7,0-1.6,0.5-2.3,1.1c-0.5-3,0.4-6,2.6-7.8l1.9-1.4
		C529.1,407.9,528.8,408.9,529,409.8z"/>
	<path fill="#B68000" d="M539.7,416.7c-0.5,1.6-1.2,3.7-3.2,4.1c-0.7-0.7-0.5-1.6-1.2-2.3c2.8-1.8,0.4-6.3,3.7-7.6
		C539.9,412.6,540.1,414.8,539.7,416.7z"/>
</g>
<path fill="#0062AE" d="M684.3,414.2c-1.4,0.5-2.6,2.3-4.2,1.2c-0.7-0.7-1.2-1.4-0.9-2.5l4.2-2.1C684.5,411.6,685,413.2,684.3,414.2
	z"/>
<path fill="#B68000" d="M478.5,424.1l4.8,4.2c0.2,0.4-0.2,0.9-0.5,1.2l-5.8-4.4c-0.5-0.4-1.1,0.2-1.4,0.5c1.8,2.3,4.1,3.5,6.2,5.5
	c-0.2,0.5-0.7,1.1-1.1,1.4c-6.9-5.3-13.8-10.8-20.5-16.4l3-4.2C468.1,416.3,473.6,420,478.5,424.1z"/>
<path fill="#0062AE" d="M534.2,414c0.5,1.1-0.2,1.8-0.7,2.6l-0.4,0.2c-1.2-1.2-5.6-0.2-3.9-3.5c0.7-1.8,2.1,0.5,3.3,0.4L534.2,414z"
	/>
<path d="M478.5,417c0,0.7-0.4,1.1-0.9,1.1c-0.7,0-1.2-0.5-1.1-1.4C477.1,415.6,478.2,416.5,478.5,417z"/>
<path fill="#B68000" d="M459.3,418.6c6.3,5.6,13.2,10.4,19.6,15.9c0.4,0.5-0.2,0.9-0.5,1.2c-2.3-1.1-4.1-3.4-6.2-4.8
	c-0.7,0.2-1.4,0.4-1.6,1.1c1.6,2.3,4.2,3.2,6,5.3c0,0.4-0.2,0.9-0.5,1.1h-0.5c-6.3-5.6-12.9-10.6-19.6-15.7c0.4-1.6,1.8-2.6,2.6-4.2
	L459.3,418.6z"/>
<path d="M474.3,423.4c-0.2,0.5-0.5,1.1-1.1,0.9c-0.7,0-1.2-0.5-1.2-1.2C472.2,421.6,474.1,422.7,474.3,423.4z"/>
<path fill="#B68000" d="M474.3,440.3c0.2,0.9-0.7,0.9-1.1,1.4l-5.5-4.6c-0.5-0.4-1.4,0-1.4,0.7c1.1,1.9,3.7,3.4,5.5,4.9
	c0.2,0.7-0.9,1.2-1.1,1.4c-6-4.8-12.9-9.9-18.7-15.2c0.5-1.6,1.6-3,2.6-4.2C461.2,429.9,467.8,435,474.3,440.3z"/>
<path fill="#B68000" d="M698.4,448.3c0.2,1.4-0.4,2.5-1.1,3.2c-1.6-0.5-1.4-3.9-3.5-2.6c-0.9,1.9,1.1,3.7,1.1,5.8
	c-0.9,0.9-1.2,2.3-2.5,2.1c-0.9-0.9-1.2-2.3-2.3-2.8c-3,1.6,1.4,4.6-0.5,6.7c-0.9,0.2-1.9,0.9-2.1-0.5c-3.2-8.6-8.5-16.9-14.8-24
	c4.1-3,8.5-6,12.3-8.8C690.8,433.1,695.4,440.7,698.4,448.3z"/>
<path d="M469.2,429.4c0,0.5-0.4,0.9-0.9,0.9s-1.2-0.5-1.1-1.1C467.2,428.2,469.5,428,469.2,429.4z"/>
<path fill="#B68000" d="M469,445.8c0,0.7-0.7,0.9-0.9,1.2c-2.3-1.1-3.9-3.9-6.3-4.1c-0.7,0.2-0.5,0.9-0.2,1.2l4.9,4.1
	c0,0.7-0.7,0.9-1.1,1.2c-5.6-4.8-11.5-8.6-16.9-13.6c0.5-1.4,1.2-3,2.1-4.4C457.2,435.9,462.8,441.4,469,445.8z"/>
<path fill="#B68000" d="M547.8,439.4c-3.5,10.2-10.2,19.4-15.7,28.7c-5.1,7.2-10.8,14.6-17.8,20.3c-1.4,0.2-2.6,1.6-3.9,0.5
	l-0.5-0.5c0.7-1.6,2.6-2.1,3-3.9c-2.3-2.5-3.5,1.8-5.6,2.3c-1.4,0.4-2.5-0.9-3.2-1.6c0.2-1.8,1.9-2.5,2.8-3.7
	c0.2-0.5-0.4-1.1-0.7-1.2c-3.2,0-5.6,6.5-8.6,2.1l0.5-2.3c15.9-13.6,27-30.9,36.2-48.3C538.7,434.7,543.2,437.1,547.8,439.4z"/>
<path d="M464.8,435.2c0,0.7-1.1,1.1-1.4,0.5c-0.5-0.2-0.7-0.9,0-1.2C463.9,434.5,464.8,434.5,464.8,435.2z"/>
<g>
	<g>
		<path fill="#B63230" d="M584,283.9l-2.3,5.1l-4.1,2.3c0.2-5.3,3.4-10.2,5.8-14.8C587.2,278.3,584.7,281.4,584,283.9z"/>
		<path fill="#B63230" d="M607.1,290.8l-6.5-2.8c-1.8-2.5-3.5-4.6-4.4-7.4c-0.2-1.4,0.7-2.5,1.8-3.2
			C601.3,281.6,604.8,286.4,607.1,290.8z"/>
		<path fill="#B63230" d="M608.8,294.5c3.4,3.5,6,7.8,8.3,12c-6.5-1.2-11.3-8.1-13.4-14.1L608.8,294.5z"/>
		<path fill="#B63230" d="M580.6,292.5c-0.9,4.2-3.2,7.8-4.4,11.6l-4.9,3.5C572.3,302.1,573.9,294.7,580.6,292.5z"/>
		<path fill="#B63230" d="M619.1,309.8c2.5,3.4,5.1,6.9,6.9,10.6c-6.3-0.5-9.9-7.6-12-12.7L619.1,309.8z"/>
		<path fill="#B63230" d="M575,308.2c-1.6,5.6-3,13.2-9.7,15c0.4-4.4,2.5-8.1,4.6-11.8C571.5,310.2,573.2,308.9,575,308.2z"/>
		<path fill="#B63230" d="M635.8,335.8c-4.6-0.7-6.9-4.6-9.5-8.1c-0.9-1.6-1.9-3.4-2.3-5.1C630.4,324.3,633.2,330.8,635.8,335.8z"/>
		<path fill="#B63230" d="M563.7,337l-4.2,2.6c0.4-5.5,3-10.9,7.6-14.1l1.2-0.9C567.2,329,566.2,333.3,563.7,337z"/>
		<path fill="#B63230" d="M638.5,339.5c2.8,3.2,4.9,6.7,6.3,10.4c-3.5-0.4-6.7-3.2-8.5-6.2c-1.2-2.1-2.8-4.1-3.3-6.5L638.5,339.5z"
			/>
		<path fill="#B63230" d="M557.3,352.7l-4.8,3c-0.2-3.4,1.8-6,3-9c1.2-2.8,4.1-4.4,6.7-5.6C561.6,345.3,559.1,348.8,557.3,352.7z"/>
		<path fill="#B63230" d="M646.8,353.6c3.2,3.2,5.3,6.9,7.1,10.9l-4.8-2.3c-2.8-3.2-6.3-6.3-7.4-10.6l0.2-0.4
			C643.6,351.6,645,353,646.8,353.6z"/>
		<path fill="#B63230" d="M555.9,356.7c-0.5,3.4-2.1,6.7-3.4,9.9l-5.1,3.2c0.9-4.6,2.8-9.3,6.3-12.2
			C554.7,357.6,555.1,356.7,555.9,356.7z"/>
		<path fill="#B63230" d="M657.2,369.4c1.9,2.8,3.5,5.8,4.9,8.6l-4.6-2.1c-1.9-1.8-2.8-4.6-4.8-6.3c-0.4-1.4-1.4-2.5-1.6-3.7
			C653.3,366.8,655.6,367.7,657.2,369.4z"/>
		<path fill="#B63230" d="M550.8,370.7c-0.7,3.5-2.3,6.9-3.9,9.9l-4.9,3.4C543.4,378.8,544.8,372.1,550.8,370.7z"/>
		<path fill="#B63230" d="M664.7,381.8c2.1,2.5,3.5,5.5,4.9,8.1c-5.3-0.7-8.6-6-10.1-10.6L664.7,381.8z"/>
		<path fill="#B63230" d="M545.2,384.6c-0.7,3.7-2.3,7.1-3.5,10.4c-1.9,1.2-4.1,2.5-5.8,3.4C537.6,393.1,539.4,386.7,545.2,384.6z"
			/>
		<path fill="#B63230" d="M675.5,398.5l2.8,5.6c-6.2-0.9-8.5-8.1-11.5-12.5C670.2,393.1,673.9,394.6,675.5,398.5z"/>
		<path fill="#B63230" d="M536.5,408.4c-0.9,1.2-2.3,2.6-3.9,1.8c-1.4-0.9-0.2-2.8,0.2-4.2c0.5-3.5,3.7-5.3,6.7-6.7
			C539.2,402.4,537.8,405.4,536.5,408.4z"/>
		<path fill="#B63230" d="M681,408.2c0,1.2-1.4,1.1-2.1,1.4c-1.9-1.1-2.8-3-3.9-4.8C676.9,405.9,679.6,406.5,681,408.2z"/>
	</g>
	<path fill="#B63230" d="M692.3,418.8c8.8,8.6,14.5,19.4,17.6,30.9c-0.4,1.4,0.2,3.5-1.2,4.2c-0.9,0.5-1.9,1.1-3,0.5l-0.7-0.9
		c-4.2-11.5-9.3-22.9-18.9-31.7c-0.9-1.1-0.2-2.3,0.4-3.2c0.5-0.7,1.1-1.2,1.9-1.6C690,416.9,691.2,417.9,692.3,418.8z"/>
	<path fill="#B63230" d="M532,421.3c1.6,2.8-0.9,5.8-1.6,8.5c-10.9,21.5-25.6,42.7-46.7,56.1c-2.1,0.2-4.2,1.4-6,0.2
		c-0.9-0.7-0.7-2.3-0.4-3.2c22.7-15.3,39.1-37.7,49.9-61.9c0.5-0.7,1.4-0.7,2.1-1.1C530.2,420.2,531.1,420.7,532,421.3z"/>
	<path fill="#B63230" d="M671.1,440.9c7.9,9,12.5,20.3,15.9,31.7c0.4,1.8,0.4,3.5-0.9,4.9c-1.2,0.2-2.6,0.9-3.7,0
		c-1.6-2.6-1.9-6-3-8.8c-3.7-10.9-10.6-20.8-18.3-29.8c-0.5-1.4,0.4-2.6,1.6-3C666.5,433.3,668.6,439.1,671.1,440.9z"/>
	<path fill="#B63230" d="M559.1,438.9c0.9,1.9-0.4,3.7-0.5,5.3c-9.3,20.6-21.2,40.4-40.4,54.8c-1.8,1.1-3.9,1.2-5.8,0.4l-1.6-1.8
		c1.2-3,4.4-4.2,6.5-6.3c16.4-15.2,27.5-33.7,36-53.1C554.9,436.6,558.2,436.6,559.1,438.9z"/>
</g>
<path fill="#B68000" d="M448,439.1c4.9,4.2,10.4,7.8,15.2,12c-0.5,0.7-1.6,2.3-2.5,1.1c-1.4-1.4-2.8-3.4-4.8-3.4
	c-0.5,0.4-0.4,1.1,0,1.4l4.1,3.5c-0.4,0.7-1.1,1.2-1.8,0.7c-3.9-4.1-9.7-6.7-12.9-11.5l1.8-4.2L448,439.1z"/>
<path d="M460.2,441c0.2,0.5-0.4,1.2-0.9,1.1c-0.7,0.2-1.1-0.5-1.2-1.1c0-0.5,0.4-0.7,0.7-0.9C459.5,440,460,440.5,460.2,441z"/>
<path fill="#B68000" d="M660.3,444.9c7.1,8.5,12.2,17.5,15.5,27.5c-0.9,0.7-1.4,2.8-3,2.3c-1.4-0.7-0.7-4.6-3.2-3
	c-0.5,2.1,2.1,4.8,0.4,6.7c-0.9,0.5-1.8,0.7-2.6,0.5c-0.9-0.9-0.7-3.2-2.5-3.2c-2.6,1.4,1.1,3.9,0.4,5.8c-1.1,0.7-2.1,2.1-3.4,1.2
	c-1.1-1.1-1.1-3.7-3.2-3.2c-0.5,1.8,0.5,3.4,1.1,5.1c-0.5,1.6-2.5,1.9-4.1,2.1c-0.9-0.9-1.1-2.8-2.3-3.5c-0.7,0.2-1.8,0.7-1.2,1.6
	c0.4,1.8,1.8,3.4,0.2,4.8c-0.9,0.7-1.9,1.2-2.8,1.1c-2.1-0.4-1.2-3.9-3.5-2.8c-1.6,1.8,1.1,3,0.2,4.9c-1.6,0.7-2.8,2.3-4.6,1.6
	c-0.5-1.1-0.2-2.8-1.8-3.4c-3.2,0.9,0.9,3.5-0.9,5.3c-1.2,0.5-2.3,1.9-3.9,1.6c-0.7-1.4-0.9-3.2-2.1-4.1c-3,0.9,0.4,3.7-0.9,5.5
	c-1.2,0.4-2.3,1.6-3.7,1.1c-0.7-1.2-0.9-2.8-1.9-4.1c-0.7-0.2-1.2,0.4-1.4,0.7c0.4,1.6,0.4,3.4,0.2,4.8c-1.2,0.2-3.3,1.8-4.1,0
	c-0.4-1.1-0.2-2.5-1.2-3c-0.9,0-1.4,0.5-1.6,1.2c-0.2,1.4,1.8,3.7-0.4,4.4c-1.2,0.2-2.5,1.1-3.5,0c-0.2-1.2-0.4-2.6-1.4-3.7
	c-2.6,0.5,0.2,4.4-2.1,5.3c-1.1,0.4-2.5,0.7-3.4-0.2c-0.5-1.2,0.2-3.4-1.4-3.7c-2.1,1.1,0.4,6.9-4.2,4.9c-1.4-1.1,0-4.1-2.3-4.4
	c-1.1,1.2-0.5,3-0.9,4.8c-0.9,0.9-2.1,0.5-3.2,0.2c-2.1-0.9,0.9-5.6-2.5-4.4c-0.7,1.4,0.2,4.1-1.6,4.9c-1.2,0-2.8,0.4-3.4-1.1
	c-0.4-1.4,0.7-2.6-0.4-3.7c-0.5-0.4-1.4-0.2-1.8,0.2c-0.9,1.4,0.5,3.9-1.2,4.9c-1.4,0.2-3.4,0.2-3.9-1.4c-0.4-1.2,0.7-3-0.5-3.9
	c-2.8-0.4-1.1,3.7-2.6,4.8c-0.9,0.7-2.3,0.5-3.2,0.2c-1.4-1.6,0.9-4.2-1.1-5.8c-2.8,0.9-0.4,5.5-3.7,5.8c-1.1,0-2.6-0.2-2.5-1.6
	c-0.2-1.8,1.1-3.5-0.4-4.8c-3,0.7-1.1,5.5-4.9,4.8c-0.9,0.2-1.6-0.5-1.9-1.4c0.2-1.6,1.4-3.7,0-4.9c-2.6,1.1-1.4,7.1-5.8,5.1
	c-3-2.1,1.9-5.1-0.7-7.2c-2.5,1.4-2.3,7.9-6.5,4.9c-0.5-2.3,0.9-4.2,1.4-6.3c0.2-0.4-0.4-0.7-0.5-0.9c-3.4,0.9-3,8.3-7.4,4.8
	c-1.8-2.5,3.7-4.2,1.4-6.9c-2.8,0.9-4.4,8.1-8.3,4.1c0.4-2.1,2.3-3,3.3-4.9c0-0.9-0.9-0.9-1.6-0.9c-1.8,1.2-2.8,4.2-5.3,4.1
	l-0.4-1.1c14.1-14.1,24.7-31,33-48.7c13.8,4.8,28,8.8,43.7,8.8c19.2,0.5,35.8-4.2,52.6-9.9C658.9,444.4,660,444.7,660.3,444.9z"/>
<path d="M454.2,446.7c0.4,0.5-0.2,1.4-0.9,1.2c-0.4,0-1.2,0-1.1-0.7C452.2,446.1,453.7,446.3,454.2,446.7z"/>
<path fill="#B68000" d="M457,456.2c-0.2,0.5-0.7,0.9-1.2,1.2c-1.8-0.7-3-2.3-4.6-3.4c-0.5,0-1.1,0.4-1.2,0.7
	c1.1,1.2,2.6,2.5,4.1,3.5c-0.4,0.5-1.4,1.6-2.1,0.5l-8.6-6.9c0-1.8,0.4-3.9,1.2-5.3L457,456.2z"/>
<path d="M448.7,452.3c0,0.5-0.4,0.9-0.7,0.9c-0.4,0-0.7,0-0.9-0.5C447,451.8,448.4,451.6,448.7,452.3z"/>
<path fill="#B68000" d="M450.5,460.4c-2.1,3.5-3.9-2.5-6.2-1.1c0.2,1.2,1.6,1.6,2.3,2.5c-1.6,0.4-3.2-1.1-3.9-2.5
	c0.2-0.4-0.7-0.9,0-1.1c0.5,0,1.1-0.2,1.4-0.5c0.2-0.7-0.5-0.7-0.7-1.1l-0.9-0.2c0-0.5-0.2-1.1,0.4-1.4L450.5,460.4z"/>
<path fill="#0062AE" d="M260.2,515.3c7.6,5.3,10.4,14.8,8.5,23.6c-1.6,7.4-8.3,13.9-15.3,16.4c-7.9,2.3-16.9,0.7-22.9-4.8
	c-6-5.6-9-13.9-7.1-22.2c1.2-5.1,4.2-9.9,8.6-13.2C242,515.3,250.5,514.7,260.2,515.3z"/>
<g>
	<path d="M244.6,618.2c1.9-0.8,5.3-2.6,7.4-3.5c9.7-4.4,21.3-7.8,32.4-4.3c9,2.9,17.4,10.1,19.7,19.6c2.3,6.7,0.3,13.8-5.2,18.5
		c-0.2,0.1-0.8,0.8-1.8,1.1c-1-2.6-3-4.2-4.9-6.2c-3.4-2.7-9.9-4.1-13.9-2.2c-5,1.5-5.9,5.3-6.3,9v73.8l78,0.1
		c3.9-1,7.1-4.2,8.1-8.1c1.6-5.5-1-10.6-4.7-14.5c-0.9-1.2-4.1-1.2-3-3.4c3.4-4.8,9.4-5.6,14.8-5.8c6.5,0.4,12.5,3.2,16.7,8.2
		c4.4,4.6,6.8,10.6,7.3,17c1.5,11.6-0.4,23.8-9.5,32.1c7.9,10.6,12.1,24.9,8.3,38.3c-2.5,8.5-9.4,17.1-18.2,19
		c-4.8,0.5-11.7-0.2-14.5-1c-2.4-1-4.7-2.9-6.5-4.7c0.4-1.8,2.2-2.2,3.7-2.8c3.7-2.3,5.1-6.7,5.2-11.1c-0.3-4.4-2.6-7.4-7-9.1
		c-14.3-0.1-78.8-0.3-78.8-0.3v69.8c0.5,5.1-2.1,9.4,4.3,12.2c3.5,2.8,8.8,1.2,13.1,0.2c3.2-1.4,6.9-3.3,8-6.9
		c4.2,0.9,6.2,5.7,7.4,9.4c2.4,8.1-1.5,15.9-7.1,21.3c-9.4,8.4-23.7,10.8-36.2,8c-5.6-0.9-12.4-3.7-16.8-7.2
		c-4.2,2.1-6.5,4.3-10.9,5.9c-6.7,1.9-15,3.7-22,1.2c-9.9-2.3-19.9-9.1-22.7-19.5c-1.7-6.2,0-12.5,3.6-17.3c0.7-1.2,2.3-3.2,3.9-2.3
		c2.6,4.4,7.7,8.3,13.6,7.8c4.4-0.5,9-3.1,11.3-7.2l0-5.4l-0.1-69.9l-77.1-0.1c-5.3,0-8.5,2.3-9.2,6.5c-0.1,1-0.2,4.6,0.7,7.2
		c1.2,3.4,4.4,6,7.4,8.1c1.6,1.2-1.1,2.5-2,3c-5.3,3.3-13.2,4.9-19.6,2.2c-9-2.3-15.1-11.3-17.6-19.8c-3-11.5-1.6-26.1,7.6-35.4
		c-8.3-10.8-12.6-27.4-6.8-40.6c3.7-8.8,12.2-17.4,22.5-17.4c6-0.3,10.4,2.3,14.8,5.7c0.9,0.7,1.2,2.3-0.4,2.5c-3.7,1.6-6,5.3-7.1,9
		c-1.6,4.6,1.4,8.1,3.5,11.5c1.9,2.1,8.8,3.7,11.5,3.7H221c0-6.7,0-73.8,0-73.8c-1.2-4.8-5.6-7.9-10.4-8.6
		c-4.8-0.4-9.5,0.8-12.7,4.4c-1.1,1.1-1.1,4.1-3.2,3c-5.8-4.3-8.1-11.7-7.3-19.1c1.4-9.9,11.2-17.6,20.2-20.4
		c7.6-1.9,16.4-2.1,24,0.4C236.9,611.9,240.5,614.5,244.6,618.2z"/>
	<path fill="#B63230" d="M241.3,623c1.6,1.3,1.9,1.7,3.3,3.7c13.4-8.8,26-13.8,39.2-8.5c7.4,3,13.9,10.1,13.9,18.2
		c0.2,1.1-0.2,1.9-0.7,2.5c-5.6-4.8-13.2-6.2-20.6-5c-7.2,2.3-14.1,8.9-14.5,16.9l-0.3,80.4l74.2-0.1c8.8-0.3,19.2,1.5,25.1-5.6
		c4.1-4.4,5.5-10.6,4.3-16.6c-0.9-3.4-2.3-6.2-4.6-8.7c2.8-1.9,7.1-0.7,10.2,0.4c10.4,5.2,12.1,17,12.1,27.2c0,8.8-5.4,17.2-12.6,22
		c3.3,3.4,5.3,6.6,7.9,10.1c4.6,9,6.3,21.4,1,30.5c-1.4,2.1-2.5,4.8-4.6,5.8l-0.7,1.1c-3.5,2.6-8.1,3.3-12.7,2.6
		c-0.4-0.4,0-1.1,0.4-1.4c5.5-5.7,4.2-13,4-14.8c-0.6-4.5-4.5-11.4-7.9-12.5c-5.6-1.7-0.4-3.1-22-3.1c-15.7-0.1-74,0-74,0l0.4,56.3
		c0.5,7.8,0.5,16.8-0.1,24.5c0.3,5.8,0.7,12.3,5.9,16.1c5.5,5,14.4,6.2,21.5,3.6c2.8-1,5.3-3,7.6-5.3c1.4,0.9,1,2.8,1.4,4.4
		c-0.6,9-9.4,14.6-17,17.2c-6.2,1.4-12.7,2.1-18.9,0.1c-6.5-1.1-12.6-6.1-17.8-9.3c-2.3,2.5-4.4,3.7-7.5,5.7c-2.5,0.9-4.6,2.6-7.4,3
		c-6.9,2.4-15.3,1.9-21.9-1.1c-5.5-2.5-10.2-7.6-11.9-13.4c-0.2-1.9-0.9-4.9,0.6-6.5c4.7,4.1,10.7,5.5,17.3,4.5
		c6.4-1.6,13.1-6,14.9-12.6l0.5-5.8c0,0-0.1-74-0.4-81.2c0,0-66.2,0-79.1,0c-10.8,0-17.5,1-20.9,6.8c-3.4,5.8-3,14.3,0.1,19.9
		c0.7,1.6,2.1,2.5,2.6,3.9c-2.3,1.6-4.9,0-7.4,0c-1.8-1.1-3.9-1.2-5.1-3.2c-1.1-0.4-1.9-1.2-2.6-2.3c-1.2-1.9-3.3-3.5-3.7-6
		c-4.9-8.7-3.6-22.1,1.9-30.3c1.4-2.6,4.4-4.6,6-7c0,0-12.5-19.3-10.8-30.2c0.6-8.3,5.2-15.9,12.6-19.9c3.2-0.7,6.7-1.6,9.7-0.1
		c-4.1,3.9-5.1,9.3-4.5,15.1c0.7,6.9,5.6,12.5,11.8,15c3.3,0.7,6.9,1.3,10.4,1.3l79.1,0c0,0,0-54.6,0-80.8
		c-1.2-6.9-6.8-13.1-13.3-15.3c-7-2.3-14.5-0.1-19.9,3.6c-2.1-4.4-1.4-10.9,2.3-14.8c5.1-5.1,11.7-7.4,18.4-8.9
		C225.1,613.3,234.2,617.3,241.3,623z"/>
</g>
<path fill="#B68000" d="M609.9,668.9c22.7,5.8,41.8,28.7,44.4,51.8c0.9,7.1,0.5,14.1-0.5,20.8h0.4c16.9-15.5,44.8-20.5,66.8-11.3
	c21.9,8.6,42.1,31.5,38.6,55.4c-0.3,5.3-2.3,8.9-2.4,13.5l-0.4,0.4c-2.8,17.6-10.6,34.2-18.7,49.9c-26.3,49.2-73.5,90.6-123.1,115.7
	c-36.9,18.9-76.7,30.9-118,38.1c-16.2,2.1-33.2,4.4-50.1,5.1c-7.4,0.4-18.4,1.1-26,0.9c-0.2-10.6,0-251.8,0-251.8
	c9.2-19,31.7-30.7,52.3-32.5c20.5-1.4,38.6,6,52.2,20.6c0.7-0.4,0.4-1.6,0-2.1c-5.3-22,1.4-45.7,17.8-60.8
	c12.9-12,29.1-18.3,47.3-17.1C597.2,665.3,603.7,667.1,609.9,668.9z"/>
</svg>
