<?xml version="1.0" encoding="utf-8"?>
<!-- Generator: Adobe Illustrator 17.1.0, SVG Export Plug-In . SVG Version: 6.00 Build 0)  -->
<!DOCTYPE svg PUBLIC "-//W3C//DTD SVG 1.1//EN" "http://www.w3.org/Graphics/SVG/1.1/DTD/svg11.dtd">
<svg version="1.1" id="Layer_1" xmlns="http://www.w3.org/2000/svg" xmlns:xlink="http://www.w3.org/1999/xlink" x="0px" y="0px"
	 viewBox="0 0 46.4 55.5" enable-background="new 0 0 46.4 55.5" xml:space="preserve">
<path d="M0,0c0,0,0,37.6,0,37.9c0.2,3.7,2.2,7.2,4,9.4c4.6,5.4,11.1,8.1,18.2,8.2c2.9,0,5.9-0.2,8.6-0.8c2.7-0.6,5.2-1.6,7.5-3.1
	c3-1.8,5.6-4.7,6.9-7.9c0.7-1.6,1.1-3.3,1.2-5l0-38.7H0z M22.8,54.8L22.8,54.8c-6.2,0-11.9-1.9-16.4-5.9c-2.8-2.5-5.5-6.4-5.9-11.1
	c0-0.9,0-37.4,0-37.4h22.3V54.8z M45.4,40.3c0,0.3-0.1,0.6-0.2,0.9l0,0c-0.2,1.2-0.7,2.2-1.2,3.3c-1.7,3.2-4.8,5.9-8,7.6
	c-2.4,1.2-5,2-7.7,2.5c-1.1,0.1-2.2,0.3-3.3,0.3c-0.5,0-1.2,0.1-1.7,0.1c0-0.7,0-16.5,0-16.5c0.6-1.2,2.1-2,3.4-2.1
	c1.3-0.1,2.5,0.4,3.4,1.3c0,0,0-0.1,0-0.1c-0.3-1.4,0.1-3,1.2-4c0.8-0.8,1.9-1.2,3.1-1.1c0.4,0,0.9,0.1,1.3,0.2
	c1.5,0.4,2.7,1.9,2.9,3.4c0.1,0.5,0,0.9,0,1.4h0c1.1-1,2.9-1.3,4.4-0.7C44.3,37.2,45.6,38.7,45.4,40.3z M45.8,38.7
	c-0.7-1.6-2.5-2.8-4.2-2.9c-0.9-0.1-1.8,0.1-2.5,0.5c-0.1-1.5-0.9-2.9-2.3-3.7c-1.1-0.6-2.4-0.9-3.7-0.6c-1.6,0.3-3.2,1.8-3.6,3.4
	c-0.1,0.3-0.1,0.7-0.2,1.1c-1.2-0.8-3.1-0.9-4.4-0.2c-0.6,0.3-1.3,0.7-1.7,1.2c0,0,0-36.8,0-37l22.6,0V38.7z"/>
<path fill="#0062AE" d="M23.2,37.4c0.4-0.5,1.2-0.9,1.7-1.2c1.3-0.7,3.2-0.6,4.4,0.2c0-0.4,0.1-0.7,0.2-1.1c0.4-1.6,1.9-3.1,3.6-3.4
	c1.3-0.3,2.6,0,3.7,0.6c1.3,0.8,2.2,2.2,2.3,3.7c0.8-0.4,1.6-0.6,2.5-0.5c1.7,0.1,3.5,1.3,4.2,2.9V0.4l-22.6,0
	C23.2,0.6,23.2,37.4,23.2,37.4z M24.2,17.4c0.1-0.2,0.2-0.4,0.3-0.7c0.1-0.1,0.2-0.3,0.3-0.5c0.4-0.6,0.8-1.1,1.3-1.6
	c0.7-0.6,1.3-1.3,2.3-1.3c0.3,0,0.6,0.1,0.7,0.4c0,0.1,0.1,0.2,0.1,0.3c0.1,0.3,0,0.6,0.1,0.8c0.2,0.4,0.3,0.7,0.6,1.1
	c0.1-0.3,0.3-0.5,0.6-0.6c0.2-0.3,0.2-0.8,0.5-1.1c0-0.2,0.1-0.3,0.2-0.5c0.1-0.3,0.3-0.5,0.3-0.7c0.1-0.2,0.2-0.5,0.3-0.7
	c0.1-0.3,0.2-0.7,0.4-1c0.1-0.4,0.2-0.7,0.4-1.1c0.1-0.4,0.2-0.8,0.4-1.1c0.1-0.4,0.2-0.7,0.4-1.1c0.1-0.3,0.2-0.6,0.3-0.9
	c-0.1-0.2-0.1-0.4-0.1-0.6c0.1-0.3,0.4-0.5,0.7-0.6c0.4,0,0.8,0.1,1,0.5c0.1,0.2,0.1,0.5,0,0.7l0,0.1c0.2,0.3,0.3,0.5,0.4,0.8
	c0.3,0.4,0.6,0.7,0.7,1.1c0.3,0.2,0.4,0.5,0.5,0.8c0.3,0.3,0.5,0.6,0.6,0.9c0.3,0.3,0.4,0.6,0.6,0.9c0.3,0.3,0.5,0.6,0.6,1
	c0.2,0.3,0.4,0.5,0.5,0.8c0.2,0.2,0.4,0.5,0.5,0.8c0.2,0.2,0.3,0.4,0.5,0.7c0.1,0,0.1,0,0.2,0c0.3,0,0.6,0.3,0.6,0.6
	c0,0.1,0,0.2,0,0.3c0.2-0.1,0.3-0.4,0.5-0.5c0.5-0.6,0.9-1.2,1.2-1.9c-0.2-0.1-0.2-0.3-0.2-0.5c0-0.1,0.1-0.2,0.2-0.3
	c0.1-0.1,0.3-0.1,0.5-0.1c0-0.3,0-0.6,0-0.9c0.1-0.2,0.3-0.3,0.5-0.5c0.2-0.2,0.4-0.4,0.5-0.6l0.1,0l0.7,0.4c0.1,0.2-0.1,0.4,0,0.6
	c0,0.3,0,0.6,0,0.9c-0.3,0.1-0.5,0.4-0.7,0.6c0,0.1,0.1,0.1,0.1,0.1c0.2,0.1,0.2,0.3,0.2,0.4c0,0.2-0.1,0.3-0.3,0.4l-0.3,0.1
	c-0.5,1.3-1,2.5-1.7,3.7c0.1,0.2,0.1,0.4,0,0.6c-0.1,0.2-0.3,0.4-0.6,0.4c-0.1-0.1-0.2,0-0.2,0.1c-0.2,0.3-0.5,0.5-0.7,0.7
	c0.1,0.2,0,0.4-0.1,0.5c-0.2,0.2-0.4,0.2-0.6,0.1c-1,0.8-2.2,1.5-3.4,1.9c-1.2,0.4-2.7,0.5-4,0.4c-1-0.1-2-0.4-2.9-0.9
	c-0.2,0.1-0.6,0.2-0.8,0c-0.1-0.1-0.3-0.2-0.3-0.3c-0.1,0,0-0.1,0-0.2c-0.3-0.2-0.7-0.4-1.1-0.4c-0.2,0.1-0.6,0.2-0.8,0.1
	c-0.1-0.1-0.3-0.2-0.3-0.3c0-0.1,0.1-0.2-0.1-0.2c-0.4-0.3-0.9-0.4-1.3-0.4c-0.3,0.1-0.8,0.2-1-0.1C23.5,19.2,23.9,18.2,24.2,17.4z"
	/>
<path fill="#808080" d="M0.5,37.8c0.4,4.6,3.1,8.5,5.9,11.1c4.5,4,10.2,5.9,16.4,5.9h0V0.4H0.5C0.5,0.4,0.4,36.9,0.5,37.8z
	 M11.6,3.5C11.6,3.4,11.7,3.4,11.6,3.5c0.2,0,0.3,0,0.4,0.1c2.5,1.9,5.4,2.9,8.8,2.8l-0.1,3.8h-6.1L14,14.9
	c-0.1,0.9-0.2,1.8-0.3,2.7l-0.4,3.5l-0.1,1.2c0,0.2,0.2,0.2,0.3,0.4c0.4,0.5,0.5,1.4,0.1,2c-0.4,0.6-1,1-1.8,1
	c-0.8,0-1.5-0.5-1.8-1.3c-0.3-0.7,0-1.6,0.5-2.1L10,18.3l-0.3-2.3L9,11.7c-0.1-0.5-0.1-1.1-0.2-1.5H2.7c0-1.4-0.1-3.7-0.1-3.7
	C6,6.5,9.1,5.4,11.6,3.5z M2.6,35.3c0.2-0.6,0.8-1.1,1.5-1.1c0.4,0,0.7,0.2,1,0.4c0.1,0,0.1,0.1,0,0.2c-0.2,0.1-0.4,0.3-0.5,0.6
	c-0.1,0.3,0.1,0.5,0.2,0.8c0.1,0.1,0.6,0.2,0.8,0.2h4.7c0-0.4,0-4.8,0-4.8c-0.1-0.3-0.4-0.5-0.7-0.6c-0.3,0-0.6,0.1-0.8,0.3
	c-0.1,0.1-0.1,0.3-0.2,0.2c-0.4-0.3-0.5-0.8-0.5-1.2c0.1-0.6,0.7-1.2,1.3-1.3c0.5-0.1,1.1-0.1,1.6,0c0.3,0.1,0.6,0.3,0.8,0.5
	c0.1-0.1,0.3-0.2,0.5-0.2c0.6-0.3,1.4-0.5,2.1-0.3c0.6,0.2,1.1,0.7,1.3,1.3c0.1,0.4,0,0.9-0.3,1.2c0,0-0.1,0.1-0.1,0.1
	c-0.1-0.2-0.2-0.3-0.3-0.4c-0.2-0.2-0.6-0.3-0.9-0.1c-0.3,0.1-0.6,0.3-0.6,0.6v4.8l5.3,0c0.3-0.1,0.5-0.3,0.5-0.5
	c0.1-0.4-0.1-0.7-0.3-0.9c-0.1-0.1-0.3-0.1-0.2-0.2c0.2-0.3,0.6-0.4,1-0.4c0.4,0,0.8,0.2,1.1,0.5c0.3,0.3,0.4,0.7,0.5,1.1
	c0.1,0.8,0,1.6-0.6,2.1c0.5,0.7,0.8,1.6,0.5,2.5c-0.2,0.6-0.6,1.1-1.2,1.2c-0.3,0-0.8,0-0.9-0.1c-0.2-0.1-0.3-0.2-0.4-0.3
	c0-0.1,0.1-0.1,0.2-0.2c0.2-0.1,0.3-0.4,0.3-0.7c0-0.3-0.2-0.6-0.5-0.7c-0.9,0-5.3,0-5.3,0v4.7c0,0.3,0.1,0.6,0.5,0.8
	c0.2,0.2,0.6,0.1,0.9,0c0.2-0.1,0.4-0.2,0.5-0.4c0.3,0.1,0.4,0.4,0.5,0.6c0.2,0.5-0.1,1-0.5,1.4c-0.6,0.6-1.5,0.7-2.4,0.5
	c-0.4-0.1-0.8-0.2-1.1-0.5c-0.3,0.1-0.4,0.3-0.7,0.4c-0.4,0.1-1,0.2-1.4,0.1c-0.6-0.2-1.3-0.6-1.5-1.3c-0.1-0.4,0-0.8,0.2-1.1
	c0-0.1,0.2-0.2,0.3-0.1c0.2,0.3,0.5,0.5,0.9,0.5c0.3,0,0.6-0.2,0.7-0.5l0-0.4l0-4.7l-5,0c-0.3,0-0.6,0.3-0.6,0.6c0,0.1,0,0.3,0,0.5
	c0.1,0.2,0.3,0.4,0.5,0.5c0.1,0.1-0.1,0.2-0.1,0.2c-0.3,0.2-0.9,0.3-1.3,0.1c-0.6-0.2-1-0.7-1.1-1.3c-0.2-0.8-0.1-1.7,0.5-2.3
	C2.5,37.2,2.2,36.2,2.6,35.3z"/>
<path d="M8.8,10.1c0.1,0.5,0.2,1,0.2,1.5l0.6,4.3l0.3,2.3l0.6,4.1c-0.6,0.5-0.8,1.4-0.5,2.1c0.3,0.7,1,1.2,1.8,1.3
	c0.7,0,1.4-0.4,1.8-1c0.3-0.6,0.3-1.5-0.1-2c-0.1-0.1-0.2-0.2-0.3-0.4l0.1-1.2l0.4-3.5c0.1-0.9,0.2-1.8,0.3-2.7l0.5-4.7h6.1l0.1-3.8
	c-3.3,0.1-6.3-0.9-8.8-2.8c-0.1-0.1-0.2-0.2-0.3-0.2c0,0-0.1,0.1-0.1,0.1c-2.5,2-5.6,3-9,3c0,0,0,2.3,0.1,3.7H8.8z M13.3,24.2
	c-0.1,0.5-0.5,0.9-1,1.1c-0.5,0.2-1.1,0-1.5-0.3c-0.4-0.4-0.6-0.9-0.5-1.5c0.1-0.3,0.3-0.6,0.6-0.9c0.7,0,1.2,0,1.8,0
	C13.2,23,13.4,23.6,13.3,24.2z M13.8,12.1l-0.4,3.8l-0.7,5.9c0,0.2,0,0.4-0.1,0.5c-0.1,0.1-0.3,0-0.4,0l-1.2,0l-0.5-3.4l-0.5-4
	L9.4,11c0-0.3-0.1-0.7-0.1-1l0.3,0l3.1,0h1.4C14,10.6,13.9,11.3,13.8,12.1z M5.3,6.7c2.4-0.4,4.5-1.3,6.4-2.7
	c2.5,1.8,5.3,2.8,8.5,2.8l0,2.7l-0.6,0L3.7,9.6H3.2l0,0c0-1,0-1.8,0-2.7C3.9,6.8,4.6,6.8,5.3,6.7z"/>
<path fill="#0062AE" d="M3.2,9.6h0.5l15.9-0.1l0.6,0l0-2.7c-3.2,0-6-1.1-8.5-2.8c-1.9,1.4-4,2.3-6.4,2.7C4.6,6.8,3.9,6.8,3.1,6.9
	C3.1,7.8,3.1,8.6,3.2,9.6L3.2,9.6z"/>
<path d="M25.1,20c0.5,0,0.9,0.2,1.3,0.4c0.1,0,0,0.2,0.1,0.2c0,0.1,0.2,0.2,0.3,0.3c0.3,0.1,0.6,0.1,0.8-0.1
	c0.4,0.1,0.7,0.3,1.1,0.4c0.1,0,0,0.1,0,0.2c0,0.2,0.2,0.2,0.3,0.3c0.2,0.2,0.6,0.1,0.8,0c0.9,0.5,1.8,0.8,2.9,0.9
	c1.4,0.1,2.8,0,4-0.4c1.2-0.4,2.4-1,3.4-1.9c0.2,0.1,0.5,0.1,0.6-0.1c0.1-0.2,0.2-0.3,0.1-0.5c0.2-0.2,0.5-0.5,0.7-0.7
	c0-0.1,0.1-0.2,0.2-0.1c0.3,0,0.5-0.2,0.6-0.4c0-0.2,0.1-0.4,0-0.6c0.7-1.2,1.2-2.5,1.7-3.7l0.3-0.1c0.2-0.1,0.2-0.3,0.3-0.4
	c0-0.2,0-0.3-0.2-0.4c0,0-0.1,0-0.1-0.1c0.2-0.3,0.4-0.5,0.7-0.6c0-0.3,0-0.6,0-0.9c0-0.2,0.1-0.4,0-0.6l-0.7-0.4l-0.1,0
	c-0.2,0.2-0.3,0.4-0.5,0.6c-0.1,0.2-0.4,0.2-0.5,0.5c0,0.3,0.1,0.6,0,0.9c-0.2,0-0.3,0-0.5,0.1c-0.1,0.1-0.2,0.2-0.2,0.3
	c0,0.2,0,0.4,0.2,0.5c-0.4,0.7-0.7,1.3-1.2,1.9c-0.2,0.2-0.3,0.4-0.5,0.5c-0.1-0.1,0-0.2,0-0.3c-0.1-0.3-0.3-0.5-0.6-0.6
	c-0.1,0-0.1,0-0.2,0c-0.1-0.2-0.3-0.5-0.5-0.7c-0.1-0.3-0.3-0.6-0.5-0.8c-0.1-0.3-0.3-0.6-0.5-0.8c-0.1-0.3-0.3-0.7-0.6-1
	c-0.1-0.3-0.3-0.7-0.6-0.9c-0.2-0.3-0.3-0.7-0.6-0.9c-0.1-0.3-0.3-0.6-0.5-0.8C36.2,8.7,36,8.4,35.6,8c-0.1-0.3-0.3-0.5-0.4-0.8
	l0-0.1c0.1-0.2,0.1-0.5,0-0.7c-0.2-0.4-0.6-0.5-1-0.5c-0.3,0-0.6,0.3-0.7,0.6c-0.1,0.2-0.1,0.5,0.1,0.6c-0.1,0.3-0.2,0.6-0.3,0.9
	c-0.2,0.3-0.3,0.7-0.4,1.1c-0.2,0.3-0.3,0.7-0.4,1.1c-0.2,0.3-0.4,0.7-0.4,1.1c-0.2,0.3-0.3,0.6-0.4,1c-0.1,0.2-0.2,0.5-0.3,0.7
	c0,0.3-0.2,0.5-0.3,0.7c0,0.2-0.1,0.3-0.2,0.5c-0.3,0.3-0.3,0.8-0.5,1.1c-0.3,0.1-0.5,0.3-0.6,0.6c-0.3-0.3-0.4-0.7-0.6-1.1
	c0-0.3,0-0.6-0.1-0.8c0-0.1-0.1-0.2-0.1-0.3c-0.2-0.2-0.4-0.4-0.7-0.4c-0.9,0-1.6,0.7-2.3,1.3c-0.5,0.5-0.9,1-1.3,1.6
	c-0.1,0.1-0.2,0.3-0.3,0.5c-0.1,0.2-0.2,0.4-0.3,0.7c-0.3,0.7-0.6,1.7-0.1,2.4C24.3,20.1,24.8,20.1,25.1,20z M27.3,20.7
	c-0.1,0-0.3,0.1-0.4,0c-0.1,0,0-0.1,0-0.2c1.5-1,2.6-2.5,3.3-4c0,0,0.1,0,0.1-0.1c0.1,0,0.1,0.1,0.2,0.1c0.1,0.2-0.1,0.4-0.1,0.6
	C29.7,18.4,28.7,19.8,27.3,20.7z M29.1,20.9c0-0.1,0.2-0.1,0.2-0.3c-0.1-0.2-0.2,0.1-0.4,0.2c-0.1,0-0.2-0.1-0.2-0.1
	c0-0.1,0.1-0.2,0.2-0.2c0,0,0-0.1,0-0.1c-0.2,0-0.4,0.4-0.6,0.1l0-0.1c1-0.9,1.8-2,2.4-3.2c0.3,0.2,0.6,0.3,0.9,0.5
	c-0.2,0.7-0.7,1.3-1,1.9c-0.3,0.5-0.7,1-1.2,1.3C29.3,20.9,29.2,21,29.1,20.9L29.1,20.9z M31.2,15.7c0-0.1-0.2-0.1-0.1-0.2l0.2-0.6
	c0.2-0.3,0.3-0.6,0.4-1c0.2-0.3,0.2-0.6,0.3-0.9c0.2-0.3,0.3-0.6,0.3-0.9c0.2-0.3,0.3-0.7,0.4-1.1c0.3-0.5,0.4-1,0.6-1.5
	c0.1-0.2,0.1-0.4,0.2-0.6c0.2-0.3,0.3-0.7,0.4-1.1l0.1-0.1c0.2,0,0.4,0,0.6,0c0.2,0.2,0.4,0.5,0.6,0.8c0.1,0.2,0.4,0.4,0.4,0.6
	c0.1,0.3,0.3,0.6,0.6,0.8c0.1,0.3,0.4,0.6,0.6,0.9c0.1,0.4,0.4,0.7,0.6,1c0,0.2,0.2,0.4,0.3,0.5c0.1,0.2,0.4,0.4,0.4,0.6
	c0.1,0.2,0.3,0.4,0.4,0.6c0.1,0.3,0.3,0.6,0.5,0.8c0.1,0.4,0.5,0.7,0.6,1.1c-0.1,0.2-0.2,0.6,0,0.8c0.2,0.2,0.3,0.3,0.6,0.3
	c-0.2,0.2-0.5,0.4-0.8,0.6c-0.2-0.1-0.4-0.1-0.6-0.1c-0.3,0.1-0.4,0.4-0.3,0.6c-0.2,0.1-0.4,0.2-0.5,0.2c-1.2,0.4-2.8,0.5-4.1,0.2
	c-0.4-0.1-0.9-0.2-1.3-0.4c-0.1-0.1-0.1-0.2-0.2-0.3c-0.1-0.2-0.3-0.2-0.5-0.3c-0.1,0-0.2,0.1-0.3,0.2c-0.3-0.2-0.6-0.3-0.9-0.6
	c0-0.2,0.2-0.2,0.3-0.3C31.3,16.3,31.3,16,31.2,15.7z M34.4,7.1c-0.1,0-0.2-0.1-0.3-0.2c-0.1-0.1,0-0.3,0.1-0.4
	c0.1-0.1,0.4,0,0.5,0.1c0,0.1,0.1,0.2,0,0.3C34.6,7,34.5,7.1,34.4,7.1z M34.6,7.5c-0.1,0-0.3,0.1-0.4,0l0.1-0.1l0.3,0L34.6,7.5z
	 M40.2,16.3v0.1c-0.2,0-0.3-0.1-0.4-0.2c-0.1-0.1-0.1-0.3,0-0.5l0,0c0.2,0.1,0,0.3,0.2,0.4C40.1,16.2,40.1,16.3,40.2,16.3z
	 M40.1,15.9l0.3-0.1c0.1,0,0.1,0.1,0.1,0.2c-0.1,0-0.2,0.2-0.3,0.1C40.1,16,40.1,16,40.1,15.9z M31,16.2c0,0.1-0.1,0.2-0.2,0.3
	c0,0,0-0.1-0.1-0.1c0.2-0.1,0-0.4,0.2-0.5C31,15.9,31,16,31,16.2z M29.6,21.6c-0.1,0.1-0.3,0.1-0.4,0l-0.1-0.1
	c0.1-0.2,0.3-0.3,0.4-0.4c1.1-1,1.8-2.2,2.4-3.5c0.1-0.1,0.3-0.1,0.4,0c0.1,0.1,0,0.2,0,0.3C31.6,19.3,30.9,20.6,29.6,21.6z
	 M39.7,20c-0.1,0,0-0.3-0.2-0.2c0,0.1,0.1,0.3,0,0.4c-0.1,0-0.1,0-0.2,0c-0.1-0.1,0-0.2-0.2-0.2c-0.2,0.1,0.1,0.3,0,0.4
	c-0.1,0-0.1,0.1-0.2,0.1c-0.1-0.1-0.1-0.2-0.2-0.2c0,0.1,0,0.2,0.1,0.3c0,0.1-0.2,0.1-0.3,0.1c-0.1-0.1-0.1-0.2-0.2-0.2
	c0,0-0.1,0-0.1,0.1c0,0.1,0.1,0.2,0,0.3c-0.1,0-0.1,0.1-0.2,0.1c-0.1,0-0.1-0.3-0.2-0.2c-0.1,0.1,0.1,0.2,0,0.3
	c-0.1,0-0.2,0.1-0.3,0.1c0-0.1,0-0.2-0.1-0.2c-0.2,0.1,0.1,0.2-0.1,0.3c-0.1,0-0.2,0.1-0.3,0.1c0-0.1-0.1-0.2-0.1-0.3
	c-0.2,0.1,0,0.2-0.1,0.4c-0.1,0-0.1,0.1-0.2,0.1c0-0.1-0.1-0.2-0.1-0.3c0,0-0.1,0-0.1,0c0,0.1,0,0.2,0,0.3c-0.1,0-0.2,0.1-0.3,0
	c0-0.1,0-0.2-0.1-0.2c-0.1,0-0.1,0-0.1,0.1c0,0.1,0.1,0.2,0,0.3c-0.1,0-0.2,0.1-0.2,0c0-0.1,0-0.2-0.1-0.2c-0.2,0,0,0.3-0.1,0.3
	c-0.1,0-0.2,0-0.2,0c0-0.1,0-0.2-0.1-0.2c-0.1,0.1,0,0.4-0.3,0.3c-0.1-0.1,0-0.3-0.1-0.3c-0.1,0.1,0,0.2-0.1,0.3
	c-0.1,0.1-0.1,0-0.2,0c-0.1-0.1,0.1-0.4-0.2-0.3c0,0.1,0,0.3-0.1,0.3c-0.1,0-0.2,0-0.2-0.1c0-0.1,0-0.2,0-0.2c0,0-0.1,0-0.1,0
	c-0.1,0.1,0,0.3-0.1,0.3c-0.1,0-0.2,0-0.3-0.1c0-0.1,0-0.2,0-0.3c-0.2,0-0.1,0.2-0.2,0.3c-0.1,0-0.2,0-0.2,0
	c-0.1-0.1,0.1-0.3-0.1-0.4c-0.2,0.1,0,0.4-0.2,0.4c-0.1,0-0.2,0-0.2-0.1c0-0.1,0.1-0.2,0-0.3c-0.2,0-0.1,0.4-0.3,0.3
	c-0.1,0-0.1,0-0.1-0.1c0-0.1,0.1-0.2,0-0.3c-0.2,0.1-0.1,0.5-0.4,0.3c-0.2-0.1,0.1-0.3,0-0.5c-0.2,0.1-0.1,0.5-0.4,0.3
	c0-0.2,0.1-0.3,0.1-0.4c0,0,0,0,0-0.1c-0.2,0.1-0.2,0.5-0.5,0.3c-0.1-0.2,0.2-0.3,0.1-0.4c-0.2,0.1-0.3,0.5-0.5,0.3
	c0-0.1,0.2-0.2,0.2-0.3c0-0.1-0.1-0.1-0.1-0.1c-0.1,0.1-0.2,0.3-0.3,0.3l0-0.1c0.9-0.9,1.6-2,2.2-3.2c0.9,0.3,1.8,0.6,2.9,0.6
	c1.3,0,2.3-0.3,3.4-0.6c0-0.1,0.1,0,0.1,0c0.5,0.6,0.8,1.1,1,1.8C39.9,19.9,39.8,20,39.7,20z M40.6,20.1c-0.1,0-0.2,0.1-0.2,0
	c-0.1-0.2-0.1-0.4-0.2-0.6c-0.2-0.7-0.7-1.4-1.2-1.9c0-0.1,0-0.2,0.1-0.2c0.3-0.2,0.4,0.2,0.6,0.3c0.5,0.6,0.8,1.3,1,2.1
	C40.7,19.9,40.7,20.1,40.6,20.1z M41.3,18.4c-0.1,0-0.1-0.3-0.2-0.2c-0.1,0.1,0.1,0.2,0.1,0.4c-0.1,0.1-0.1,0.2-0.2,0.1
	c-0.1-0.1-0.1-0.1-0.2-0.2c-0.2,0.1,0.1,0.3,0,0.4c-0.1,0-0.1,0.1-0.1,0c-0.2-0.6-0.6-1.1-1-1.6c0.3-0.2,0.6-0.4,0.8-0.6
	c0.4,0.4,0.7,0.9,0.9,1.4C41.4,18.3,41.4,18.4,41.3,18.4z M44.4,11c0.1,0,0.2,0.1,0.3,0.1c0,0,0,0.1,0,0.1c-0.1,0-0.1-0.1-0.2,0
	c0,0,0,0.1,0,0.1c0.1,0.1,0.2,0.1,0.2,0.2c0,0,0,0.1,0,0.1c-0.1,0-0.1-0.1-0.2,0c0,0.2,0.2,0.2,0.2,0.4l0,0c-0.1,0-0.2-0.1-0.3,0
	c0,0.1,0.2,0.1,0.2,0.2c0,0.1,0.1,0.1,0,0.2c0,0.1-0.1,0.1-0.2,0.1c-0.1,0-0.1-0.1-0.2,0c-0.1,0.1,0,0.1,0.1,0.1
	c0.1,0,0.1,0.1,0.1,0.1c0,0,0,0.1-0.1,0.1c-0.1,0-0.2-0.1-0.2,0c0,0.1,0.2,0.1,0.1,0.2L44,13c-0.1-0.1-0.5-0.1-0.4-0.4
	c0-0.3,0-0.5,0-0.8C43.9,11.6,44.1,11.3,44.4,11z M42.9,13.1c0.3-0.4,0.7,0.1,1,0.2c0.1,0.1,0.3,0.1,0.4,0.2c0,0.1,0,0.2,0,0.3
	c0,0.1-0.1,0.1-0.2,0.1c-0.4-0.1-0.7-0.3-1.1-0.5C42.9,13.3,42.8,13.2,42.9,13.1z M42.8,14.1c0.1-0.1,0.2-0.3,0.2-0.4l0.6,0.3
	c0,0,0,0.1,0,0.1c-0.1,0-0.2-0.1-0.2,0c0,0.1,0.2,0.1,0.1,0.3c0,0.1,0,0.1-0.1,0.2c-0.1,0-0.1-0.1-0.2,0c-0.1,0.1,0.2,0.1,0.1,0.3
	c0,0.1,0,0.1-0.1,0.2c-0.1,0-0.1-0.2-0.2-0.1C43,15,43.1,15,43.2,15.1c0,0.1,0,0.2-0.1,0.2c-0.1,0-0.1-0.1-0.2-0.1
	c-0.1,0.2,0.2,0.2,0.1,0.4c0,0,0,0.1-0.1,0.1c-0.1,0-0.1-0.1-0.2-0.1c0,0.1,0.1,0.2,0.2,0.3c0,0.1,0,0.2-0.2,0.2
	c-0.1,0-0.1-0.1-0.2-0.1c0,0-0.1,0.1,0,0.1c0,0.1,0.2,0.1,0.2,0.2c0,0,0,0.1-0.1,0.2c-0.1,0-0.1-0.2-0.3-0.1
	c-0.1,0.2,0.3,0.3,0.1,0.5c0,0.1-0.1,0-0.1,0c0,0,0-0.1-0.1-0.1c0,0-0.1,0-0.1,0.1c0,0.1,0.2,0.2,0.1,0.3L42,17.2
	c-0.2-0.4-0.5-0.7-0.8-1.1C41.9,15.6,42.4,14.9,42.8,14.1z M42.1,18.3c0,0.1,0,0.2-0.1,0.3c-0.1,0-0.1,0.1-0.2,0l0-0.1
	c-0.3-0.7-0.6-1.5-1.2-2.1c-0.1-0.1,0-0.1,0-0.2c0,0,0.1-0.1,0.1-0.1c0.1,0,0.2,0.1,0.3,0.1C41.6,16.9,41.9,17.6,42.1,18.3z
	 M40.5,15.4c0.1,0.1,0.2,0.2,0.3,0.3c0,0.1,0,0.1,0,0.2c-0.2,0.1-0.2-0.2-0.3-0.2c-0.1-0.1-0.2-0.2-0.3-0.3
	C40.4,15.3,40.5,15.4,40.5,15.4z M40.3,15.7l-0.3,0c-0.1-0.2-5.3-8.3-5.3-8.4c0-0.1,0-0.2,0.1-0.2C35,7.3,40.1,15.4,40.3,15.7z
	 M33.7,6.4c0.1-0.1,0.2-0.2,0.3-0.3c0.2-0.1,0.5-0.1,0.7,0.1c0.1,0.1,0.2,0.2,0.2,0.3c0.1,0.1,0.1,0.4,0,0.5
	c-0.1-0.1-0.2-0.3-0.2-0.4c-0.1-0.1-0.3-0.2-0.5-0.2c-0.3,0.1-0.4,0.3-0.5,0.5l-0.1,0C33.6,6.7,33.6,6.6,33.7,6.4z M30.6,15.5
	c0.6-1.3,3-7.8,3.1-8.2C33.8,7,34,7.2,34.1,7.1c0,0.2-3.2,8.3-3.3,8.5c-0.1,0.1-0.1,0.2-0.3,0.1C30.5,15.7,30.5,15.6,30.6,15.5z
	 M30.3,15.9c0-0.1,0.1,0,0.2,0l0.1,0c0,0.1,0,0.1,0,0.2l0,0C30.5,16.1,30.2,16.2,30.3,15.9z M30.2,15.6l0.1-0.1c0,0,0,0.1,0,0.2
	c-0.1,0.1-0.2,0.2-0.2,0.4c0,0-0.1,0-0.2,0.1C30,16,30,15.8,30.2,15.6z M29.1,15.4c0.2,0.4,0.4,0.8,0.8,1.2
	c-0.6,1.3-1.5,2.5-2.6,3.4c-0.1,0.1-0.2,0-0.3,0.1l0,0c0.1-0.1,0.2-0.2,0.3-0.3c0,0-0.1-0.1-0.1-0.1c-0.2,0-0.2,0.2-0.4,0.2
	c-0.1-0.1-0.2,0-0.2-0.1c0.1-0.2,0.3-0.2,0.3-0.4c-0.2-0.1-0.3,0.2-0.5,0.2c-0.1,0-0.2,0.1-0.3,0C27.4,18.5,28.6,17,29.1,15.4z
	 M25.6,15.5c0.7-0.8,1.5-1.6,2.6-1.8c0.2,0,0.3,0,0.4,0.1c0.4,0.3,0.3,0.8,0.3,1.3c0,0.3-0.2,0.6-0.3,0.9c-0.4,0.8-0.8,1.6-1.5,2.3
	c-0.6,0.6-1.2,1.2-1.9,1.5c-0.3,0.1-0.7,0.3-1,0c-0.2-0.2-0.2-0.6-0.2-0.9C24.2,17.5,24.9,16.5,25.6,15.5z"/>
<path fill="#0062AE" d="M34.6,6.7c0-0.2-0.3-0.3-0.5-0.1c-0.1,0.1-0.1,0.3-0.1,0.4c0.1,0.1,0.2,0.2,0.3,0.2c0.1,0,0.2-0.1,0.2-0.2
	C34.7,6.8,34.6,6.8,34.6,6.7z"/>
<path fill="#B68000" d="M33.8,6.9c0.1-0.3,0.3-0.5,0.5-0.5c0.2,0,0.4,0.1,0.5,0.2C34.8,6.7,34.9,6.9,35,7c0.1-0.1,0.1-0.3,0-0.5
	c-0.1-0.1-0.1-0.2-0.2-0.3c-0.2-0.1-0.5-0.2-0.7-0.1c-0.1,0.1-0.2,0.2-0.3,0.3C33.6,6.6,33.6,6.7,33.8,6.9L33.8,6.9z"/>
<path fill="#B68000" d="M34.2,7.3l-0.1,0.1c0.1,0.1,0.3,0,0.4,0l-0.1-0.1L34.2,7.3z"/>
<path fill="#0062AE" d="M30.8,16.8c0.2,0.3,0.6,0.4,0.9,0.6c0.1-0.1,0.2-0.2,0.3-0.2c0.2,0,0.4,0.1,0.5,0.3c0.1,0.1,0,0.3,0.2,0.3
	c0.4,0.2,0.9,0.3,1.3,0.4c1.3,0.3,2.9,0.2,4.1-0.2c0.2,0,0.4-0.1,0.5-0.2c0-0.2,0.1-0.5,0.3-0.6c0.2-0.1,0.4-0.1,0.6,0.1
	c0.3-0.1,0.5-0.4,0.8-0.6c-0.2,0-0.4-0.1-0.6-0.3c-0.2-0.2-0.1-0.6,0-0.8c-0.2-0.4-0.5-0.7-0.6-1.1c-0.2-0.2-0.4-0.5-0.5-0.8
	c-0.1-0.2-0.3-0.4-0.4-0.6c0-0.3-0.3-0.4-0.4-0.6c-0.1-0.2-0.2-0.3-0.3-0.5c-0.2-0.3-0.5-0.6-0.6-1c-0.2-0.3-0.5-0.6-0.6-0.9
	c-0.2-0.3-0.4-0.5-0.6-0.8c0-0.3-0.3-0.4-0.4-0.6c-0.2-0.3-0.3-0.6-0.6-0.8c-0.2,0.1-0.4,0-0.6,0L34,7.8c-0.1,0.4-0.2,0.8-0.4,1.1
	c0,0.2-0.1,0.4-0.2,0.6c-0.3,0.5-0.3,1-0.6,1.5c-0.1,0.4-0.2,0.7-0.4,1.1c-0.1,0.3-0.2,0.6-0.3,0.9c-0.1,0.3-0.1,0.6-0.3,0.9
	c-0.1,0.3-0.2,0.7-0.4,1l-0.2,0.6c-0.1,0.1,0.1,0.2,0.1,0.2c0.1,0.3,0.1,0.6-0.1,0.8C31,16.6,30.8,16.7,30.8,16.8z"/>
<path fill="#0062AE" d="M9.6,10l-0.3,0c0,0.3,0.1,0.7,0.1,1l0.5,3.9l0.5,4l0.5,3.4l1.2,0c0.1,0,0.3,0,0.4,0c0.1-0.1,0.1-0.3,0.1-0.5
	l0.7-5.9l0.4-3.8c0.1-0.7,0.2-1.4,0.2-2.1h-1.4L9.6,10z"/>
<path fill="#DB9800" d="M43.6,12.6c-0.1,0.3,0.3,0.3,0.4,0.4l0.1,0c0.1-0.1-0.1-0.1-0.1-0.2c0-0.1,0.2,0,0.2,0c0,0,0.1-0.1,0.1-0.1
	c0-0.1,0-0.1-0.1-0.1c0,0-0.1-0.1-0.1-0.1c0.1,0,0.2,0,0.2,0c0.1,0,0.1,0,0.2-0.1c0-0.1,0-0.1,0-0.2c-0.1-0.1-0.2-0.1-0.2-0.2
	c0.1-0.1,0.2,0,0.3,0l0,0c0.1-0.2-0.2-0.2-0.2-0.4c0-0.1,0.1,0,0.2,0c0,0,0-0.1,0-0.1c0-0.1-0.1-0.1-0.2-0.2c0,0,0-0.1,0-0.1
	c0.1,0,0.1,0,0.2,0c0,0,0-0.1,0-0.1c-0.1,0-0.2-0.1-0.3-0.1c-0.3,0.3-0.5,0.6-0.9,0.9C43.6,12.1,43.6,12.4,43.6,12.6z"/>
<path fill="#DB9800" d="M44.1,13.9c0.1,0,0.1-0.1,0.2-0.1c0-0.1,0.1-0.2,0-0.3c-0.1-0.1-0.2-0.2-0.4-0.2c-0.3-0.1-0.7-0.6-1-0.2
	c0,0.1,0,0.2,0.1,0.3C43.3,13.5,43.7,13.8,44.1,13.9z"/>
<path fill="#DB9800" d="M25.2,19.7c0.7-0.4,1.3-0.9,1.9-1.5c0.6-0.7,1.1-1.5,1.5-2.3c0.1-0.3,0.2-0.5,0.3-0.9c0-0.4,0.1-0.9-0.3-1.3
	c-0.1-0.1-0.3-0.1-0.4-0.1c-1.1,0.2-1.9,1-2.6,1.8c-0.7,1-1.5,2.1-1.6,3.4c0,0.3,0,0.7,0.2,0.9C24.5,19.9,24.9,19.8,25.2,19.7z
	 M24.5,18.1c0.4-1.2,1.1-2.2,1.9-3.1c0.3-0.3,0.6-0.5,1-0.8c0.3-0.1,0.7-0.4,1-0.2c0.2,0.4,0.1,1,0,1.4c-0.6,1.5-1.7,3-3.1,3.8
	c-0.2,0.1-0.5,0.2-0.7,0C24.2,19,24.4,18.5,24.5,18.1z"/>
<path fill="#DB9800" d="M42.2,17.2C42.2,17,42,17,42,16.8c0,0,0-0.1,0.1-0.1c0,0,0.1,0.1,0.1,0.1c0,0,0.1,0.1,0.1,0
	c0.2-0.2-0.2-0.3-0.1-0.5c0.1-0.1,0.1,0.1,0.3,0.1c0.1,0,0.1-0.1,0.1-0.2c0-0.1-0.1-0.1-0.2-0.2c0,0,0-0.1,0-0.1
	c0.1,0,0.1,0.1,0.2,0.1c0.1,0,0.1-0.1,0.2-0.2c0-0.1-0.2-0.1-0.2-0.3c0.1-0.1,0.1,0.1,0.2,0.1c0.1,0,0.1-0.1,0.1-0.1
	c0.1-0.2-0.3-0.2-0.1-0.4c0.1,0,0.1,0.1,0.2,0.1c0.1,0,0.1-0.1,0.1-0.2c0-0.1-0.2-0.1-0.1-0.2c0.1-0.1,0.1,0.1,0.2,0.1
	c0.1,0,0.1-0.1,0.1-0.2c0.1-0.2-0.2-0.1-0.1-0.3c0.1-0.1,0.1,0,0.2,0c0,0,0.1-0.1,0.1-0.2c0-0.1-0.1-0.1-0.1-0.3c0-0.1,0.1,0,0.2,0
	c0,0,0-0.1,0-0.1L43,13.7c-0.1,0.2-0.2,0.3-0.2,0.4c-0.4,0.7-0.9,1.5-1.5,2.1c0.3,0.3,0.6,0.7,0.8,1.1L42.2,17.2z"/>
<path d="M25.3,19.3c1.5-0.8,2.6-2.3,3.1-3.8c0.2-0.4,0.3-1,0-1.4c-0.3-0.3-0.7,0-1,0.2c-0.3,0.2-0.7,0.5-1,0.8
	c-0.9,0.9-1.6,2-1.9,3.1c-0.1,0.4-0.3,0.9,0,1.2C24.7,19.5,25.1,19.4,25.3,19.3z M24.9,17.8c0.3-0.9,0.9-1.8,1.5-2.5
	c0.2-0.2,0.5-0.4,0.8-0.6c0.3-0.1,0.7-0.6,1-0.4c0.2,0.3-0.1,1-0.2,1.4c-0.5,1.2-1.3,2.4-2.5,3c-0.2,0.1-0.5,0.3-0.7,0.2
	C24.5,18.7,24.8,18.1,24.9,17.8z"/>
<path fill="#DB9800" d="M25.5,18.8c1.2-0.7,2-1.8,2.5-3c0.1-0.3,0.4-1,0.2-1.4c-0.3-0.2-0.7,0.3-1,0.4c-0.3,0.2-0.5,0.4-0.8,0.6
	c-0.7,0.7-1.3,1.6-1.5,2.5c-0.1,0.3-0.3,0.9-0.1,1.1C25,19.1,25.3,18.8,25.5,18.8z"/>
<path fill="#DB9800" d="M26,19.5c0.1,0.1,0.2,0,0.3,0c0.2-0.1,0.3-0.3,0.5-0.2c0,0.2-0.3,0.2-0.3,0.4c0.1,0.1,0.2,0,0.2,0.1
	c0.2,0,0.2-0.2,0.4-0.2c0,0,0.1,0,0.1,0.1c-0.1,0.1-0.2,0.2-0.3,0.3l0,0c0.1,0,0.2,0,0.3-0.1c1.1-0.9,2-2.1,2.6-3.4
	c-0.4-0.3-0.5-0.8-0.8-1.2C28.6,17,27.4,18.5,26,19.5z"/>
<path fill="#B68000" d="M40.6,15.7c0.1,0.1,0.1,0.3,0.3,0.2c0-0.1,0-0.1,0-0.2c-0.1-0.1-0.2-0.2-0.3-0.3c-0.1,0-0.2-0.1-0.2,0
	C40.4,15.5,40.5,15.6,40.6,15.7z"/>
<path fill="#B68000" d="M39.8,15.7L39.8,15.7c-0.1,0.2-0.1,0.4,0,0.5c0.1,0.1,0.2,0.2,0.4,0.2v-0.1c-0.1,0-0.1-0.1-0.2-0.1
	C39.9,16.1,40,15.8,39.8,15.7z"/>
<path fill="#B68000" d="M30.3,15.7c0-0.1,0-0.1,0-0.2l-0.1,0.1C30,15.8,30,16,30,16.2c0,0,0.1-0.1,0.2-0.1
	C30.1,15.9,30.2,15.8,30.3,15.7z"/>
<path fill="#B68000" d="M30.7,16.3c0,0,0,0.1,0.1,0.1c0.1,0,0.2-0.2,0.2-0.3c0-0.1,0-0.3,0-0.4C30.7,15.9,30.9,16.2,30.7,16.3z"/>
<path fill="#0062AE" d="M40.5,16c0-0.1,0-0.2-0.1-0.2l-0.3,0.1c0,0.1,0,0.1,0.1,0.2C40.3,16.2,40.4,16,40.5,16z"/>
<path fill="#0062AE" d="M30.6,16.2c0-0.1,0.1-0.1,0-0.2l-0.1,0c-0.1,0-0.2-0.1-0.2,0C30.2,16.2,30.5,16.1,30.6,16.2L30.6,16.2z"/>
<path fill="#DB9800" d="M39.7,17.4c0.4,0.5,0.8,1,1,1.6c0,0.1,0.1,0,0.1,0c0.1-0.1-0.2-0.3,0-0.4c0.1,0,0.1,0.1,0.2,0.2
	c0.1,0,0.1-0.1,0.2-0.1c0-0.1-0.1-0.3-0.1-0.4c0.1-0.1,0.1,0.1,0.2,0.2c0,0,0.1-0.1,0.1-0.2c-0.2-0.5-0.5-1-0.9-1.4
	C40.3,17,40,17.2,39.7,17.4z"/>
<path fill="#DB9800" d="M29.4,20.9c0.5-0.4,0.8-0.9,1.2-1.3c0.4-0.6,0.8-1.2,1-1.9c-0.3-0.1-0.6-0.3-0.9-0.5
	c-0.6,1.1-1.3,2.3-2.4,3.2l0,0.1c0.2,0.3,0.4-0.1,0.6-0.1c0,0,0.1,0,0,0.1c-0.1,0.1-0.2,0.1-0.2,0.2c0,0,0.1,0.1,0.2,0.1
	c0.1,0,0.2-0.3,0.4-0.2c0,0.1-0.1,0.2-0.2,0.3l0,0C29.2,21,29.3,20.9,29.4,20.9z"/>
<path fill="#D23838" d="M34.7,7.3c0.1,0.2,5.2,8.3,5.3,8.4l0.3,0c-0.1-0.3-5.3-8.3-5.5-8.6C34.7,7.1,34.7,7.2,34.7,7.3z"/>
<path fill="#D23838" d="M30.8,15.6c0.1-0.2,3.2-8.3,3.3-8.5c0,0-0.3-0.2-0.4,0.2c-0.1,0.3-2.5,6.8-3.1,8.2c0,0.1-0.1,0.2,0,0.3
	C30.7,15.8,30.7,15.7,30.8,15.6z"/>
<path fill="#D23838" d="M40.6,16.3c0,0.1-0.1,0.1,0,0.2c0.6,0.6,1,1.3,1.2,2.1l0,0.1c0.1,0,0.1,0,0.2,0c0.1,0,0.1-0.2,0.1-0.3
	c-0.2-0.7-0.6-1.5-1.2-2c-0.1-0.1-0.1-0.1-0.3-0.1C40.7,16.2,40.6,16.2,40.6,16.3z"/>
<path fill="#D23838" d="M30.4,17c0-0.2,0.2-0.4,0.1-0.6c-0.1,0-0.1-0.1-0.2-0.1c0,0-0.1,0-0.1,0.1c-0.7,1.6-1.8,3-3.3,4
	c0,0.1,0,0.2,0,0.2c0.1,0.1,0.3,0,0.4,0C28.7,19.8,29.7,18.4,30.4,17z"/>
<path fill="#D23838" d="M39.6,17.7c-0.2-0.1-0.3-0.5-0.6-0.3c-0.1,0-0.1,0.1-0.1,0.2c0.5,0.6,1,1.2,1.2,1.9c0.1,0.2,0.1,0.4,0.2,0.6
	c0.1,0.1,0.2,0,0.2,0c0.1-0.1,0.1-0.2,0.1-0.3C40.4,19.1,40.1,18.3,39.6,17.7z"/>
<path fill="#D23838" d="M32.2,18c0-0.1,0.1-0.2,0-0.3c-0.1-0.2-0.3-0.2-0.4,0c-0.6,1.3-1.3,2.5-2.4,3.5c-0.1,0.1-0.3,0.2-0.4,0.4
	l0.1,0.1c0.1,0.1,0.3,0,0.4,0C30.9,20.6,31.6,19.3,32.2,18z"/>
<path fill="#DB9800" d="M38.8,18c-1.1,0.4-2.2,0.7-3.4,0.6c-1,0-2-0.3-2.9-0.6c-0.5,1.2-1.2,2.3-2.2,3.2l0,0.1
	c0.2,0,0.2-0.2,0.3-0.3c0,0,0.1,0,0.1,0.1c-0.1,0.1-0.2,0.2-0.2,0.3c0.3,0.3,0.4-0.2,0.5-0.3c0.1,0.2-0.2,0.3-0.1,0.4
	c0.3,0.2,0.3-0.3,0.5-0.3c0,0,0,0,0,0.1c0,0.1-0.1,0.3-0.1,0.4c0.3,0.2,0.3-0.2,0.4-0.3c0.2,0.1-0.1,0.3,0,0.5
	c0.3,0.1,0.2-0.3,0.4-0.3c0.1,0.1,0,0.2,0,0.3c0,0.1,0.1,0.1,0.1,0.1c0.3,0,0.1-0.3,0.3-0.3c0.1,0.1,0,0.2,0,0.3
	c0,0.1,0.1,0.1,0.2,0.1c0.2,0,0.1-0.3,0.2-0.4c0.1,0.1,0,0.3,0.1,0.4c0.1,0,0.1,0,0.2,0c0.1-0.1,0-0.3,0.2-0.3c0.1,0.1,0,0.2,0,0.3
	c0,0.1,0.2,0.1,0.3,0.1c0.1-0.1,0-0.2,0.1-0.3c0,0,0.1,0,0.1,0c0.1,0.1,0,0.2,0,0.2c0,0.1,0.1,0.1,0.2,0.1c0.1-0.1,0.1-0.2,0.1-0.3
	c0.2-0.1,0,0.2,0.2,0.3c0.1,0,0.1,0,0.2,0c0-0.1,0-0.2,0.1-0.3c0.1,0,0.1,0.2,0.1,0.3c0.3,0.1,0.1-0.3,0.3-0.3
	c0.1,0,0.1,0.2,0.1,0.2c0.1,0.1,0.1,0,0.2,0c0.1-0.1,0-0.3,0.1-0.3c0.1,0.1,0.1,0.2,0.1,0.2c0.1,0.1,0.1,0,0.2,0c0.1,0,0-0.2,0-0.3
	c0,0,0-0.1,0.1-0.1c0.1,0,0.1,0.1,0.1,0.2c0,0.1,0.2,0,0.3,0c0-0.1,0-0.2,0-0.3c0,0,0-0.1,0.1,0c0.1,0.1,0.1,0.2,0.1,0.3
	c0.1,0,0.2,0,0.2-0.1c0.1-0.1-0.1-0.3,0.1-0.4c0.1,0.1,0.1,0.2,0.1,0.3c0.1,0,0.2-0.1,0.3-0.1c0.1-0.1-0.2-0.3,0.1-0.3
	c0.1,0,0.1,0.2,0.1,0.2c0.1,0,0.2-0.1,0.3-0.1c0.1-0.1-0.1-0.2,0-0.3c0.2-0.1,0.1,0.2,0.2,0.2c0.1,0,0.1,0,0.2-0.1
	c0.1-0.1,0-0.2,0-0.3c0-0.1,0-0.1,0.1-0.1c0.1,0,0.1,0.2,0.2,0.2c0.1,0,0.2,0,0.3-0.1c0-0.1-0.1-0.2-0.1-0.3c0.1,0,0.1,0.1,0.2,0.2
	c0.1,0.1,0.1,0,0.2-0.1c0-0.1-0.2-0.3,0-0.4c0.1,0,0.1,0.1,0.2,0.2c0.1,0,0.1,0,0.2,0c0.1-0.1-0.1-0.3,0-0.4
	c0.2-0.1,0.1,0.1,0.2,0.2c0.1,0,0.1-0.1,0.2-0.1C39.7,19.2,39.4,18.6,38.8,18C38.9,18,38.8,18,38.8,18z"/>
<path fill="#0062AE" d="M12.7,22.6c-0.6,0-1.2,0-1.8,0c-0.3,0.2-0.5,0.5-0.6,0.9c-0.1,0.5,0.1,1.1,0.5,1.5c0.4,0.4,1,0.5,1.5,0.3
	c0.5-0.2,0.9-0.6,1-1.1C13.4,23.6,13.2,23,12.7,22.6z"/>
<path d="M2.5,40.3c0.2,0.6,0.6,1.1,1.1,1.3c0.4,0.2,0.9,0.1,1.3-0.1c0.1,0,0.2-0.1,0.1-0.2c-0.2-0.1-0.4-0.3-0.5-0.5
	c-0.1-0.2-0.1-0.4,0-0.5c0-0.3,0.3-0.6,0.6-0.6l5,0l0,4.7l0,0.4C10,45,9.7,45.2,9.5,45.2c-0.4,0-0.7-0.2-0.9-0.5
	c-0.1-0.1-0.2,0.1-0.3,0.1C8.1,45.1,8,45.6,8.1,46c0.2,0.7,0.8,1.1,1.5,1.3c0.5,0.2,1,0,1.4-0.1c0.3-0.1,0.4-0.2,0.7-0.4
	c0.3,0.2,0.7,0.4,1.1,0.5c0.8,0.2,1.8,0,2.4-0.5c0.4-0.4,0.6-0.9,0.5-1.4c-0.1-0.2-0.2-0.6-0.5-0.6c-0.1,0.2-0.3,0.4-0.5,0.4
	c-0.3,0.1-0.6,0.2-0.9,0c-0.4-0.2-0.4-0.5-0.5-0.8v-4.7c0,0,4.4,0,5.3,0c0.3,0.1,0.4,0.4,0.5,0.7c0,0.3-0.1,0.6-0.3,0.7
	c-0.1,0-0.2,0.1-0.2,0.2c0.1,0.1,0.3,0.2,0.4,0.3c0.2,0.1,0.6,0.1,0.9,0.1c0.6-0.1,1-0.7,1.2-1.2c0.2-0.9,0-1.8-0.5-2.5
	c0.6-0.5,0.7-1.3,0.6-2.1c0-0.4-0.2-0.8-0.5-1.1c-0.3-0.3-0.7-0.5-1.1-0.5c-0.4,0-0.7,0.1-1,0.4c-0.1,0.1,0.1,0.1,0.2,0.2
	c0.2,0.3,0.4,0.6,0.3,0.9c-0.1,0.3-0.3,0.5-0.5,0.5l-5.3,0v-4.8c0-0.2,0.3-0.5,0.6-0.6c0.3-0.1,0.7,0,0.9,0.1
	c0.1,0.1,0.3,0.2,0.3,0.4c0.1,0,0.1-0.1,0.1-0.1c0.4-0.3,0.5-0.8,0.3-1.2c-0.1-0.6-0.7-1.1-1.3-1.3c-0.7-0.2-1.5,0-2.1,0.3
	c-0.1,0.1-0.4,0.2-0.5,0.2c-0.3-0.2-0.5-0.4-0.8-0.5c-0.5-0.2-1.1-0.2-1.6,0C8.7,29,8.1,29.5,8,30.1c0,0.5,0.1,1,0.5,1.2
	c0.1,0.1,0.1-0.1,0.2-0.2c0.2-0.2,0.5-0.3,0.8-0.3c0.3,0,0.6,0.2,0.7,0.6c0,0,0,4.4,0,4.8H5.5c-0.2,0-0.6-0.1-0.8-0.2
	c-0.1-0.2-0.3-0.5-0.2-0.8C4.6,35,4.7,34.8,5,34.7c0.1,0,0.1-0.1,0-0.2c-0.3-0.2-0.6-0.4-1-0.4c-0.7,0-1.2,0.6-1.5,1.1
	c-0.4,0.9-0.1,1.9,0.4,2.7C2.4,38.6,2.3,39.5,2.5,40.3z M2.9,36c0-0.5,0.3-1,0.8-1.3c0.2,0,0.4-0.1,0.6,0c-0.3,0.3-0.3,0.6-0.3,1
	c0,0.5,0.4,0.8,0.8,1c0.2,0,0.4,0.1,0.7,0.1h5.2c0,0,0-3.6,0-5.3c-0.1-0.5-0.4-0.9-0.9-1c-0.5-0.2-0.9,0-1.3,0.2
	c-0.1-0.3-0.1-0.7,0.2-1c0.3-0.3,0.8-0.5,1.2-0.6c0.6-0.1,1.2,0.2,1.6,0.5c0.1,0.1,0.1,0.1,0.2,0.2c0.9-0.6,1.7-0.9,2.6-0.6
	c0.5,0.2,0.9,0.7,0.9,1.2c0,0.1,0,0.1,0,0.2c-0.4-0.3-0.9-0.4-1.3-0.3c-0.5,0.1-0.9,0.6-0.9,1.1l0,5.3l4.9,0c0.6,0,1.3,0.1,1.6-0.4
	c0.3-0.3,0.4-0.7,0.3-1.1c-0.1-0.2-0.1-0.4-0.3-0.6c0.2-0.1,0.5,0,0.7,0c0.7,0.3,0.8,1.1,0.8,1.8c0,0.6-0.3,1.1-0.8,1.4
	c0.2,0.2,0.3,0.4,0.5,0.7c0.3,0.6,0.4,1.4,0.1,2c-0.1,0.1-0.2,0.3-0.3,0.4l0,0.1c-0.2,0.2-0.5,0.2-0.8,0.2c0,0,0-0.1,0-0.1
	c0.4-0.4,0.3-0.9,0.3-1c0-0.3-0.3-0.7-0.5-0.8c-0.4-0.1,0-0.2-1.4-0.2c-1,0-4.8,0-4.8,0l0,3.7c0,0.5,0,1.1,0,1.6
	c0,0.4,0,0.8,0.4,1.1c0.4,0.3,0.9,0.4,1.4,0.2c0.2-0.1,0.3-0.2,0.5-0.3c0.1,0.1,0.1,0.2,0.1,0.3c0,0.6-0.6,1-1.1,1.1
	c-0.4,0.1-0.8,0.1-1.2,0c-0.4-0.1-0.8-0.4-1.2-0.6c-0.2,0.2-0.3,0.2-0.5,0.4c-0.2,0.1-0.3,0.2-0.5,0.2c-0.4,0.2-1,0.1-1.4-0.1
	c-0.4-0.2-0.7-0.5-0.8-0.9c0-0.1-0.1-0.3,0-0.4c0.3,0.3,0.7,0.4,1.1,0.3c0.4-0.1,0.9-0.4,1-0.8l0-0.4c0,0,0-4.8,0-5.3
	c0,0-4.3,0-5.2,0c-0.7,0-1.1,0.1-1.4,0.4c-0.2,0.4-0.2,0.9,0,1.3c0,0.1,0.1,0.2,0.2,0.3c-0.1,0.1-0.3,0-0.5,0
	c-0.1-0.1-0.3-0.1-0.3-0.2c-0.1,0-0.1-0.1-0.2-0.1c-0.1-0.1-0.2-0.2-0.2-0.4c-0.3-0.6-0.2-1.4,0.1-2c0.1-0.2,0.3-0.3,0.4-0.5
	C3.6,38,2.8,36.7,2.9,36z"/>
<path fill="#D23838" d="M3.2,38.4c-0.4,0.5-0.4,1.4-0.1,2c0,0.2,0.2,0.3,0.2,0.4c0,0.1,0.1,0.1,0.2,0.1c0.1,0.1,0.2,0.1,0.3,0.2
	c0.2,0,0.3,0.1,0.5,0c0-0.1-0.1-0.2-0.2-0.3c-0.2-0.4-0.2-0.9,0-1.3c0.2-0.4,0.7-0.4,1.4-0.4c0.8,0,5.2,0,5.2,0c0,0.5,0,5.3,0,5.3
	l0,0.4c-0.1,0.4-0.6,0.7-1,0.8c-0.4,0.1-0.8,0-1.1-0.3c-0.1,0.1,0,0.3,0,0.4c0.1,0.4,0.4,0.7,0.8,0.9c0.4,0.2,1,0.2,1.4,0.1
	c0.2,0,0.3-0.1,0.5-0.2c0.2-0.1,0.3-0.2,0.5-0.4c0.3,0.2,0.7,0.5,1.2,0.6c0.4,0.1,0.8,0.1,1.2,0c0.5-0.2,1.1-0.5,1.1-1.1
	c0-0.1,0-0.2-0.1-0.3c-0.2,0.1-0.3,0.3-0.5,0.3c-0.5,0.2-1,0.1-1.4-0.2c-0.3-0.2-0.4-0.7-0.4-1.1c0-0.5,0-1.1,0-1.6l0-3.7
	c0,0,3.8,0,4.8,0c1.4,0,1.1,0.1,1.4,0.2c0.2,0.1,0.5,0.5,0.5,0.8c0,0.1,0.1,0.6-0.3,1c0,0,0,0.1,0,0.1c0.3,0,0.6,0,0.8-0.2l0-0.1
	c0.1-0.1,0.2-0.2,0.3-0.4c0.3-0.6,0.2-1.4-0.1-2c-0.2-0.2-0.3-0.4-0.5-0.7c0.5-0.3,0.8-0.9,0.8-1.4c0-0.7-0.1-1.4-0.8-1.8
	c-0.2-0.1-0.5-0.2-0.7,0c0.1,0.2,0.2,0.3,0.3,0.6c0.1,0.4,0,0.8-0.3,1.1c-0.4,0.5-1.1,0.3-1.6,0.4l-4.9,0l0-5.3c0-0.5,0.5-1,0.9-1.1
	c0.5-0.1,1,0,1.3,0.3c0,0,0.1-0.1,0-0.2c0-0.5-0.4-1-0.9-1.2c-0.9-0.3-1.7,0-2.6,0.6c-0.1-0.1-0.1-0.2-0.2-0.2
	c-0.5-0.4-1.1-0.6-1.6-0.5c-0.4,0.1-0.9,0.3-1.2,0.6c-0.2,0.3-0.3,0.7-0.2,1c0.4-0.2,0.8-0.4,1.3-0.2c0.4,0.1,0.8,0.5,0.9,1
	c0,1.7,0,5.3,0,5.3H5.5c-0.2,0-0.5,0-0.7-0.1c-0.4-0.2-0.7-0.5-0.8-1c0-0.4,0-0.7,0.3-1c-0.2-0.1-0.4,0-0.6,0
	c-0.5,0.3-0.8,0.8-0.8,1.3c-0.1,0.7,0.7,2,0.7,2C3.5,38.1,3.3,38.2,3.2,38.4z"/>
<path fill="#DB9800" d="M42.9,36.7c-1.4-0.6-3.3-0.3-4.4,0.7h0c0.1-0.4,0.1-0.9,0-1.4c-0.2-1.5-1.4-3-2.9-3.4
	c-0.4-0.1-0.8-0.2-1.3-0.2c-1.2-0.1-2.2,0.3-3.1,1.1c-1.1,1-1.5,2.5-1.2,4c0,0,0,0.1,0,0.1c-0.9-1-2.1-1.4-3.4-1.3
	c-1.3,0.1-2.8,0.9-3.4,2.1c0,0,0,15.8,0,16.5c0.5,0,1.2,0,1.7-0.1c1.1,0,2.2-0.2,3.3-0.3c2.7-0.5,5.3-1.3,7.7-2.5
	c3.2-1.6,6.3-4.3,8-7.6c0.5-1,1-2.1,1.2-3.3l0,0c0-0.3,0.1-0.5,0.2-0.9C45.6,38.7,44.3,37.2,42.9,36.7z"/>
</svg>
